<svg width="24" height="24" viewBox="0 0 24 24" fill="none" xmlns="http://www.w3.org/2000/svg">
<path fill-rule="evenodd" clip-rule="evenodd" d="M3 12C3 7.02944 7.02944 3 12 3C16.9706 3 21 7.02944 21 12C21 16.9706 16.9706 21 12 21C7.02944 21 3 16.9706 3 12ZM12 1C5.92487 1 1 5.92487 1 12C1 18.0751 5.92487 23 12 23C18.0751 23 23 18.0751 23 12C23 5.92487 18.0751 1 12 1ZM16.7972 9.73881C17.3291 8.16924 15.8308 6.67092 14.2612 7.20276L9.92456 8.67219C9.33494 8.87198 8.87198 9.33494 8.67219 9.92456L7.20276 14.2612C6.67092 15.8308 8.16924 17.3291 9.73881 16.7972L14.0754 15.3278C14.6651 15.128 15.128 14.6651 15.3278 14.0754L16.7972 9.73881ZM10.5664 10.5664L14.903 9.09697L13.4336 13.4336L9.09697 14.903L10.5664 10.5664Z" fill="black" fill-opacity="0.88"/>
</svg>
