<svg width="24" height="24" viewBox="0 0 24 24" fill="none" xmlns="http://www.w3.org/2000/svg">
<path fill-rule="evenodd" clip-rule="evenodd" d="M12 23C18.0751 23 23 18.0751 23 12C23 5.92487 18.0751 1 12 1C5.92487 1 1 5.92487 1 12C1 18.0751 5.92487 23 12 23ZM10.0116 9.69854C9.86423 9.74849 9.74849 9.86423 9.69854 10.0116L7.82493 15.5411C7.69197 15.9334 8.06655 16.308 8.45895 16.1751L13.9884 14.3015C14.1358 14.2515 14.2515 14.1358 14.3015 13.9884L16.1751 8.45895C16.308 8.06655 15.9334 7.69197 15.5411 7.82493L10.0116 9.69854Z" fill="black" fill-opacity="0.88"/>
</svg>
