<svg width="192" height="192" viewBox="0 0 192 192" fill="none" xmlns="http://www.w3.org/2000/svg">
<g clip-path="url(#clip0_6836_293997)">
<rect width="192" height="192" rx="38.4" fill="#313133"/>
<mask id="mask0_6836_293997" style="mask-type:luminance" maskUnits="userSpaceOnUse" x="0" y="0" width="192" height="192">
<path d="M0 162V30C0 13.4314 13.4314 0 30 0H162C178.569 0 192 13.4314 192 30V162C192 178.569 178.569 192 162 192H30C13.4314 192 0 178.569 0 162Z" fill="white"/>
</mask>
<g mask="url(#mask0_6836_293997)">
<path d="M19.32 64.125V93.105C19.32 113.265 15.27 131.535 -6.15002 143.325L-5.34002 144.675C20.31 133.875 25.26 114.165 25.35 93.195V67.545C27.69 67.185 28.41 66.375 28.59 65.115L19.32 64.125Z" fill="white" fill-opacity="0.08"/>
<path d="M174.39 66.5234L170.34 70.3934H146.58L147.39 73.0934H170.34C166.65 80.9234 161.07 92.0834 157.56 97.7534C169.8 105.223 175.56 111.703 175.56 118.993C175.56 122.953 174.12 124.753 171.6 125.833C170.52 126.193 169.8 126.373 168.36 126.373H154.86V127.903C158.73 128.263 161.88 128.803 163.05 129.433C164.13 130.333 164.49 131.863 164.49 133.933C177.27 133.483 181.59 128.983 181.5 120.523C181.5 112.243 175.2 104.683 159.99 97.3934C165.12 91.9934 173.04 80.9234 177.27 74.8034C179.34 74.7134 180.78 74.5334 181.5 73.8134L174.39 66.5234Z" fill="white" fill-opacity="0.08"/>
<path d="M126.45 135.688V179.428C126.45 184.228 128.85 185.368 135.75 185.368H146.55C161.67 185.368 164.67 184.827 164.67 182.368C164.67 181.528 164.25 181.047 162.45 180.567L162.33 168.868H161.55C160.53 174.688 159.57 178.647 158.91 180.087C158.61 180.747 158.13 181.107 156.99 181.227C155.43 181.407 151.83 181.527 146.67 181.527H135.87C131.31 181.527 130.47 180.687 130.47 178.587V137.968C131.91 137.728 132.51 137.068 132.57 136.288L126.45 135.688Z" fill="white" fill-opacity="0.08"/>
<path d="M80.13 66.6289C80.85 80.9689 86.67 89.6089 113.07 91.4089C118.41 91.7689 121.47 91.5289 121.77 89.4289C121.83 88.5289 121.65 88.2289 119.25 87.4489L119.49 81.3889L118.77 81.3289C118.17 83.4889 117.21 85.7089 116.61 86.8489C116.19 87.6889 115.53 87.7489 113.19 87.6889C90.09 86.4289 85.17 79.0489 84.45 68.6689C85.53 68.4289 86.07 67.8889 86.19 67.2289L80.13 66.6289Z" fill="white" fill-opacity="0.08"/>
<path d="M131.97 -31.8008L130.35 -30.8108C135.84 2.66922 152.49 23.9992 178.59 35.0692C179.94 32.0992 182.46 30.4792 185.52 30.3892L185.79 29.4892C158.07 20.1292 138.36 -0.300781 131.97 -31.8008Z" fill="white" fill-opacity="0.08"/>
<path d="M49.0499 172.963L45.0899 176.563H30.2399C34.1099 170.083 39.5099 160.633 42.4799 154.873C44.4599 154.783 46.3499 154.333 47.1599 153.433L40.0499 147.043L36.7199 150.643H10.7099L11.5199 153.253H36.4499C33.4799 159.733 28.1699 169.363 24.3899 175.303C23.1299 175.663 21.7799 176.203 21.0599 176.743L26.7299 181.513L29.3399 179.263H45.3599C39.9599 198.883 27.2699 212.293 3.05994 219.313L3.68994 220.753C32.1299 214.633 44.9999 200.683 51.8399 180.163C53.8199 180.073 54.8099 179.713 55.5299 178.903L49.0499 172.963Z" fill="white" fill-opacity="0.08"/>
<path d="M52.98 12.8841L53.88 15.9441H132.18C133.62 15.9441 134.61 15.5841 134.88 14.5041C130.92 10.7241 124.35 5.41406 124.35 5.41406L118.68 12.8841H52.98Z" fill="white" fill-opacity="0.08"/>
<path d="M26.49 26.1303L25.77 26.0103C25.23 28.4703 24.63 30.8103 23.91 32.7903C23.61 33.6903 23.25 33.8103 22.41 33.2703C14.31 28.2903 13.47 8.01031 14.13 -7.64969C15.45 -7.82969 16.29 -8.24969 16.65 -8.72969L11.85 -12.9297L9.44996 -10.3497H-26.67L-26.13 -8.60969H10.05C9.98996 11.4903 10.65 31.4103 20.67 37.7703C23.07 39.5703 25.53 40.6503 26.79 39.2103C27.39 38.5503 27.09 37.4103 25.83 35.4903L26.49 26.1303Z" fill="white" fill-opacity="0.08"/>
<path d="M60.9581 141.944C56.5151 139.149 53.7203 133.968 53.7203 128.378V53.9565C53.7203 52.704 52.692 51.6758 51.4395 51.6758H49.62C42.6724 51.6758 36.9639 57.885 36.9639 65.4657V139.149C36.9639 146.729 42.6593 152.939 49.62 152.939H78.5186L60.9581 141.944ZM94.0091 51.6758H94.128V60.8513H94.0091V51.6758Z" fill="#F7E7CF"/>
<path d="M95.8286 52.8632C95.8286 52.0588 95.433 51.3204 94.7475 50.9252L77.5429 40.4968C74.2999 38.5063 70.4767 38.5063 67.2334 40.4968C64.0429 42.4877 62.1049 46.0865 62.1049 50.1339V123.646C62.1049 129.236 64.8997 134.417 69.3427 137.212L95.4461 152.94H95.7892V52.8632H95.8286ZM142.222 51.6767H106.665C105.413 51.6767 104.385 52.7049 104.385 53.9574V150.659C104.385 151.912 105.413 152.94 106.665 152.94H142.222C149.235 152.94 154.878 146.73 154.878 139.15V65.4665C154.878 57.8859 149.235 51.6767 142.222 51.6767Z" fill="url(#paint0_linear_6836_293997)"/>
</g>
</g>
<defs>
<linearGradient id="paint0_linear_6836_293997" x1="96" y1="95.9998" x2="62.1049" y2="95.9718" gradientUnits="userSpaceOnUse">
<stop stop-color="#F7E7CF"/>
<stop offset="1" stop-color="#FFF4E2"/>
</linearGradient>
<clipPath id="clip0_6836_293997">
<rect width="192" height="192" rx="38.4" fill="white"/>
</clipPath>
</defs>
</svg>
