<svg width="24" height="24" viewBox="0 0 24 24" fill="none" xmlns="http://www.w3.org/2000/svg">
<path fill-rule="evenodd" clip-rule="evenodd" d="M6 1.01562C4.34315 1.01562 3 2.35877 3 4.01562V20.08C3 22.3745 5.47097 23.8197 7.47078 22.6948L11.5097 20.4228C11.8142 20.2516 12.1858 20.2516 12.4903 20.4228L16.5292 22.6948C18.529 23.8196 21 22.3745 21 20.08V4.01562C21 2.35877 19.6569 1.01562 18 1.01562H6ZM5 4.01562C5 3.46334 5.44771 3.01562 6 3.01562H18C18.5523 3.01562 19 3.46334 19 4.01562V20.08C19 20.8449 18.1763 21.3266 17.5097 20.9516L13.4708 18.6797C12.5575 18.166 11.4425 18.166 10.5292 18.6797L6.49026 20.9516C5.82366 21.3266 5 20.8449 5 20.08V4.01562ZM13 7.99972C13 7.44743 12.5523 6.99972 12 6.99972C11.4477 6.99972 11 7.44743 11 7.99972V9.99973H9C8.44772 9.99973 8 10.4474 8 10.9997C8 11.552 8.44772 11.9997 9 11.9997H11V13.9997C11 14.552 11.4477 14.9997 12 14.9997C12.5523 14.9997 13 14.552 13 13.9997V11.9997H15C15.5523 11.9997 16 11.552 16 10.9997C16 10.4474 15.5523 9.99973 15 9.99973H13V7.99972Z" fill="black" fill-opacity="0.88"/>
</svg>
