<svg width="24" height="24" viewBox="0 0 24 24" fill="none" xmlns="http://www.w3.org/2000/svg">
<path fill-rule="evenodd" clip-rule="evenodd" d="M3 4.01562C3 2.35877 4.34315 1.01562 6 1.01562H18C19.6569 1.01562 21 2.35877 21 4.01562V20.08C21 22.3745 18.529 23.8196 16.5292 22.6948L12.4903 20.4228C12.1858 20.2516 11.8142 20.2516 11.5097 20.4228L7.47078 22.6948C5.47097 23.8197 3 22.3745 3 20.08V4.01562ZM13 7.99973C13 7.44744 12.5523 6.99973 12 6.99973C11.4477 6.99973 11 7.44744 11 7.99973V9.99973H9C8.44772 9.99973 8 10.4474 8 10.9997C8 11.552 8.44772 11.9997 9 11.9997H11V13.9997C11 14.552 11.4477 14.9997 12 14.9997C12.5523 14.9997 13 14.552 13 13.9997V11.9997H15C15.5523 11.9997 16 11.552 16 10.9997C16 10.4474 15.5523 9.99973 15 9.99973H13V7.99973Z" fill="black" fill-opacity="0.88"/>
</svg>
