<svg width="24" height="24" viewBox="0 0 24 24" fill="none" xmlns="http://www.w3.org/2000/svg">
<mask id="mask0_14_143308" style="mask-type:alpha" maskUnits="userSpaceOnUse" x="3" y="1" width="18" height="23">
<path fill-rule="evenodd" clip-rule="evenodd" d="M6 1.01562C4.34315 1.01562 3 2.35877 3 4.01562V20.08C3 22.3745 5.47097 23.8197 7.47078 22.6948L11.5097 20.4228C11.8142 20.2516 12.1858 20.2516 12.4903 20.4228L16.5292 22.6948C18.529 23.8196 21 22.3745 21 20.08V4.01562C21 2.35877 19.6569 1.01562 18 1.01562H6Z" fill="#FF6600"/>
</mask>
<g mask="url(#mask0_14_143308)">
<path fill-rule="evenodd" clip-rule="evenodd" d="M6 1.01562C4.34315 1.01562 3 2.35877 3 4.01562V20.08C3 22.3745 5.47097 23.8197 7.47078 22.6948L11.5097 20.4228C11.8142 20.2516 12.1858 20.2516 12.4903 20.4228L16.5292 22.6948C18.529 23.8196 21 22.3745 21 20.08V4.01562C21 2.35877 19.6569 1.01562 18 1.01562H6Z" fill="#FF6600"/>
<circle cx="7.5" cy="4.5" r="13.5" fill="#FF7732"/>
<circle cx="5" cy="4" r="10" fill="#FF935C"/>
<path d="M9 11H15M12 14V8" stroke="white" stroke-width="2" stroke-linecap="round"/>
</g>
</svg>
