<svg width="24" height="24" viewBox="0 0 24 24" fill="none" xmlns="http://www.w3.org/2000/svg">
<path d="M17.5 17.5C16.9477 17.5 16.5 17.9477 16.5 18.5C16.5 19.0523 16.9477 19.5 17.5 19.5H18.5C19.0523 19.5 19.5 19.0523 19.5 18.5C19.5 17.9477 19.0523 17.5 18.5 17.5H17.5Z" fill="black" fill-opacity="0.88"/>
<path fill-rule="evenodd" clip-rule="evenodd" d="M20 4.125V7H21C22.1046 7 23 7.89543 23 9V20C23 21.1046 22.1046 22 21 22H15C13.8954 22 13 21.1046 13 20H5C4.44772 20 4 19.5523 4 19C4 18.4477 4.44772 18 5 18H9.5V16H3.275C2.13986 16 1 15.1626 1 13.875V4.125C1 2.83745 2.13985 2 3.275 2H17.725C18.8602 2 20 2.83746 20 4.125ZM3.00005 4.12419C3.00008 4.12408 3.00043 4.12251 3.00194 4.11936C3.00501 4.11296 3.01396 4.09796 3.03506 4.07934C3.07853 4.04099 3.16042 4 3.275 4H17.725C17.8396 4 17.9215 4.04099 17.9649 4.07934C17.986 4.09796 17.995 4.11295 17.9981 4.11935C17.9996 4.1225 17.9999 4.12407 18 4.12419L18 7H15C13.8954 7 13 7.89543 13 9V14H3.275C3.16041 14 3.07852 13.959 3.03506 13.9207C3.01396 13.902 3.00501 13.8871 3.00195 13.8806C3.00044 13.8775 3.00008 13.8759 3.00005 13.8758L3.00005 4.12419ZM15 9H21V20H15V9ZM13 16V18H11.5V16H13Z" fill="black" fill-opacity="0.88"/>
</svg>
