<svg width="24" height="24" viewBox="0 0 24 24" fill="none" xmlns="http://www.w3.org/2000/svg">
<path fill-rule="evenodd" clip-rule="evenodd" d="M4.91888 2.75061C5.29842 2.27618 5.87305 2 6.48062 2H9C9.55228 2 10 2.44772 10 3C10 4.10457 10.8954 5 12 5C13.1046 5 14 4.10457 14 3C14 2.44772 14.4477 2 15 2H17.5194C18.1269 2 18.7016 2.27618 19.0811 2.75061L22.1212 6.55068C22.8379 7.44663 22.6556 8.76064 21.7219 9.42754L19.5 11.0146V19C19.5 20.6569 18.1568 22 16.5 22H7.49999C5.84314 22 4.49999 20.6569 4.49999 19L4.49999 11.0146L2.27808 9.42754C1.34443 8.76064 1.16206 7.44663 1.87882 6.55068L4.91888 2.75061ZM8.12602 4L6.48062 4L3.44056 7.80007L5.66247 9.38715C6.18806 9.76257 6.49999 10.3687 6.49999 11.0146V19C6.49999 19.5523 6.94771 20 7.49999 20H16.5C17.0523 20 17.5 19.5523 17.5 19V11.0146C17.5 10.3687 17.8119 9.76257 18.3375 9.38715L20.5594 7.80007L17.5194 4H15.874C15.4299 5.72523 13.8638 7 12 7C10.1362 7 8.57006 5.72523 8.12602 4Z" fill="black" fill-opacity="0.88"/>
</svg>
