<svg width="24" height="24" viewBox="0 0 24 24" fill="none" xmlns="http://www.w3.org/2000/svg">
<path fill-rule="evenodd" clip-rule="evenodd" d="M4 5C4 3.34315 5.34315 2 7 2H17C18.6569 2 20 3.34315 20 5V19.0536C20 21.3571 17.5116 22.8012 15.5116 21.6584L12.4961 19.9353C12.1887 19.7596 11.8113 19.7596 11.5039 19.9353L8.48842 21.6584C6.48845 22.8012 4 21.3571 4 19.0536V5ZM7 4C6.44772 4 6 4.44772 6 5V19.0536C6 19.8215 6.82948 20.3028 7.49614 19.9219L10.5116 18.1988C11.4339 17.6717 12.5661 17.6717 13.4884 18.1988L16.5039 19.9219C17.1705 20.3028 18 19.8215 18 19.0536V5C18 4.44772 17.5523 4 17 4H7Z" fill="black" fill-opacity="0.88"/>
</svg>
