<svg width="24" height="24" viewBox="0 0 24 24" fill="none" xmlns="http://www.w3.org/2000/svg">
<path d="M13 3C13 2.44772 12.5523 2 12 2C11.4477 2 11 2.44772 11 3V11C11 11.5523 11.4477 12 12 12C12.5523 12 13 11.5523 13 11V3Z" fill="black" fill-opacity="0.88"/>
<path d="M7.55626 5.34663C8.01521 5.03942 8.13822 4.41832 7.83101 3.95937C7.5238 3.50041 6.90269 3.3774 6.44374 3.68462C3.76629 5.47684 2 8.53199 2 12.0001C2 17.5229 6.47715 22.0001 12 22.0001C17.5228 22.0001 22 17.5229 22 12.0001C22 8.53199 20.2337 5.47684 17.5563 3.68462C17.0973 3.3774 16.4762 3.50041 16.169 3.95937C15.8618 4.41832 15.9848 5.03942 16.4437 5.34663C18.5902 6.78345 20 9.22733 20 12.0001C20 16.4184 16.4183 20.0001 12 20.0001C7.58172 20.0001 4 16.4184 4 12.0001C4 9.22733 5.40977 6.78345 7.55626 5.34663Z" fill="black" fill-opacity="0.88"/>
</svg>
