<svg width="24" height="24" viewBox="0 0 24 24" fill="none" xmlns="http://www.w3.org/2000/svg">
<path d="M16.7778 10.7778C17.2074 10.3482 17.2074 9.65176 16.7778 9.22218C16.3482 8.79261 15.6518 8.79261 15.2222 9.22218L11 13.4444L9.27782 11.7222C8.84824 11.2926 8.15176 11.2926 7.72218 11.7222C7.29261 12.1518 7.29261 12.8482 7.72218 13.2778L10.2222 15.7778C10.6518 16.2074 11.3482 16.2074 11.7778 15.7778L16.7778 10.7778Z" fill="black" fill-opacity="0.88"/>
<path fill-rule="evenodd" clip-rule="evenodd" d="M12 2C6.47715 2 2 6.47715 2 12C2 17.5228 6.47715 22 12 22C17.5228 22 22 17.5228 22 12C22 6.47715 17.5228 2 12 2ZM4 12C4 7.58172 7.58172 4 12 4C16.4183 4 20 7.58172 20 12C20 16.4183 16.4183 20 12 20C7.58172 20 4 16.4183 4 12Z" fill="black" fill-opacity="0.88"/>
</svg>
