<svg width="24" height="24" viewBox="0 0 24 24" fill="none" xmlns="http://www.w3.org/2000/svg">
<path d="M7.77772 6.22062C7.34814 5.79104 6.65166 5.79104 6.22208 6.22062C5.79251 6.6502 5.79251 7.34668 6.22208 7.77626L10.4443 11.9984L6.22208 16.2206C5.79251 16.6502 5.79251 17.3467 6.22208 17.7763C6.65166 18.2058 7.34814 18.2058 7.77772 17.7763L11.9999 13.5541L16.2221 17.7763C16.6517 18.2058 17.3481 18.2058 17.7777 17.7763C18.2073 17.3467 18.2073 16.6502 17.7777 16.2206L13.5555 11.9984L17.7777 7.77626C18.2073 7.34668 18.2073 6.6502 17.7777 6.22062C17.3481 5.79104 16.6517 5.79104 16.2221 6.22062L11.9999 10.4428L7.77772 6.22062Z" fill="black" fill-opacity="0.88"/>
</svg>
