<svg width="24" height="24" viewBox="0 0 24 24" fill="none" xmlns="http://www.w3.org/2000/svg">
<path fill-rule="evenodd" clip-rule="evenodd" d="M7 6V4.3125C7 3.18552 7.81233 2 9.125 2H18.875C20.1877 2 21 3.18552 21 4.3125V15.6875C21 16.8145 20.1877 18 18.875 18H17.0065C17.0043 18 17.0022 18 17 18V19.6875C17 20.8145 16.1877 22 14.875 22H5.125C3.81233 22 3 20.8145 3 19.6875V8.3125C3 7.18552 3.81233 6 5.125 6H7ZM9 4.3125C9 4.17944 9.0465 4.08452 9.08876 4.03521C9.10878 4.01186 9.12279 4.003 9.1294 4H18.8706C18.8772 4.003 18.8912 4.01186 18.9112 4.03521C18.9535 4.08452 19 4.17944 19 4.3125V15.6875C19 15.8206 18.9535 15.9155 18.9112 15.9648C18.8912 15.9881 18.8772 15.997 18.8706 16H17.0065C17.0043 16 17.0022 16 17 16V8.3125C17 7.18552 16.1877 6 14.875 6H9V4.3125ZM5 8.3125C5 8.17944 5.0465 8.08452 5.08876 8.03521C5.10878 8.01186 5.12279 8.003 5.1294 8H14.8706C14.8772 8.003 14.8912 8.01186 14.9112 8.03521C14.9535 8.08452 15 8.17944 15 8.3125V19.6875C15 19.8206 14.9535 19.9155 14.9112 19.9648C14.8912 19.9881 14.8772 19.997 14.8706 20H5.1294C5.12279 19.997 5.10877 19.9881 5.08876 19.9648C5.0465 19.9155 5 19.8206 5 19.6875V8.3125ZM5.1294 20C5.13176 20.001 5.13369 20.0015 5.13371 20.0013C5.13373 20.0012 5.13423 20.0015 5.13371 20.0013C5.13312 20.0011 5.13072 20.0002 5.1294 20Z" fill="black" fill-opacity="0.88"/>
</svg>
