<svg width="24" height="24" viewBox="0 0 24 24" fill="none" xmlns="http://www.w3.org/2000/svg">
<path d="M9 7C8.44772 7 8 7.44772 8 8C8 8.55228 8.44772 9 9 9H15C15.5523 9 16 8.55228 16 8C16 7.44772 15.5523 7 15 7H9Z" fill="black" fill-opacity="0.88"/>
<path fill-rule="evenodd" clip-rule="evenodd" d="M3 5C3 3.34315 4.34315 2 6 2H19C20.1046 2 21 2.89543 21 4V18H6C5.44772 18 5 18.4477 5 19C5 19.5523 5.44772 20 6 20H20C20.5523 20 21 20.4477 21 21C21 21.5523 20.5523 22 20 22H6C4.34315 22 3 20.6569 3 19V5ZM19 4V16H6C5.64936 16 5.31278 16.0602 5 16.1707V5C5 4.44772 5.44772 4 6 4H19Z" fill="black" fill-opacity="0.88"/>
</svg>
