<svg width="24" height="24" viewBox="0 0 24 24" fill="none" xmlns="http://www.w3.org/2000/svg">
<path fill-rule="evenodd" clip-rule="evenodd" d="M2.23396 4.66465C1.80098 3.93384 2.32425 3 3.18232 3H18C20.2091 3 22 4.79086 22 7C22 9.20914 20.2091 11 18 11H3.18232C2.32427 11 1.80097 10.0662 2.23396 9.33535C2.3572 9.12735 2.59076 8.71197 2.79066 8.24111C3.00127 7.74499 3.125 7.30008 3.125 7C3.125 6.69992 3.00127 6.25501 2.79066 5.75889C2.59076 5.28803 2.3572 4.87265 2.23396 4.66465ZM4.64121 5C4.87556 5.55595 5.125 6.29464 5.125 7C5.125 7.70536 4.87556 8.44405 4.64121 9H18C19.1046 9 20 8.10457 20 7C20 5.89543 19.1046 5 18 5H4.64121Z" fill="black" fill-opacity="0.88"/>
<path d="M21.766 14.6646C22.199 13.9338 21.6757 13 20.8177 13H6C3.79086 13 2 14.7909 2 17C2 19.2091 3.79086 21 6 21H6.9375C7.48979 21 7.9375 20.5523 7.9375 20C7.9375 19.4477 7.48979 19 6.9375 19H6C4.89543 19 4 18.1046 4 17C4 15.8954 4.89543 15 6 15H19.3588C19.1244 15.556 18.875 16.2946 18.875 17C18.875 17.7054 19.1244 18.444 19.3588 19H17C16.4477 19 16 19.4477 16 20C16 20.5523 16.4477 21 17 21H20.8177C21.6757 21 22.199 20.0662 21.766 19.3354C21.6428 19.1273 21.4092 18.712 21.2093 18.2411C20.9987 17.745 20.875 17.3001 20.875 17C20.875 16.6999 20.9987 16.255 21.2093 15.7589C21.4092 15.288 21.6428 14.8727 21.766 14.6646Z" fill="black" fill-opacity="0.88"/>
<path d="M15.2071 19.2071C15.5976 18.8166 15.5976 18.1834 15.2071 17.7929C14.8166 17.4024 14.1834 17.4024 13.7929 17.7929L11.5 20.0858L10.7071 19.2929C10.3166 18.9024 9.68342 18.9024 9.29289 19.2929C8.90237 19.6834 8.90237 20.3166 9.29289 20.7071L10.7929 22.2071C11.1834 22.5976 11.8166 22.5976 12.2071 22.2071L15.2071 19.2071Z" fill="black" fill-opacity="0.88"/>
</svg>
