<svg width="24" height="24" viewBox="0 0 24 24" fill="none" xmlns="http://www.w3.org/2000/svg">
<path d="M12 8C11.1397 8 10.5 8.58361 10.5 9.5C10.5 10.0523 10.0523 10.5 9.5 10.5C8.94772 10.5 8.5 10.0523 8.5 9.5C8.5 7.41639 10.0989 6 12 6C13.933 6 15.5 7.567 15.5 9.5C15.5 11.0446 14.4642 11.8082 13.8235 12.2567C13.7708 12.2936 13.7216 12.3279 13.6754 12.36C13.4029 12.5496 13.2365 12.6655 13.1092 12.797C13.0027 12.907 13 12.9515 13 13V13.4996C13 14.0519 12.5523 14.5 12 14.5C11.4477 14.5 11 14.0523 11 13.5V13.0004C11 12.2989 11.3098 11.7805 11.672 11.4061C11.9481 11.1209 12.3012 10.8774 12.5608 10.6984C12.6019 10.6701 12.6409 10.6432 12.6765 10.6183C13.2858 10.1918 13.5 9.95541 13.5 9.5C13.5 8.67157 12.8284 8 12 8Z" fill="black" fill-opacity="0.88"/>
<path d="M12 18C12.6904 18 13.25 17.4404 13.25 16.75C13.25 16.0596 12.6904 15.5 12 15.5C11.3096 15.5 10.75 16.0596 10.75 16.75C10.75 17.4404 11.3096 18 12 18Z" fill="black" fill-opacity="0.88"/>
<path fill-rule="evenodd" clip-rule="evenodd" d="M2 12C2 6.47715 6.47715 2 12 2C17.5228 2 22 6.47715 22 12C22 17.5228 17.5228 22 12 22C6.47715 22 2 17.5228 2 12ZM12 4C7.58172 4 4 7.58172 4 12C4 16.4183 7.58172 20 12 20C16.4183 20 20 16.4183 20 12C20 7.58172 16.4183 4 12 4Z" fill="black" fill-opacity="0.88"/>
</svg>
