<svg width="24" height="24" viewBox="0 0 24 24" fill="none" xmlns="http://www.w3.org/2000/svg">
<path fill-rule="evenodd" clip-rule="evenodd" d="M20.9702 3.24229L20.0001 2.99976C20.9702 3.24229 20.9703 3.24187 20.9702 3.24229L20.9692 3.24616L20.9679 3.2515L20.964 3.26655C20.9608 3.2785 20.9566 3.29425 20.9512 3.31363C20.9404 3.35237 20.9249 3.40564 20.9044 3.47194C20.8632 3.60446 20.8014 3.78951 20.7147 4.01499C20.5415 4.46514 20.2674 5.08127 19.8576 5.76425C19.1982 6.8632 18.1766 8.15279 16.6468 9.19159C16.8305 9.29699 17.0622 9.4128 17.3975 9.58045L18.3142 10.0388L17.908 10.9188C16.3467 14.3017 13.2723 15.0116 10.796 15.5834C10.506 15.6504 10.2243 15.7154 9.95408 15.7827C8.58721 16.1228 7.47973 16.5007 6.64772 17.2288C5.85572 17.922 5.20129 19.0374 4.99511 21.0993C4.94016 21.6488 4.45011 22.0497 3.90057 21.9948C3.35103 21.9398 2.95008 21.4498 3.00504 20.9003C3.52256 15.725 5.58847 11.0385 7.71921 8.37506C9.35287 6.33298 11.0839 4.8576 13.0916 3.8325C15.0942 2.81003 17.3185 2.26293 19.9006 2.00472L21.315 1.86328L20.9702 3.24229ZM6.41642 14.9582C7.39377 14.4038 8.46567 14.0921 9.47107 13.8419C9.76709 13.7682 10.0578 13.6988 10.3425 13.6309C12.5738 13.0984 14.4375 12.6537 15.6254 10.9109C15.4997 10.8379 15.3788 10.7623 15.2635 10.6818C14.8484 10.3921 14.5188 10.0537 14.1822 9.57513C14.0146 9.33696 13.9592 9.03758 14.0304 8.75522C14.1016 8.47286 14.2924 8.23556 14.5529 8.10533C16.3382 7.21265 17.4612 5.87089 18.1426 4.73526C18.2506 4.55519 18.3471 4.38097 18.433 4.21546C16.7525 4.4988 15.3054 4.94782 14.0011 5.61376C12.2897 6.48757 10.7708 7.76219 9.28094 9.62445C8.26387 10.8958 7.22761 12.7524 6.41642 14.9582ZM19.0308 2.75383C19.0308 2.75379 19.0308 2.75378 19.0308 2.75383V2.75383Z" fill="black" fill-opacity="0.88"/>
</svg>
