<svg width="24" height="24" viewBox="0 0 24 24" fill="none" xmlns="http://www.w3.org/2000/svg">
<path d="M3 4C3 3.44772 3.44772 3 4 3H8C8.55228 3 9 3.44772 9 4C9 4.55228 8.55228 5 8 5H5V7C5 7.55228 4.55228 8 4 8C3.44772 8 3 7.55228 3 7V4Z" fill="black" fill-opacity="0.88"/>
<path d="M15 4C15 3.44772 15.4477 3 16 3H20C20.5523 3 21 3.44772 21 4V7C21 7.55228 20.5523 8 20 8C19.4477 8 19 7.55228 19 7V5H16C15.4477 5 15 4.55228 15 4Z" fill="black" fill-opacity="0.88"/>
<path d="M3 12C3 11.4477 3.44772 11 4 11H20C20.5523 11 21 11.4477 21 12C21 12.5523 20.5523 13 20 13H4C3.44772 13 3 12.5523 3 12Z" fill="black" fill-opacity="0.88"/>
<path d="M4 16C4.55228 16 5 16.4477 5 17V19H8C8.55228 19 9 19.4477 9 20C9 20.5523 8.55228 21 8 21H4C3.44772 21 3 20.5523 3 20V17C3 16.4477 3.44772 16 4 16Z" fill="black" fill-opacity="0.88"/>
<path d="M20 16C20.5523 16 21 16.4477 21 17V20C21 20.5523 20.5523 21 20 21H16C15.4477 21 15 20.5523 15 20C15 19.4477 15.4477 19 16 19H19V17C19 16.4477 19.4477 16 20 16Z" fill="black" fill-opacity="0.88"/>
</svg>
