<svg width="24" height="24" viewBox="0 0 24 24" fill="none" xmlns="http://www.w3.org/2000/svg">
<path fill-rule="evenodd" clip-rule="evenodd" d="M12 7.5C9.23858 7.5 7 9.73858 7 12.5C7 15.2614 9.23858 17.5 12 17.5C14.7614 17.5 17 15.2614 17 12.5C17 9.73858 14.7614 7.5 12 7.5ZM9 12.5C9 10.8431 10.3431 9.5 12 9.5C13.6569 9.5 15 10.8431 15 12.5C15 14.1569 13.6569 15.5 12 15.5C10.3431 15.5 9 14.1569 9 12.5Z" fill="black" fill-opacity="0.88"/>
<path fill-rule="evenodd" clip-rule="evenodd" d="M9.98062 2.5C9.37306 2.5 8.79843 2.77618 8.41889 3.25061L7.01938 5H5C3.34315 5 2 6.34315 2 8V18C2 19.6569 3.34315 21 5 21H19C20.6569 21 22 19.6569 22 18V8C22 6.34315 20.6569 5 19 5H16.9806L15.5811 3.25061C15.2016 2.77618 14.6269 2.5 14.0194 2.5H9.98062ZM9.98062 4.5H14.0194L15.569 6.43704C15.8537 6.79287 16.2846 7 16.7403 7H19C19.5523 7 20 7.44772 20 8V18C20 18.5523 19.5523 19 19 19H5C4.44772 19 4 18.5523 4 18V8C4 7.44772 4.44772 7 5 7H7.25969C7.71536 7 8.14633 6.79287 8.43099 6.43704L9.98062 4.5Z" fill="black" fill-opacity="0.88"/>
</svg>
