<svg width="24" height="24" viewBox="0 0 24 24" fill="none" xmlns="http://www.w3.org/2000/svg">
<path d="M15.2929 4.29289C15.6834 3.90237 16.3166 3.90237 16.7071 4.29289L20.7071 8.29289C20.9931 8.57889 21.0787 9.00901 20.9239 9.38268C20.7691 9.75636 20.4045 10 20 10H4.00003C3.44774 10 3.00003 9.55228 3.00003 9C3.00003 8.44772 3.44774 8 4.00003 8H17.5858L15.2929 5.70711C14.9024 5.31658 14.9024 4.68342 15.2929 4.29289Z" fill="black" fill-opacity="0.88"/>
<path d="M3.07615 14.6173C3.23093 14.2436 3.59557 14 4.00003 14H20C20.5523 14 21 14.4477 21 15C21 15.5523 20.5523 16 20 16H6.41424L8.70714 18.2929C9.09766 18.6834 9.09766 19.3166 8.70714 19.7071C8.31661 20.0976 7.68345 20.0976 7.29292 19.7071L3.29292 15.7071C3.00692 15.4211 2.92137 14.991 3.07615 14.6173Z" fill="black" fill-opacity="0.88"/>
</svg>
