<svg width="24" height="24" viewBox="0 0 24 24" fill="none" xmlns="http://www.w3.org/2000/svg">
<path fill-rule="evenodd" clip-rule="evenodd" d="M22 12C22 17.5229 17.5229 22 12 22C6.47715 22 2 17.5229 2 12C2 6.47715 6.47715 2 12 2C17.5229 2 22 6.47715 22 12ZM8.00031 6.99975C7.44803 6.99975 7.00031 7.44747 7.00031 7.99975C7.00031 8.55204 7.44803 8.99975 8.00031 8.99975H16.0003C16.5526 8.99975 17.0003 8.55204 17.0003 7.99975C17.0003 7.44747 16.5526 6.99975 16.0003 6.99975H8.00031ZM8.00007 10.9998C7.44778 10.9998 7.00007 11.4475 7.00007 11.9998C7.00007 12.552 7.44778 12.9998 8.00007 12.9998H16.0001C16.5524 12.9998 17.0001 12.552 17.0001 11.9998C17.0001 11.4475 16.5524 10.9998 16.0001 10.9998H8.00007ZM7.00007 15.9958C7.00007 15.4436 7.44778 14.9958 8.00007 14.9958H16.0001C16.5524 14.9958 17.0001 15.4436 17.0001 15.9958C17.0001 16.5481 16.5524 16.9958 16.0001 16.9958H8.00007C7.44778 16.9958 7.00007 16.5481 7.00007 15.9958Z" fill="black" fill-opacity="0.88"/>
</svg>
