<svg width="24" height="24" viewBox="0 0 24 24" fill="none" xmlns="http://www.w3.org/2000/svg">
<path fill-rule="evenodd" clip-rule="evenodd" d="M11 1.5C5.75329 1.5 1.5 5.75329 1.5 11C1.5 16.2467 5.75329 20.5 11 20.5C13.2631 20.5 15.3415 19.7086 16.9733 18.3875L20.7929 22.2071C21.1834 22.5976 21.8166 22.5976 22.2071 22.2071C22.5976 21.8166 22.5976 21.1834 22.2071 20.7929L18.3875 16.9733C19.7086 15.3415 20.5 13.2631 20.5 11C20.5 5.75329 16.2467 1.5 11 1.5ZM3.5 11C3.5 6.85786 6.85786 3.5 11 3.5C15.1421 3.5 18.5 6.85786 18.5 11C18.5 15.1421 15.1421 18.5 11 18.5C6.85786 18.5 3.5 15.1421 3.5 11Z" fill="black" fill-opacity="0.88"/>
</svg>
