<svg width="24" height="24" viewBox="0 0 24 24" fill="none" xmlns="http://www.w3.org/2000/svg">
<path fill-rule="evenodd" clip-rule="evenodd" d="M9.40787 3.46276C10.5651 1.47596 13.4353 1.47595 14.5925 3.46276L15.9768 5.83946C16.1181 6.08206 16.3549 6.25409 16.6293 6.3135L19.3175 6.89561C21.5646 7.38223 22.4516 10.112 20.9196 11.8265L19.087 13.8775C18.8999 14.0869 18.8095 14.3652 18.8378 14.6445L19.1149 17.381C19.3465 19.6685 17.0244 21.3557 14.9204 20.4285L12.4035 19.3194C12.1465 19.2062 11.8539 19.2062 11.597 19.3194L9.08004 20.4285C6.97603 21.3556 4.65394 19.6686 4.88555 17.381L5.16262 14.6445C5.1909 14.3652 5.10046 14.0869 4.9134 13.8775L3.0808 11.8265C1.54883 10.112 2.43579 7.38223 4.68295 6.89561L7.37109 6.31351C7.64549 6.25409 7.88226 6.08206 8.02357 5.83946L9.40787 3.46276ZM12.8643 4.46936C12.4786 3.80709 11.5218 3.80709 11.1361 4.46936L9.75179 6.84606C9.32788 7.57386 8.61755 8.08994 7.79438 8.2682L5.10623 8.85031C4.35718 9.01251 4.06152 9.92244 4.57218 10.4939L6.40478 12.5449C6.96597 13.173 7.23729 14.008 7.15245 14.846L6.87538 17.5825C6.79818 18.345 7.57221 18.9074 8.27355 18.5983L10.7905 17.4892C11.5612 17.1495 12.4392 17.1495 13.21 17.4892L15.7269 18.5983C16.4282 18.9074 17.2022 18.345 17.125 17.5825L16.848 14.846C16.7631 14.008 17.0344 13.173 17.5956 12.5449L19.4282 10.4939C19.9389 9.92244 19.6432 9.01251 18.8942 8.85031L16.206 8.2682C15.3829 8.08994 14.6725 7.57386 14.2486 6.84606L12.8643 4.46936Z" fill="black" fill-opacity="0.88"/>
</svg>
