<svg width="24" height="24" viewBox="0 0 24 24" fill="none" xmlns="http://www.w3.org/2000/svg">
<path d="M10.2715 2.96606C11.043 1.64152 12.9565 1.64152 13.728 2.96606L15.4356 5.8978C15.7182 6.383 16.1917 6.72706 16.7405 6.84589L20.0564 7.56395C21.5545 7.88836 22.1459 9.70821 21.1245 10.8512L18.864 13.3812C18.4898 13.7999 18.309 14.3566 18.3655 14.9152L18.7073 18.2908C18.8617 19.8158 17.3136 20.9405 15.911 20.3224L12.8063 18.9543C12.2924 18.7279 11.7071 18.7279 11.1933 18.9543L8.08857 20.3224C6.68589 20.9405 5.13784 19.8158 5.29224 18.2908L5.63401 14.9152C5.69058 14.3566 5.50969 13.7999 5.13557 13.3812L2.87499 10.8512C1.85368 9.70821 2.44499 7.88836 3.94309 7.56395L7.25902 6.84589C7.8078 6.72706 8.28135 6.383 8.56396 5.8978L10.2715 2.96606Z" fill="black" fill-opacity="0.88"/>
</svg>
