<svg width="24" height="24" viewBox="0 0 24 24" fill="none" xmlns="http://www.w3.org/2000/svg">
<path d="M17 3C14.7909 3 13 4.79086 13 7C13 9.20914 14.7909 11 17 11C19.2091 11 21 9.20914 21 7C21 4.79086 19.2091 3 17 3Z" fill="black" fill-opacity="0.88"/>
<path d="M5 13C3.89543 13 3 13.8954 3 15V19C3 20.1046 3.89543 21 5 21H9C10.1046 21 11 20.1046 11 19V15C11 13.8954 10.1046 13 9 13H5Z" fill="black" fill-opacity="0.88"/>
<path d="M13 15C13 13.8954 13.8954 13 15 13H19C20.1046 13 21 13.8954 21 15V19C21 20.1046 20.1046 21 19 21H15C13.8954 21 13 20.1046 13 19V15Z" fill="black" fill-opacity="0.88"/>
<path d="M5 3C3.89543 3 3 3.89543 3 5V9C3 10.1046 3.89543 11 5 11H9C10.1046 11 11 10.1046 11 9V5C11 3.89543 10.1046 3 9 3H5Z" fill="black" fill-opacity="0.88"/>
</svg>
