<svg width="24" height="24" viewBox="0 0 24 24" fill="none" xmlns="http://www.w3.org/2000/svg">
<path d="M21.7896 1.30445C21.565 0.799913 20.9739 0.573007 20.4694 0.797641C19.9648 1.02228 19.7379 1.61339 19.9625 2.11792C20.7328 3.84793 21.0827 5.73566 20.9836 7.62679C20.8844 9.51792 20.3392 11.3587 19.3923 12.9988C19.1162 13.4771 19.28 14.0886 19.7583 14.3648C20.2366 14.6409 20.8482 14.4771 21.1244 13.9988C22.229 12.0854 22.8652 9.93778 22.9808 7.73147C23.0964 5.52515 22.6883 3.32279 21.7896 1.30445Z" fill="black" fill-opacity="0.88"/>
<path fill-rule="evenodd" clip-rule="evenodd" d="M9 0.998784C5.68629 0.998784 3 3.68508 3 6.99878C3 10.3125 5.68629 12.9988 9 12.9988C12.3137 12.9988 15 10.3125 15 6.99878C15 3.68508 12.3137 0.998784 9 0.998784ZM5 6.99878C5 4.78965 6.79086 2.99878 9 2.99878C11.2091 2.99878 13 4.78965 13 6.99878C13 9.20792 11.2091 10.9988 9 10.9988C6.79086 10.9988 5 9.20792 5 6.99878Z" fill="black" fill-opacity="0.88"/>
<path d="M3 21.9988C3 18.6851 5.68629 15.9988 9 15.9988C12.3137 15.9988 15 18.6851 15 21.9988C15 22.5511 15.4477 22.9988 16 22.9988C16.5523 22.9988 17 22.5511 17 21.9988C17 17.5805 13.4183 13.9988 9 13.9988C4.58172 13.9988 1 17.5805 1 21.9988C1 22.5511 1.44772 22.9988 2 22.9988C2.55228 22.9988 3 22.5511 3 21.9988Z" fill="black" fill-opacity="0.88"/>
<path d="M16.8152 2.42459C17.3197 2.19996 17.9108 2.42687 18.1355 2.9314C18.7773 4.37307 19.0689 5.94619 18.9863 7.52213C18.9037 9.09807 18.4493 10.6321 17.6603 11.9988C17.3841 12.4771 16.7725 12.6409 16.2942 12.3648C15.8159 12.0887 15.6521 11.4771 15.9282 10.9988C16.5595 9.90543 16.923 8.67821 16.989 7.41746C17.0551 6.1567 16.8219 4.89821 16.3084 3.74488C16.0837 3.24034 16.3106 2.64923 16.8152 2.42459Z" fill="black" fill-opacity="0.88"/>
</svg>
