<svg width="24" height="24" viewBox="0 0 24 24" fill="none" xmlns="http://www.w3.org/2000/svg">
<path fill-rule="evenodd" clip-rule="evenodd" d="M7 4C7 2.89543 7.89543 2 9 2H15C16.1046 2 17 2.89543 17 4H18C19.6569 4 21 5.34315 21 7V13C21 13.5523 20.5523 14 20 14C19.4477 14 19 13.5523 19 13V7C19 6.44772 18.5523 6 18 6H17C17 7.10457 16.1046 8 15 8H9C7.89543 8 7 7.10457 7 6H6C5.44772 6 5 6.44772 5 7V19C5 19.5523 5.44772 20 6 20H10C10.5523 20 11 20.4477 11 21C11 21.5523 10.5523 22 10 22H6C4.34315 22 3 20.6569 3 19V7C3 5.34315 4.34315 4 6 4H7ZM15 4V6H9V4H15Z" fill="black" fill-opacity="0.88"/>
<path d="M20.7071 17.7071C21.0976 17.3166 21.0976 16.6834 20.7071 16.2929C20.3166 15.9024 19.6834 15.9024 19.2929 16.2929L16 19.5858L14.7071 18.2929C14.3166 17.9024 13.6834 17.9024 13.2929 18.2929C12.9024 18.6834 12.9024 19.3166 13.2929 19.7071L15.2929 21.7071C15.6834 22.0976 16.3166 22.0976 16.7071 21.7071L20.7071 17.7071Z" fill="black" fill-opacity="0.88"/>
</svg>
