<svg width="24" height="24" viewBox="0 0 24 24" fill="none" xmlns="http://www.w3.org/2000/svg">
<path d="M8 5C8 4.44772 8.44772 4 9 4H18C18.5523 4 19 4.44772 19 5C19 5.55228 18.5523 6 18 6H9C8.44772 6 8 5.55228 8 5Z" fill="black" fill-opacity="0.88"/>
<path d="M5 19C5 18.4477 5.44772 18 6 18H15C15.5523 18 16 18.4477 16 19C16 19.5523 15.5523 20 15 20H6C5.44772 20 5 19.5523 5 19Z" fill="black" fill-opacity="0.88"/>
<path d="M4 11C3.44772 11 3 11.4477 3 12C3 12.5523 3.44772 13 4 13H20C20.5523 13 21 12.5523 21 12C21 11.4477 20.5523 11 20 11H4Z" fill="black" fill-opacity="0.88"/>
</svg>
