<svg width="24" height="24" viewBox="0 0 24 24" fill="none" xmlns="http://www.w3.org/2000/svg">
<path fill-rule="evenodd" clip-rule="evenodd" d="M11 2C9.89543 2 9 2.89543 9 4V7H4C2.89543 7 2 7.89543 2 9V12C2 13.0109 2.75002 13.8466 3.72395 13.9811L2.34049 19.5149C2.02492 20.7772 2.97963 22 4.28078 22H19.7192C21.0204 22 21.9751 20.7772 21.6595 19.5149L20.2761 13.9811C21.25 13.8466 22 13.0109 22 12V9C22 7.89543 21.1046 7 20 7H15V4C15 2.89543 14.1046 2 13 2H11ZM16 20V17C16 16.4477 15.5523 16 15 16C14.4477 16 14 16.4477 14 17V20H10V17C10 16.4477 9.55228 16 9 16C8.44772 16 8 16.4477 8 17V20H4.28078L5.78078 14H18.2192L19.7192 20H16ZM20 12V9H14.5C13.6716 9 13 8.32843 13 7.5V4H11V7.5C11 8.32843 10.3284 9 9.5 9H4V12H20Z" fill="black" fill-opacity="0.88"/>
</svg>
