<svg width="24" height="24" viewBox="0 0 24 24" fill="none" xmlns="http://www.w3.org/2000/svg">
<path fill-rule="evenodd" clip-rule="evenodd" d="M22 12C22 17.5229 17.5229 22 12 22C6.47715 22 2 17.5229 2 12C2 6.47715 6.47715 2 12 2C17.5229 2 22 6.47715 22 12ZM15.6062 8.39381C16.0357 8.82338 16.0357 9.51987 15.6062 9.94944L13.5556 12L15.6063 14.0507C16.0359 14.4802 16.0359 15.1767 15.6063 15.6063C15.1767 16.0359 14.4802 16.0359 14.0507 15.6063L12 13.5556L9.94932 15.6063C9.51974 16.0359 8.82326 16.0359 8.39369 15.6063C7.96411 15.1767 7.96411 14.4802 8.39369 14.0507L10.4444 12L8.39381 9.94944C7.96423 9.51987 7.96423 8.82338 8.39381 8.39381C8.82338 7.96423 9.51987 7.96423 9.94944 8.39381L12 10.4444L14.0505 8.39381C14.4801 7.96423 15.1766 7.96423 15.6062 8.39381Z" fill="black" fill-opacity="0.88"/>
</svg>
