<svg width="24" height="24" viewBox="0 0 24 24" fill="none" xmlns="http://www.w3.org/2000/svg">
<path d="M15.6062 8.39381C16.0358 8.82339 16.0358 9.51987 15.6062 9.94945L13.5556 12L15.6063 14.0507C16.0359 14.4802 16.0359 15.1767 15.6063 15.6063C15.1767 16.0359 14.4802 16.0359 14.0507 15.6063L12 13.5556L9.94933 15.6063C9.51975 16.0359 8.82327 16.0359 8.39369 15.6063C7.96411 15.1767 7.96411 14.4802 8.39369 14.0507L10.4444 12L8.39381 9.94945C7.96424 9.51987 7.96424 8.82339 8.39381 8.39381C8.82339 7.96424 9.51987 7.96424 9.94945 8.39381L12 10.4444L14.0505 8.39381C14.4801 7.96424 15.1766 7.96424 15.6062 8.39381Z" fill="black" fill-opacity="0.88"/>
<path fill-rule="evenodd" clip-rule="evenodd" d="M2 12C2 6.47715 6.47715 2 12 2C17.5228 2 22 6.47715 22 12C22 17.5228 17.5228 22 12 22C6.47715 22 2 17.5228 2 12ZM12 4C7.58172 4 4 7.58172 4 12C4 16.4183 7.58172 20 12 20C16.4183 20 20 16.4183 20 12C20 7.58172 16.4183 4 12 4Z" fill="black" fill-opacity="0.88"/>
</svg>
