<svg width="24" height="24" viewBox="0 0 24 24" fill="none" xmlns="http://www.w3.org/2000/svg">
<path fill-rule="evenodd" clip-rule="evenodd" d="M2 6C2 4.34315 3.34315 3 5 3H19C20.6569 3 22 4.34315 22 6V16C22 17.1046 21.1046 18 20 18H4C2.89543 18 2 17.1046 2 16V6ZM5 5C4.44772 5 4 5.44772 4 6V16H20V6C20 5.44772 19.5523 5 19 5H15C15 5.55228 14.5523 6 14 6H10C9.44771 6 9 5.55228 9 5H5Z" fill="black" fill-opacity="0.88"/>
<path d="M2 19C1.44772 19 1 19.4477 1 20C1 20.5523 1.44772 21 2 21H22C22.5523 21 23 20.5523 23 20C23 19.4477 22.5523 19 22 19H2Z" fill="black" fill-opacity="0.88"/>
</svg>
