<svg width="24" height="24" viewBox="0 0 24 24" fill="none" xmlns="http://www.w3.org/2000/svg">
<path fill-rule="evenodd" clip-rule="evenodd" d="M12 1C8.68629 1 6 3.68629 6 7V8C4.34315 8 3 9.34315 3 11V19C3 20.6569 4.34315 22 6 22H18C19.6569 22 21 20.6569 21 19V11C21 9.34315 19.6569 8 18 8V7C18 3.68629 15.3137 1 12 1ZM16 8V7C16 4.79086 14.2091 3 12 3C9.79086 3 8 4.79086 8 7V8H16ZM13 15.7324C13.5978 15.3866 14 14.7403 14 14C14 12.8954 13.1046 12 12 12C10.8954 12 10 12.8954 10 14C10 14.7403 10.4022 15.3866 11 15.7324V17C11 17.5523 11.4477 18 12 18C12.5523 18 13 17.5523 13 17V15.7324Z" fill="black" fill-opacity="0.88"/>
</svg>
