<svg width="24" height="24" viewBox="0 0 24 24" fill="none" xmlns="http://www.w3.org/2000/svg">
<path fill-rule="evenodd" clip-rule="evenodd" d="M6 2C4.89543 2 4 2.89543 4 4V20C4 21.1046 4.89543 22 6 22H18C19.1046 22 20 21.1046 20 20V4C20 2.89543 19.1046 2 18 2H6ZM9 8.5C8.44772 8.5 8 8.94772 8 9.5C8 10.0523 8.44772 10.5 9 10.5H15C15.5523 10.5 16 10.0523 16 9.5C16 8.94772 15.5523 8.5 15 8.5H9ZM9 13.5C8.44772 13.5 8 13.9477 8 14.5C8 15.0523 8.44772 15.5 9 15.5H14C14.5523 15.5 15 15.0523 15 14.5C15 13.9477 14.5523 13.5 14 13.5H9Z" fill="black" fill-opacity="0.88"/>
</svg>
