<svg width="24" height="24" viewBox="0 0 24 24" fill="none" xmlns="http://www.w3.org/2000/svg">
<path fill-rule="evenodd" clip-rule="evenodd" d="M4.72099 7.84182C3.18832 5.87124 4.59261 3 7.08905 3H16.9105C19.4069 3 20.8112 5.87125 19.2786 7.84182L14.9998 13.3431V19.882C14.9998 21.3687 13.4351 22.3357 12.1053 21.6708L10.1053 20.6708C9.42778 20.332 8.99977 19.6395 8.99977 18.882V13.3431L4.72099 7.84182ZM7.08905 5C6.2569 5 5.78881 5.95708 6.2997 6.61394L10.5785 12.1152C10.8515 12.4663 10.9998 12.8984 10.9998 13.3431V18.882L12.9998 19.882V13.3431C12.9998 12.8984 13.148 12.4663 13.4211 12.1152L17.6998 6.61394C18.2107 5.95708 17.7426 5 16.9105 5H7.08905Z" fill="black" fill-opacity="0.88"/>
</svg>
