<svg width="24" height="24" viewBox="0 0 24 24" fill="none" xmlns="http://www.w3.org/2000/svg">
<path fill-rule="evenodd" clip-rule="evenodd" d="M20.9605 11.1512C20.9866 11.4306 21 11.7138 21 12C21 16.9706 16.9706 21 12 21C10.0561 21 8.25615 20.3837 6.78486 19.3359C5.70031 19.5219 4.68046 19.5629 3.81544 19.3997C2.93678 19.2338 2.08444 18.8265 1.60775 18.0008C1.13105 17.1752 1.20445 16.2334 1.50018 15.3895C1.79125 14.5589 2.33647 13.6964 3.03965 12.8504C3.01341 12.5704 3 12.2868 3 12C3 7.02944 7.02944 3 12 3C13.9447 3 15.7454 3.61682 17.2171 4.66549C18.3009 4.47969 19.3201 4.43887 20.1847 4.60202C21.0633 4.76783 21.9157 5.17518 22.3924 6.00084C22.869 6.8265 22.7957 7.76832 22.4999 8.61217C22.2089 9.44271 21.6637 10.3052 20.9605 11.1512ZM18.8912 13.2359C18.3075 16.5124 15.4443 19 12 19C11.1658 19 10.3657 18.8541 9.62385 18.5864C11.1766 18.0503 12.8404 17.2891 14.5001 16.331C16.1596 15.3728 17.6507 14.3125 18.8912 13.2359ZM18.8438 10.5227C17.5656 11.8712 15.7208 13.3168 13.5001 14.5989C11.2803 15.8805 9.10699 16.7551 7.30059 17.1881C5.88753 15.9073 5 14.0573 5 12C5 8.13401 8.13401 5 12 5C15.3592 5 18.1657 7.36618 18.8438 10.5227ZM19.1254 6.50127C19.3827 6.50671 19.6126 6.52936 19.8138 6.56733C20.3778 6.67376 20.5847 6.86991 20.6603 7.00084C20.7359 7.13177 20.8023 7.40905 20.6125 7.95071C20.545 8.14337 20.45 8.35313 20.3266 8.57792C20.0188 7.82978 19.6131 7.13225 19.1254 6.50127ZM3.67386 15.4231C3.55029 15.6482 3.45521 15.8581 3.38763 16.051C3.1978 16.5926 3.26421 16.8699 3.3398 17.0008C3.41539 17.1318 3.62232 17.3279 4.18632 17.4344C4.38783 17.4724 4.61812 17.495 4.87589 17.5004C4.38789 16.8693 3.98189 16.1716 3.67386 15.4231Z" fill="black" fill-opacity="0.88"/>
</svg>
