<svg width="24" height="24" viewBox="0 0 24 24" fill="none" xmlns="http://www.w3.org/2000/svg">
<path fill-rule="evenodd" clip-rule="evenodd" d="M12 22C17.5228 22 22 17.5228 22 12C22 6.47715 17.5228 2 12 2C6.47715 2 2 6.47715 2 12C2 17.5228 6.47715 22 12 22ZM12 7C12.5523 7 13 7.44772 13 8V12C13 12.5523 12.5523 13 12 13C11.4477 13 11 12.5523 11 12V8C11 7.44772 11.4477 7 12 7ZM13.25 15.75C13.25 16.4404 12.6904 17 12 17C11.3096 17 10.75 16.4404 10.75 15.75C10.75 15.0596 11.3096 14.5 12 14.5C12.6904 14.5 13.25 15.0596 13.25 15.75Z" fill="black" fill-opacity="0.88"/>
</svg>
