<svg width="24" height="24" viewBox="0 0 24 24" fill="none" xmlns="http://www.w3.org/2000/svg">
<path d="M13.25 15.75C13.25 16.4404 12.6904 17 12 17C11.3096 17 10.75 16.4404 10.75 15.75C10.75 15.0596 11.3096 14.5 12 14.5C12.6904 14.5 13.25 15.0596 13.25 15.75Z" fill="black" fill-opacity="0.88"/>
<path d="M13 8C13 7.44772 12.5523 7 12 7C11.4477 7 11 7.44772 11 8V12C11 12.5523 11.4477 13 12 13C12.5523 13 13 12.5523 13 12V8Z" fill="black" fill-opacity="0.88"/>
<path fill-rule="evenodd" clip-rule="evenodd" d="M2 12C2 6.47715 6.47715 2 12 2C17.5228 2 22 6.47715 22 12C22 17.5228 17.5228 22 12 22C6.47715 22 2 17.5228 2 12ZM12 4C7.58172 4 4 7.58172 4 12C4 16.4183 7.58172 20 12 20C16.4183 20 20 16.4183 20 12C20 7.58172 16.4183 4 12 4Z" fill="black" fill-opacity="0.88"/>
</svg>
