<svg width="24" height="24" viewBox="0 0 24 24" fill="none" xmlns="http://www.w3.org/2000/svg">
<path d="M6 8C6 7.44772 6.44772 7 7 7H13C13.5523 7 14 7.44772 14 8C14 8.55228 13.5523 9 13 9H7C6.44772 9 6 8.55228 6 8Z" fill="black" fill-opacity="0.88"/>
<path d="M7 11C6.44772 11 6 11.4477 6 12C6 12.5523 6.44772 13 7 13H13C13.5523 13 14 12.5523 14 12C14 11.4477 13.5523 11 13 11H7Z" fill="black" fill-opacity="0.88"/>
<path d="M6 16C6 15.4477 6.44772 15 7 15H10C10.5523 15 11 15.4477 11 16C11 16.5523 10.5523 17 10 17H7C6.44772 17 6 16.5523 6 16Z" fill="black" fill-opacity="0.88"/>
<path fill-rule="evenodd" clip-rule="evenodd" d="M2 5C2 3.34315 3.34315 2 5 2H15C16.6569 2 18 3.34315 18 5V15H22V19C22 20.6569 20.6569 22 19 22H5C3.34315 22 2 20.6569 2 19V5ZM19 20C19.5523 20 20 19.5523 20 19V17H18V19C18 19.5523 18.4477 20 19 20ZM16.1707 20H5C4.44772 20 4 19.5523 4 19V5C4 4.44772 4.44772 4 5 4H15C15.5523 4 16 4.44772 16 5V19C16 19.3506 16.0602 19.6872 16.1707 20Z" fill="black" fill-opacity="0.88"/>
</svg>
