<svg width="24" height="24" viewBox="0 0 24 24" fill="none" xmlns="http://www.w3.org/2000/svg">
<path d="M10 10C9.44772 10 9 10.4477 9 11C9 11.5523 9.44772 12 10 12H14C14.5523 12 15 11.5523 15 11C15 10.4477 14.5523 10 14 10H10Z" fill="black" fill-opacity="0.88"/>
<path d="M9 15C9 14.4477 9.44772 14 10 14H14C14.5523 14 15 14.4477 15 15C15 15.5523 14.5523 16 14 16H10C9.44772 16 9 15.5523 9 15Z" fill="black" fill-opacity="0.88"/>
<path fill-rule="evenodd" clip-rule="evenodd" d="M7.29289 2.29289C7.68342 1.90237 8.31658 1.90237 8.70711 2.29289L10.5621 4.14784C11.0262 4.05094 11.5071 4 12 4C12.4929 4 12.9738 4.05094 13.4379 4.14784L15.2929 2.29289C15.6834 1.90237 16.3166 1.90237 16.7071 2.29289C17.0976 2.68342 17.0976 3.31658 16.7071 3.70711L15.4859 4.92833C16.7177 5.63709 17.7135 6.70995 18.3264 8H21C21.5523 8 22 8.44772 22 9C22 9.55228 21.5523 10 21 10H18.9291C18.9758 10.3266 19 10.6605 19 11V12H21C21.5523 12 22 12.4477 22 13C22 13.5523 21.5523 14 21 14H19V15C19 15.3395 18.9758 15.6734 18.9291 16H21C21.5523 16 22 16.4477 22 17C22 17.5523 21.5523 18 21 18H18.3264C17.2029 20.3649 14.7924 22 12 22C9.2076 22 6.79709 20.3649 5.67363 18H3C2.44772 18 2 17.5523 2 17C2 16.4477 2.44772 16 3 16H5.07089C5.02417 15.6734 5 15.3395 5 15V14H3C2.44772 14 2 13.5523 2 13C2 12.4477 2.44772 12 3 12H5V11C5 10.6605 5.02417 10.3266 5.07089 10H3C2.44772 10 2 9.55228 2 9C2 8.44772 2.44772 8 3 8H5.67363C6.28647 6.70995 7.28227 5.63709 8.51412 4.92833L7.29289 3.70711C6.90237 3.31658 6.90237 2.68342 7.29289 2.29289ZM7 15C7 17.7614 9.23858 20 12 20C14.7614 20 17 17.7614 17 15V11C17 8.23858 14.7614 6 12 6C9.23858 6 7 8.23858 7 11V15Z" fill="black" fill-opacity="0.88"/>
</svg>
