<svg width="24" height="24" viewBox="0 0 24 24" fill="none" xmlns="http://www.w3.org/2000/svg">
<path fill-rule="evenodd" clip-rule="evenodd" d="M11.612 2.20006C11.0432 1.85882 10.3041 2.09475 10.0383 2.7024L6.84598 9.99906H5C3.34315 9.99906 2 11.3422 2 12.9991V18.9991C2 20.6559 3.34315 21.9991 5 21.9991H17.8178C19.2763 21.9991 20.5235 20.95 20.7734 19.5131L22.0778 12.0131C22.3969 10.1782 20.9845 8.49906 19.1222 8.49906H14.5V5.63144C14.5 4.57765 13.9471 3.60113 13.0435 3.05896L11.612 2.20006ZM8.58384 11.0166L11.4604 4.44151L12.0145 4.77395C12.3157 4.95467 12.5 5.28018 12.5 5.63144V8.49906C12.5 9.60363 13.3954 10.4991 14.5 10.4991H19.1222C19.7429 10.4991 20.2137 11.0588 20.1074 11.6704L18.803 19.1704C18.7197 19.6494 18.304 19.9991 17.8178 19.9991H8.5V11.4174C8.5 11.2795 8.52855 11.143 8.58384 11.0166ZM6.5 19.9991V11.9991H5C4.44772 11.9991 4 12.4468 4 12.9991V18.9991C4 19.5513 4.44772 19.9991 5 19.9991H6.5Z" fill="black" fill-opacity="0.88"/>
</svg>
