<svg width="24" height="24" viewBox="0 0 24 24" fill="none" xmlns="http://www.w3.org/2000/svg">
<path d="M15.3096 14.4036L11.7699 21.9257C11.6322 22.2181 11.2575 22.3051 11.0051 22.1032L9.75061 21.0996C9.27618 20.7201 9 20.1454 9 19.5379V16.4991C9 15.9468 8.55228 15.4991 8 15.4991H3.81812C2.59685 15.4991 1.66074 14.4141 1.83972 13.206L3.24713 3.70602C3.39241 2.72536 4.23417 1.99912 5.22553 1.99912H14.5C15.0523 1.99912 15.5 2.44683 15.5 2.99912V13.552C15.5 13.8465 15.435 14.1372 15.3096 14.4036Z" fill="black" fill-opacity="0.88"/>
<path d="M20 13.9991C21.1046 13.9991 22 13.1037 22 11.9991V3.99912C22 2.89455 21.1046 1.99912 20 1.99912H17.5V13.9991H20Z" fill="black" fill-opacity="0.88"/>
</svg>
