<svg width="24" height="24" viewBox="0 0 24 24" fill="none" xmlns="http://www.w3.org/2000/svg">
<path fill-rule="evenodd" clip-rule="evenodd" d="M12.388 21.7999C12.9568 22.1412 13.6959 21.9052 13.9617 21.2976L17.154 14.0009H19C20.6569 14.0009 22 12.6578 22 11.0009V5.00094C22 3.34409 20.6569 2.00094 19 2.00094H6.18219C4.72366 2.00094 3.47646 3.04996 3.22656 4.48692L1.92221 11.9869C1.60311 13.8218 3.01546 15.5009 4.87785 15.5009H9.5V18.3686C9.5 19.4223 10.0529 20.3989 10.9565 20.941L12.388 21.7999ZM15.4162 12.9834L12.5396 19.5585L11.9855 19.2261C11.6843 19.0453 11.5 18.7198 11.5 18.3686V15.5009C11.5 14.3964 10.6046 13.5009 9.5 13.5009H4.87785C4.25705 13.5009 3.78627 12.9412 3.89264 12.3296L5.19698 4.8296C5.28028 4.35061 5.69602 4.00094 6.18219 4.00094H15.5V12.5826C15.5 12.7205 15.4715 12.857 15.4162 12.9834ZM17.5 4.00094V12.0009H19C19.5523 12.0009 20 11.5532 20 11.0009V5.00094C20 4.44866 19.5523 4.00094 19 4.00094H17.5Z" fill="black" fill-opacity="0.88"/>
</svg>
