<svg width="24" height="24" viewBox="0 0 24 24" fill="none" xmlns="http://www.w3.org/2000/svg">
<path d="M19.2929 4.70756C18.0266 3.44123 15.9735 3.44123 14.7071 4.70756L11.7071 7.70756C10.4408 8.97389 10.4408 11.027 11.7071 12.2933C12.0977 12.6839 12.0977 13.317 11.7071 13.7076C11.3166 14.0981 10.6835 14.0981 10.2929 13.7076C8.24555 11.6602 8.24555 8.34073 10.2929 6.29335L13.2929 3.29335C15.3403 1.24597 18.6598 1.24597 20.7071 3.29335C22.7545 5.34072 22.7545 8.66018 20.7071 10.7076L17.7071 13.7076C17.3166 14.0981 16.6835 14.0981 16.2929 13.7076C15.9024 13.317 15.9024 12.6839 16.2929 12.2933L19.2929 9.29335C20.5593 8.02702 20.5593 5.97389 19.2929 4.70756Z" fill="black" fill-opacity="0.88"/>
<path d="M12.2929 11.7076C11.9024 11.317 11.9024 10.6839 12.2929 10.2933C12.6835 9.90282 13.3166 9.90282 13.7071 10.2933C15.7545 12.3407 15.7545 15.6602 13.7071 17.7076L10.7071 20.7076C8.65976 22.7549 5.34031 22.7549 3.29293 20.7076C1.24555 18.6602 1.24555 15.3407 3.29293 13.2933L6.29293 10.2933C6.68345 9.90282 7.31662 9.90282 7.70714 10.2933C8.09767 10.6839 8.09767 11.317 7.70714 11.7076L4.70714 14.7076C3.44081 15.9739 3.44081 18.027 4.70714 19.2933C5.97347 20.5597 8.0266 20.5597 9.29293 19.2933L12.2929 16.2933C13.5593 15.027 13.5593 12.9739 12.2929 11.7076Z" fill="black" fill-opacity="0.88"/>
</svg>
