<svg width="24" height="24" viewBox="0 0 24 24" fill="none" xmlns="http://www.w3.org/2000/svg">
<path fill-rule="evenodd" clip-rule="evenodd" d="M3.70717 2.29289C3.31664 1.90237 2.68348 1.90237 2.29295 2.29289C1.90243 2.68342 1.90243 3.31658 2.29295 3.70711L5.26638 6.68053C5.1754 6.75527 5.08597 6.83046 4.99812 6.90595C3.23268 8.42276 2.00757 10.1376 1.46387 10.9698C1.05306 11.5985 1.05306 12.4015 1.46387 13.0302C2.00757 13.8624 3.23268 15.5772 4.99812 17.0941C6.75717 18.6054 9.14754 20 12 20C13.92 20 15.6305 19.3682 17.0801 18.4943L20.293 21.7071C20.6835 22.0976 21.3166 22.0976 21.7072 21.7071C22.0977 21.3166 22.0977 20.6834 21.7072 20.2929L3.70717 2.29289ZM15.6145 17.0287L14.032 15.4462C13.4365 15.7981 12.7419 16 12 16C9.79092 16 8.00004 14.2091 8.00004 12C8.00004 11.2582 8.20198 10.5635 8.55387 9.96803L6.68834 8.1025C6.55704 8.20723 6.42806 8.31418 6.30147 8.42294C4.77832 9.73158 3.6904 11.2274 3.18002 12C3.6904 12.7726 4.77832 14.2684 6.30147 15.5771C7.87402 16.9282 9.81574 18 12 18C13.2996 18 14.5133 17.6206 15.6145 17.0287ZM10.0678 11.4819C10.0236 11.6472 10 11.8208 10 12C10 13.1046 10.8955 14 12 14C12.1792 14 12.3529 13.9764 12.5181 13.9323L10.0678 11.4819Z" fill="black" fill-opacity="0.88"/>
<path d="M11.4516 8.03729L15.9628 12.5485C15.9873 12.3692 16 12.1861 16 12C16 9.79088 14.2092 8 12 8C11.814 8 11.6309 8.0127 11.4516 8.03729Z" fill="black" fill-opacity="0.88"/>
<path d="M20.8201 12C20.3887 12.6531 19.5446 13.8229 18.3738 14.9596L19.7882 16.3739C21.133 15.0637 22.0773 13.7326 22.5362 13.0302C22.947 12.4015 22.947 11.5985 22.5362 10.9698C21.9925 10.1376 20.7674 8.42276 19.002 6.90595C17.2429 5.39462 14.8525 4 12 4C10.6326 4 9.37137 4.32049 8.23497 4.8207L9.78085 6.36657C10.4866 6.13385 11.2282 6 12 6C14.1843 6 16.1261 7.07185 17.6986 8.42294C19.2218 9.73158 20.3097 11.2274 20.8201 12Z" fill="black" fill-opacity="0.88"/>
</svg>
