<svg width="24" height="24" viewBox="0 0 24 24" fill="none" xmlns="http://www.w3.org/2000/svg">
<path d="M9 14.9987C8.44772 14.9987 8 15.4464 8 15.9987C8 16.551 8.44772 16.9987 9 16.9987H15C15.5523 16.9987 16 16.551 16 15.9987C16 15.4464 15.5523 14.9987 15 14.9987H9Z" fill="black" fill-opacity="0.88"/>
<path fill-rule="evenodd" clip-rule="evenodd" d="M13.9755 3.39852C12.8444 2.40883 11.1556 2.40883 10.0245 3.39852L4.02449 8.64852C3.37344 9.21818 3 10.0412 3 10.9063V17.9987C3 19.6556 4.34315 20.9987 6 20.9987H18C19.6569 20.9987 21 19.6556 21 17.9987V10.9063C21 10.0412 20.6266 9.21819 19.9755 8.64852L13.9755 3.39852ZM11.3415 4.90367C11.7185 4.57378 12.2815 4.57378 12.6585 4.90367L18.6585 10.1537C18.8755 10.3436 19 10.6179 19 10.9063V17.9987C19 18.551 18.5523 18.9987 18 18.9987H6C5.44772 18.9987 5 18.551 5 17.9987V10.9063C5 10.6179 5.12448 10.3436 5.3415 10.1537L11.3415 4.90367Z" fill="black" fill-opacity="0.88"/>
</svg>
