<svg width="18" height="20" viewBox="0 0 18 20" fill="none" xmlns="http://www.w3.org/2000/svg">
<path d="M6 5C5.44772 5 5 5.44772 5 6C5 6.55228 5.44772 7 6 7H12C12.5523 7 13 6.55228 13 6C13 5.44772 12.5523 5 12 5H6Z" fill="black" fill-opacity="0.88"/>
<path d="M5 10C5 9.44771 5.44772 9 6 9H12C12.5523 9 13 9.44771 13 10C13 10.5523 12.5523 11 12 11H6C5.44772 11 5 10.5523 5 10Z" fill="black" fill-opacity="0.88"/>
<path d="M6 13C5.44772 13 5 13.4477 5 14C5 14.5523 5.44772 15 6 15H9C9.55228 15 10 14.5523 10 14C10 13.4477 9.55228 13 9 13H6Z" fill="black" fill-opacity="0.88"/>
<path fill-rule="evenodd" clip-rule="evenodd" d="M3 0C1.34315 0 0 1.34315 0 3V17C0 18.6569 1.34315 20 3 20H15C16.6569 20 18 18.6569 18 17V3C18 1.34315 16.6569 0 15 0H3ZM2 3C2 2.44772 2.44772 2 3 2H15C15.5523 2 16 2.44772 16 3V17C16 17.5523 15.5523 18 15 18H3C2.44772 18 2 17.5523 2 17V3Z" fill="black" fill-opacity="0.88"/>
</svg>
