<svg width="20" height="20" viewBox="0 0 20 20" fill="none" xmlns="http://www.w3.org/2000/svg">
<g id="icon/&#233;&#128;&#154;&#231;&#148;&#168;/&#229;&#138;&#160;&#228;&#185;&#166;&#230;&#158;&#182;">
<g id="Union">
<path fill-rule="evenodd" clip-rule="evenodd" d="M2.65275 2.5C1.93769 2.5 1.50163 3.2782 1.86245 3.8872C1.96515 4.06054 2.15978 4.40669 2.32636 4.79907C2.50187 5.21251 2.60498 5.58327 2.60498 5.83333C2.60498 6.0834 2.50187 6.45415 2.32636 6.86759C2.15978 7.25998 1.96515 7.60612 1.86245 7.77946C1.50162 8.38848 1.93771 9.16667 2.65275 9.16667H15.0008C16.8418 9.16667 18.3341 7.67428 18.3341 5.83333C18.3341 3.99238 16.8418 2.5 15.0008 2.5H2.65275ZM4.27165 5.83333C4.27165 5.24553 4.06378 4.62996 3.86849 4.16667H15.0008C15.9213 4.16667 16.6675 4.91286 16.6675 5.83333C16.6675 6.75381 15.9213 7.5 15.0008 7.5H3.86849C4.06378 7.0367 4.27165 6.42114 4.27165 5.83333Z" fill="black" fill-opacity="0.65"/>
<path d="M17.3489 10.8333C18.0639 10.8333 18.5 11.6115 18.1392 12.2205C18.0365 12.3939 17.8418 12.74 17.6753 13.1324C17.4998 13.5458 17.3966 13.9166 17.3966 14.1667C17.3966 14.4167 17.4998 14.7875 17.6753 15.2009C17.8418 15.5933 18.0365 15.9395 18.1392 16.1128C18.5 16.7218 18.0639 17.5 17.3489 17.5H14.1675C13.7072 17.5 13.3341 17.1269 13.3341 16.6667C13.3341 16.2064 13.7072 15.8333 14.1675 15.8333H16.1331C15.9378 15.37 15.73 14.7545 15.73 14.1667C15.73 13.5789 15.9378 12.9633 16.1331 12.5H5.00081C4.08034 12.5 3.33415 13.2462 3.33415 14.1667C3.33415 15.0871 4.08034 15.8333 5.00081 15.8333H5.78206C6.2423 15.8333 6.6154 16.2064 6.6154 16.6667C6.6154 17.1269 6.2423 17.5 5.78206 17.5H5.00081C3.15986 17.5 1.66748 16.0076 1.66748 14.1667C1.66748 12.3257 3.15986 10.8333 5.00081 10.8333H17.3489Z" fill="black" fill-opacity="0.65"/>
<path d="M7.50081 16.6667C7.50081 16.2064 7.87391 15.8333 8.33415 15.8333H9.16748V15.4167C9.16748 14.9564 9.54058 14.5833 10.0008 14.5833C10.4611 14.5833 10.8341 14.9564 10.8341 15.4167V15.8333H11.6675C12.1277 15.8333 12.5008 16.2064 12.5008 16.6667C12.5008 17.1269 12.1277 17.5 11.6675 17.5H10.8341V17.9167C10.8341 18.3769 10.4611 18.75 10.0008 18.75C9.54058 18.75 9.16748 18.3769 9.16748 17.9167V17.5H8.33415C7.87391 17.5 7.50081 17.1269 7.50081 16.6667Z" fill="black" fill-opacity="0.65"/>
</g>
</g>
</svg>
