<svg width="24" height="24" viewBox="0 0 24 24" fill="none" xmlns="http://www.w3.org/2000/svg">
<g id="icon/&#229;&#170;&#146;&#228;&#189;&#147;/&#229;&#138;&#160;&#228;&#185;&#166;&#230;&#158;&#182;">
<path id="Union" fill-rule="evenodd" clip-rule="evenodd" d="M3.18232 3.25C2.51904 3.25 2.11425 3.97213 2.44905 4.53721C2.57531 4.75032 2.8149 5.17623 3.02078 5.6612C3.2347 6.16511 3.375 6.64806 3.375 7C3.375 7.35194 3.2347 7.83489 3.02078 8.3388C2.8149 8.82377 2.57531 9.24968 2.44905 9.46279C2.11424 10.0279 2.51905 10.75 3.18232 10.75H18C20.0711 10.75 21.75 9.07107 21.75 7C21.75 4.92893 20.0711 3.25 18 3.25H3.18232ZM4.40151 5.07505C4.35402 4.96318 4.30522 4.85441 4.25636 4.75H18C19.2426 4.75 20.25 5.75736 20.25 7C20.25 8.24264 19.2426 9.25 18 9.25H4.25636C4.30522 9.14559 4.35402 9.03682 4.40151 8.92495C4.63528 8.3743 4.875 7.66312 4.875 7C4.875 6.33688 4.63528 5.6257 4.40151 5.07505ZM20.8177 13.25C21.481 13.25 21.8858 13.9721 21.551 14.5372C21.4247 14.7503 21.1851 15.1762 20.9792 15.6612C20.7653 16.1651 20.625 16.6481 20.625 17C20.625 17.3519 20.7653 17.8349 20.9792 18.3388C21.1851 18.8238 21.4247 19.2497 21.551 19.4628C21.8858 20.0279 21.481 20.75 20.8177 20.75H17C16.5858 20.75 16.25 20.4142 16.25 20C16.25 19.5858 16.5858 19.25 17 19.25H19.7436C19.6948 19.1456 19.646 19.0368 19.5985 18.925C19.3647 18.3743 19.125 17.6631 19.125 17C19.125 16.3369 19.3647 15.6257 19.5985 15.075C19.646 14.9632 19.6948 14.8544 19.7436 14.75H6C4.75736 14.75 3.75 15.7574 3.75 17C3.75 18.2426 4.75736 19.25 6 19.25H6.9375C7.35171 19.25 7.6875 19.5858 7.6875 20C7.6875 20.4142 7.35171 20.75 6.9375 20.75H6C3.92893 20.75 2.25 19.0711 2.25 17C2.25 14.9289 3.92893 13.25 6 13.25H20.8177ZM9.25 20C9.25 19.5858 9.58579 19.25 10 19.25H11.25V18.5C11.25 18.0858 11.5858 17.75 12 17.75C12.4142 17.75 12.75 18.0858 12.75 18.5V19.25H14C14.4142 19.25 14.75 19.5858 14.75 20C14.75 20.4142 14.4142 20.75 14 20.75H12.75V21.5C12.75 21.9142 12.4142 22.25 12 22.25C11.5858 22.25 11.25 21.9142 11.25 21.5V20.75H10C9.58579 20.75 9.25 20.4142 9.25 20Z" fill="black"/>
</g>
</svg>
