<svg width="12" height="12" viewBox="0 0 12 12" fill="none" xmlns="http://www.w3.org/2000/svg">
<path d="M6.00033 0.166016C6.46056 0.166016 6.83366 0.539112 6.83366 0.999349V5.16602H11.0003C11.4606 5.16602 11.8337 5.53911 11.8337 5.99935C11.8337 6.45959 11.4606 6.83268 11.0003 6.83268H6.83366V10.9993C6.83366 11.4596 6.46056 11.8327 6.00033 11.8327C5.54009 11.8327 5.16699 11.4596 5.16699 10.9993V6.83268H1.00033C0.540088 6.83268 0.166992 6.45959 0.166992 5.99935C0.166992 5.53911 0.540088 5.16602 1.00033 5.16602H5.16699V0.999349C5.16699 0.539112 5.54009 0.166016 6.00033 0.166016Z" fill="black" fill-opacity="0.45"/>
</svg>
