<svg width="24" height="24" viewBox="0 0 24 24" fill="none" xmlns="http://www.w3.org/2000/svg">
<g id="icon/&#233;&#128;&#154;&#231;&#148;&#168;/&#230;&#183;&#187;&#229;&#138;&#160;&#229;&#155;&#190;&#231;&#137;&#135;">
<g id="Union">
<path d="M4 3C2.34315 3 1 4.34315 1 6V18C1 19.2602 1.77698 20.3389 2.87802 20.7832C3.10988 20.9678 3.40475 21.0345 3.68216 20.9834C3.78661 20.9944 3.89264 21 4 21H12C12.5523 21 13 20.5523 13 20C13 19.4477 12.5523 19 12 19H5.91421L13 11.9142L14.7929 13.7071C15.1834 14.0976 15.8166 14.0976 16.2071 13.7071C16.5976 13.3166 16.5976 12.6834 16.2071 12.2929L13.7071 9.79289C13.3166 9.40237 12.6834 9.40237 12.2929 9.79289L3.33708 18.7487C3.13032 18.5655 3 18.298 3 18V6C3 5.44772 3.44772 5 4 5H18C18.5526 5 19 5.44757 19 5.99957V12C19 12.5523 19.4477 13 20 13C20.5523 13 21 12.5523 21 12V5.99957C21 4.34244 19.6566 3 18 3H4Z" fill="white"/>
<path d="M9 9C9 10.1046 8.10457 11 7 11C5.89543 11 5 10.1046 5 9C5 7.89543 5.89543 7 7 7C8.10457 7 9 7.89543 9 9Z" fill="white"/>
<path d="M20 16C20 15.4477 19.5523 15 19 15C18.4477 15 18 15.4477 18 16V18H16C15.4477 18 15 18.4477 15 19C15 19.5523 15.4477 20 16 20H18V22C18 22.5523 18.4477 23 19 23C19.5523 23 20 22.5523 20 22V20H22C22.5523 20 23 19.5523 23 19C23 18.4477 22.5523 18 22 18H20V16Z" fill="white"/>
</g>
</g>
</svg>
