<svg width="20" height="20" viewBox="0 0 20 20" fill="none" xmlns="http://www.w3.org/2000/svg">
<g id="icon/&#233;&#128;&#154;&#231;&#148;&#168;/&#230;&#183;&#187;&#229;&#138;&#160;-fill">
<path id="Union" fill-rule="evenodd" clip-rule="evenodd" d="M9.99984 18.3334C14.6022 18.3334 18.3332 14.6025 18.3332 10.0001C18.3332 5.39771 14.6022 1.66675 9.99984 1.66675C5.39746 1.66675 1.6665 5.39771 1.6665 10.0001C1.6665 14.6025 5.39746 18.3334 9.99984 18.3334ZM5.83317 10.0001C5.83317 9.53984 6.20627 9.16675 6.6665 9.16675H9.1665V6.66675C9.1665 6.20651 9.5396 5.83342 9.99984 5.83342C10.4601 5.83342 10.8332 6.20651 10.8332 6.66675V9.16675H13.3332C13.7934 9.16675 14.1665 9.53984 14.1665 10.0001C14.1665 10.4603 13.7934 10.8334 13.3332 10.8334H10.8332V13.3334C10.8332 13.7937 10.4601 14.1667 9.99984 14.1667C9.5396 14.1667 9.1665 13.7937 9.1665 13.3334V10.8334H6.6665C6.20627 10.8334 5.83317 10.4603 5.83317 10.0001Z" fill="black" fill-opacity="0.25"/>
</g>
</svg>
