<svg width="24" height="24" viewBox="0 0 24 24" fill="none" xmlns="http://www.w3.org/2000/svg">
<g id="icon/&#229;&#170;&#146;&#228;&#189;&#147;/&#229;&#183;&#178;&#229;&#138;&#160;&#228;&#185;&#166;&#230;&#158;&#182;">
<path id="Union" fill-rule="evenodd" clip-rule="evenodd" d="M2.44905 4.53721C2.11425 3.97213 2.51904 3.25 3.18232 3.25H18C20.0711 3.25 21.75 4.92893 21.75 7C21.75 9.07107 20.0711 10.75 18 10.75H3.18232C2.51905 10.75 2.11424 10.0279 2.44905 9.46279C2.57531 9.24968 2.8149 8.82377 3.02078 8.3388C3.2347 7.83489 3.375 7.35194 3.375 7C3.375 6.64806 3.2347 6.16511 3.02078 5.6612C2.8149 5.17623 2.57531 4.75032 2.44905 4.53721ZM4.25636 4.75C4.30522 4.85441 4.35402 4.96318 4.40151 5.07505C4.63528 5.6257 4.875 6.33688 4.875 7C4.875 7.66312 4.63528 8.3743 4.40151 8.92495C4.35402 9.03682 4.30522 9.14559 4.25636 9.25H18C19.2426 9.25 20.25 8.24264 20.25 7C20.25 5.75736 19.2426 4.75 18 4.75H4.25636ZM21.551 14.5372C21.8858 13.9721 21.481 13.25 20.8177 13.25H6C3.92893 13.25 2.25 14.9289 2.25 17C2.25 19.0711 3.92893 20.75 6 20.75H6.9375C7.35171 20.75 7.6875 20.4142 7.6875 20C7.6875 19.5858 7.35171 19.25 6.9375 19.25H6C4.75736 19.25 3.75 18.2426 3.75 17C3.75 15.7574 4.75736 14.75 6 14.75H19.7436C19.6948 14.8544 19.646 14.9632 19.5985 15.075C19.3647 15.6257 19.125 16.3369 19.125 17C19.125 17.6631 19.3647 18.3743 19.5985 18.925C19.646 19.0368 19.6948 19.1456 19.7436 19.25H17C16.5858 19.25 16.25 19.5858 16.25 20C16.25 20.4142 16.5858 20.75 17 20.75H20.8177C21.481 20.75 21.8858 20.0279 21.551 19.4628C21.4247 19.2497 21.1851 18.8238 20.9792 18.3388C20.7653 17.8349 20.625 17.3519 20.625 17C20.625 16.6481 20.7653 16.1651 20.9792 15.6612C21.1851 15.1762 21.4247 14.7503 21.551 14.5372ZM15.0303 19.0303C15.3232 18.7374 15.3232 18.2626 15.0303 17.9697C14.7374 17.6768 14.2626 17.6768 13.9697 17.9697L11.5 20.4393L10.5303 19.4697C10.2374 19.1768 9.76256 19.1768 9.46967 19.4697C9.17678 19.7626 9.17678 20.2374 9.46967 20.5303L10.9697 22.0303C11.2626 22.3232 11.7374 22.3232 12.0303 22.0303L15.0303 19.0303Z" fill="black"/>
</g>
</svg>
