<svg width="24" height="24" viewBox="0 0 24 24" fill="none" xmlns="http://www.w3.org/2000/svg">
<g id="icon/&#229;&#170;&#146;&#228;&#189;&#147;/&#229;&#174;&#154;&#230;&#151;&#182;">
<path id="Union" fill-rule="evenodd" clip-rule="evenodd" d="M5.03033 1.96967C5.32322 2.26256 5.32322 2.73744 5.03033 3.03033L3.03033 5.03033C2.73744 5.32322 2.26256 5.32322 1.96967 5.03033C1.67678 4.73744 1.67678 4.26256 1.96967 3.96967L3.96967 1.96967C4.26256 1.67678 4.73744 1.67678 5.03033 1.96967ZM20.0303 1.96967C19.7374 1.67678 19.2626 1.67678 18.9697 1.96967C18.6768 2.26256 18.6768 2.73744 18.9697 3.03033L20.9697 5.03033C21.2626 5.32322 21.7374 5.32322 22.0303 5.03033C22.3232 4.73744 22.3232 4.26256 22.0303 3.96967L20.0303 1.96967ZM3.75 12C3.75 7.44365 7.44365 3.75 12 3.75C16.5563 3.75 20.25 7.44365 20.25 12C20.25 16.5563 16.5563 20.25 12 20.25C7.44365 20.25 3.75 16.5563 3.75 12ZM12 2.25C6.61522 2.25 2.25 6.61522 2.25 12C2.25 17.3848 6.61522 21.75 12 21.75C17.3848 21.75 21.75 17.3848 21.75 12C21.75 6.61522 17.3848 2.25 12 2.25ZM12.75 8C12.75 7.58579 12.4142 7.25 12 7.25C11.5858 7.25 11.25 7.58579 11.25 8V11.9C11.25 12.3694 11.6306 12.75 12.1 12.75H16C16.4142 12.75 16.75 12.4142 16.75 12C16.75 11.5858 16.4142 11.25 16 11.25H12.75V8Z" fill="black"/>
</g>
</svg>
