<?xml version="1.0" standalone="no"?>
<svg xmlns="http://www.w3.org/2000/svg" width="24" height="24"><rect width="24" height="24" opacity="0"></rect><g><path d="M13.1 6.14Q12.65 5.69 12.01 5.69Q11.38 5.69 10.92 6.14L3.67 13.39Q3.43 13.61 3.43 13.92Q3.43 14.23 3.67 14.45Q3.89 14.66 4.19 14.66Q4.49 14.66 4.7 14.45L11.21 8.02L11.21 20.26Q11.21 20.57 11.42 20.78Q11.64 21 11.95 21Q12.26 21 12.49 20.78Q12.72 20.57 12.72 20.26L12.72 7.87L19.25 14.4Q19.46 14.62 19.78 14.62Q20.09 14.62 20.3 14.4Q20.52 14.18 20.52 13.87Q20.52 13.56 20.3 13.34L13.1 6.14ZM19.99 4.49Q20.3 4.49 20.53 4.27Q20.76 4.06 20.76 3.74Q20.76 3.43 20.53 3.22Q20.3 3 19.99 3L4.01 3Q3.7 3 3.47 3.22Q3.24 3.43 3.24 3.74Q3.24 4.06 3.47 4.27Q3.7 4.49 4.01 4.49L19.99 4.49Z" fill="rgba(0,0,0,0.9019607843137255)"></path></g></svg>