<svg width="24" height="24" viewBox="0 0 24 24" fill="none" xmlns="http://www.w3.org/2000/svg">
<g id="icon/&#229;&#170;&#146;&#228;&#189;&#147;/&#229;&#191;&#171;&#233;&#128;&#128;">
<path id="Union" fill-rule="evenodd" clip-rule="evenodd" d="M4.66622 8.21721C6.03873 5.56218 8.80835 3.75 12 3.75C16.5563 3.75 20.25 7.44365 20.25 12C20.25 16.5563 16.5563 20.25 12 20.25C8.80835 20.25 6.03873 18.4378 4.66622 15.7828C4.476 15.4148 4.02352 15.2707 3.65556 15.461C3.2876 15.6512 3.14352 16.1037 3.33373 16.4716C4.95367 19.6053 8.22573 21.75 12 21.75C17.3847 21.75 21.75 17.3848 21.75 12C21.75 6.61522 17.3847 2.25 12 2.25C9.12097 2.25 6.53417 3.49794 4.74997 5.48084V4C4.74997 3.58579 4.41419 3.25 3.99997 3.25C3.58576 3.25 3.24997 3.58579 3.24997 4V7.8728C3.24997 8.21875 3.4866 8.51981 3.82275 8.60156C4.1589 8.68331 4.50735 8.52452 4.66622 8.21721ZM9.09251 8.4L7.40251 9.3V10.42L8.88251 9.63V15.6H10.1525V8.4H9.09251ZM12.4529 13.83L11.6429 14.49C12.1529 15.31 12.9329 15.72 13.9929 15.72C14.7229 15.72 15.3329 15.5 15.8029 15.05C16.2729 14.6 16.5029 14.01 16.5029 13.27C16.5029 12.63 16.2929 12.1 15.8829 11.68C15.4729 11.27 14.9429 11.06 14.3129 11.06C13.8629 11.06 13.4829 11.12 13.1229 11.39L13.2629 9.5H16.1329V8.4H12.1829L11.9129 12.25L12.7129 12.58C13.0329 12.19 13.4429 12 13.9429 12C14.7129 12 15.2729 12.51 15.2729 13.31C15.2729 14.16 14.7229 14.68 13.9129 14.68C13.2829 14.68 12.8029 14.4 12.4529 13.83Z" fill="white"/>
</g>
</svg>
