<svg width="16" height="16" viewBox="0 0 16 16" fill="none" xmlns="http://www.w3.org/2000/svg">
<path d="M1.33333 0.333008C0.873096 0.333008 0.5 0.706104 0.5 1.16634C0.5 1.62658 0.873096 1.99967 1.33333 1.99967H14.6667C15.1269 1.99967 15.5 1.62658 15.5 1.16634C15.5 0.706104 15.1269 0.333008 14.6667 0.333008H1.33333Z" fill="black" fill-opacity="0.88"/>
<path d="M1.33333 6.16634C0.873096 6.16634 0.5 6.53944 0.5 6.99967C0.5 7.45991 0.873096 7.83301 1.33333 7.83301H14.6667C15.1269 7.83301 15.5 7.45991 15.5 6.99967C15.5 6.53944 15.1269 6.16634 14.6667 6.16634H1.33333Z" fill="black" fill-opacity="0.88"/>
<path d="M0.5 12.833C0.5 12.3728 0.873096 11.9997 1.33333 11.9997H6.33333C6.79357 11.9997 7.16667 12.3728 7.16667 12.833C7.16667 13.2932 6.79357 13.6663 6.33333 13.6663H1.33333C0.873096 13.6663 0.5 13.2932 0.5 12.833Z" fill="black" fill-opacity="0.88"/>
<path d="M15.2559 11.7556C15.5814 11.4302 15.5814 10.9025 15.2559 10.5771C14.9305 10.2516 14.4028 10.2516 14.0774 10.5771L11.3333 13.3212L10.2559 12.2438C9.93049 11.9183 9.40285 11.9183 9.07741 12.2438C8.75197 12.5692 8.75197 13.0968 9.07741 13.4223L10.7441 15.0889C11.0695 15.4144 11.5972 15.4144 11.9226 15.0889L15.2559 11.7556Z" fill="black" fill-opacity="0.88"/>
</svg>
