<svg width="16" height="16" viewBox="0 0 16 16" fill="none" xmlns="http://www.w3.org/2000/svg">
<g id="icon/&#233;&#128;&#154;&#231;&#148;&#168;/&#230;&#141;&#162;&#230;&#186;&#144;">
<g id="Union">
<path d="M10.1953 2.86128C10.4556 2.60093 10.8777 2.60093 11.1381 2.86128L13.8048 5.52794C13.9954 5.71861 14.0525 6.00535 13.9493 6.25447C13.8461 6.50359 13.603 6.66602 13.3334 6.66602H2.66669C2.2985 6.66602 2.00002 6.36754 2.00002 5.99935C2.00002 5.63116 2.2985 5.33268 2.66669 5.33268H11.7239L10.1953 3.80409C9.93493 3.54374 9.93493 3.12163 10.1953 2.86128Z" fill="black" fill-opacity="0.65"/>
<path d="M2.05077 9.74423C2.15395 9.49511 2.39704 9.33268 2.66669 9.33268H13.3334C13.7015 9.33268 14 9.63116 14 9.99935C14 10.3675 13.7015 10.666 13.3334 10.666H4.27616L5.80476 12.1946C6.06511 12.455 6.06511 12.8771 5.80476 13.1374C5.54441 13.3978 5.1223 13.3978 4.86195 13.1374L2.19528 10.4708C2.00462 10.2801 1.94758 9.99334 2.05077 9.74423Z" fill="black" fill-opacity="0.65"/>
</g>
</g>
</svg>
