<svg width="24" height="24" viewBox="0 0 24 24" fill="none" xmlns="http://www.w3.org/2000/svg">
<g id="icon/logo/&#230;&#156;&#139;&#229;&#143;&#139;&#229;&#156;&#136;">
<path id="Outlined" fill-rule="evenodd" clip-rule="evenodd" d="M22 12C22 17.5228 17.5228 22 12 22C6.47715 22 2 17.5228 2 12C2 6.47715 6.47715 2 12 2C17.5228 2 22 6.47715 22 12ZM20 12C20 13.0609 19.7935 14.0736 19.4185 15H16.0724L19.9522 11.1202C19.9838 11.4091 20 11.7027 20 12ZM19.3673 8.8766C18.846 7.64855 18.0267 6.57763 17 5.75463V11.2439L19.3673 8.8766ZM12.7561 17H18.2454C17.4224 18.0267 16.3514 18.846 15.1234 19.3673L12.7561 17ZM9 16.0724V19.4185C9.92643 19.7935 10.9391 20 12 20C12.2973 20 12.5909 19.9838 12.8798 19.9522L9 16.0724ZM4.63344 15.1252C5.15477 16.3525 5.97384 17.4228 7 18.2454V12.7586L4.63344 15.1252ZM9.82697 9.93167L9.87868 9.87996C10.4216 9.33669 11.1712 9 12 9C12.8018 9 13.5301 9.31455 14.0683 9.82698L14.1213 9.87996C14.6638 10.4228 15 11.1719 15 12C15 13.6569 13.6569 15 12 15C10.3431 15 9 13.6569 9 12C9 11.1982 9.31454 10.4699 9.82697 9.93167ZM15 7.93022V4.58152C14.0736 4.20651 13.0609 4 12 4C11.7019 4 11.4075 4.01631 11.1179 4.04808L15 7.93022ZM8.8748 4.63344L11.2414 7H5.75463C6.57723 5.97384 7.64751 5.15477 8.8748 4.63344ZM7.93022 9L4.04808 12.8821C4.01631 12.5925 4 12.2981 4 12C4 10.9391 4.20651 9.92643 4.58152 9H7.93022Z" fill="#24B277"/>
</g>
</svg>
