<svg width="16" height="16" viewBox="0 0 16 16" fill="none" xmlns="http://www.w3.org/2000/svg">
<g id="icon/&#233;&#128;&#154;&#231;&#148;&#168;/&#230;&#184;&#133;&#233;&#153;&#164;-fill">
<path id="Union" fill-rule="evenodd" clip-rule="evenodd" d="M14.6668 7.99919C14.6668 11.6811 11.6821 14.6659 8.00016 14.6659C4.31826 14.6659 1.3335 11.6811 1.3335 7.99919C1.3335 4.31729 4.31826 1.33252 8.00016 1.33252C11.6821 1.33252 14.6668 4.31729 14.6668 7.99919ZM10.4043 5.59506C10.6907 5.88144 10.6907 6.34576 10.4043 6.63215L9.03725 7.99918L10.4044 9.36629C10.6907 9.65268 10.6907 10.117 10.4044 10.4034C10.118 10.6898 9.65365 10.6898 9.36727 10.4034L8.00016 9.03627L6.63304 10.4034C6.34666 10.6898 5.88234 10.6898 5.59595 10.4034C5.30957 10.117 5.30957 9.65268 5.59595 9.36629L6.96307 7.99918L5.59603 6.63215C5.30965 6.34576 5.30965 5.88144 5.59603 5.59506C5.88242 5.30867 6.34674 5.30867 6.63312 5.59506L8.00016 6.96209L9.36719 5.59506C9.65357 5.30867 10.1179 5.30867 10.4043 5.59506Z" fill="black" fill-opacity="0.45"/>
</g>
</svg>
