<svg width="16" height="16" viewBox="0 0 16 16" fill="none" xmlns="http://www.w3.org/2000/svg">
    <path fill-rule="evenodd" clip-rule="evenodd" d="M14.6666 7.99919C14.6666 11.6811 11.6818 14.6659 7.99992 14.6659C4.31802 14.6659 1.33325 11.6811 1.33325 7.99919C1.33325 4.31729 4.31802 1.33252 7.99992 1.33252C11.6818 1.33252 14.6666 4.31729 14.6666 7.99919ZM10.404 5.59506C10.6904 5.88144 10.6904 6.34576 10.404 6.63215L9.037 7.99918L10.4041 9.36629C10.6905 9.65268 10.6905 10.117 10.4041 10.4034C10.1177 10.6898 9.65341 10.6898 9.36702 10.4034L7.99991 9.03627L6.6328 10.4034C6.34641 10.6898 5.88209 10.6898 5.59571 10.4034C5.30932 10.117 5.30932 9.65268 5.59571 9.36629L6.96282 7.99918L5.59579 6.63215C5.30941 6.34576 5.30941 5.88144 5.59579 5.59506C5.88217 5.30867 6.3465 5.30867 6.63288 5.59506L7.99991 6.96209L9.36694 5.59506C9.65333 5.30867 10.1176 5.30867 10.404 5.59506Z" fill="black" fill-opacity="0.45"/>
</svg>
