<svg width="68" height="68" viewBox="0 0 68 68" fill="none" xmlns="http://www.w3.org/2000/svg">
<g id="icon" clip-path="url(#clip0_4429_208946)">
<g id="Union" filter="url(#filter0_d_4429_208946)">
<path d="M54.6415 24.4119C50.724 17.6302 43.3951 13.0666 35.0003 13.0666C30.3367 13.0666 26.0099 14.472 22.4097 16.8818C21.1094 17.7523 19.3496 17.4037 18.4791 16.1034C17.6087 14.803 17.9572 13.0432 19.2576 12.1728C23.7613 9.15806 29.1798 7.3999 35.0003 7.3999C45.498 7.3999 54.6622 13.1089 59.5576 21.5916C61.9594 25.7534 63.3337 30.5828 63.3337 35.7332C63.3337 40.2515 62.274 44.5304 60.387 48.3275C59.9245 49.2581 58.9897 49.8608 57.9513 49.8981C56.9128 49.9353 55.9372 49.4011 55.4093 48.5061C55.4093 48.5061 51.1683 41.3161 49.9086 39.1806C49.7413 38.8969 49.6266 38.7025 51.2207 41.405C50.3241 39.885 49.9116 39.1856 53.7485 45.6905C51.9799 42.6921 50.9581 40.9598 55.0606 47.9149C49.5604 38.5903 49.5599 38.5894 49.5599 38.5894C48.7649 37.2416 49.213 35.5045 50.5608 34.7095C51.9086 33.9145 53.6457 34.3626 54.4407 35.7104C54.4407 35.7104 56.4354 39.092 57.0279 40.0965C57.1066 40.23 57.1606 40.3214 56.4109 39.0504C56.8325 39.7653 57.0265 40.0942 55.2218 37.0346C56.0538 38.4451 56.5344 39.2599 54.6048 35.9885C57.1917 40.3742 57.1919 40.3746 57.1919 40.3746C57.5033 38.8775 57.667 37.3253 57.667 35.7332C57.667 31.6096 56.5658 27.7431 54.6415 24.4119Z" fill="#FFC76D"/>
<path d="M20.092 32.2859C19.7916 31.7765 19.3216 30.9798 18.78 30.0616C17.9884 28.7195 17.0438 27.118 16.2521 25.7759C15.7105 24.8577 15.2405 24.061 14.9401 23.5516C14.7204 23.1791 14.5914 22.9604 14.5914 22.9604C14.0634 22.0654 13.0879 21.5311 12.0494 21.5684C11.0109 21.6056 10.0761 22.2084 9.61367 23.139C7.72668 26.9361 6.66699 31.215 6.66699 35.7332C6.66699 40.8836 8.04123 45.7131 10.443 49.8749C15.3384 58.3575 24.5027 64.0666 35.0003 64.0666C40.7892 64.0666 46.1805 62.3275 50.6697 59.3426C51.9728 58.4763 52.3268 56.7176 51.4604 55.4145C50.594 54.1114 48.8353 53.7574 47.5322 54.6238C43.9438 57.0097 39.6387 58.3999 35.0003 58.3999C26.6055 58.3999 19.2766 53.8363 15.3591 47.0546C13.4348 43.7234 12.3337 39.8569 12.3337 35.7332C12.3337 34.1412 12.4974 32.589 12.8087 31.0918C12.8087 31.0918 12.8694 31.1947 12.9727 31.3699C13.114 31.6095 13.3351 31.9842 13.5898 32.4161C13.9622 33.0473 14.4065 33.8006 14.7788 34.4318C15.0335 34.8637 15.2546 35.2384 15.3959 35.478C15.4992 35.6532 15.5599 35.7561 15.5599 35.7561C16.3549 37.1039 18.092 37.552 19.4398 36.757C20.7876 35.962 21.2358 34.2249 20.4407 32.8771C20.4407 32.8771 20.3117 32.6584 20.092 32.2859Z" fill="#FFC76D"/>
</g>
<g id="Union_2">
<path d="M34.0003 11.3346C29.3367 11.3346 25.0099 12.74 21.4097 15.1499C20.1094 16.0203 18.3496 15.6718 17.4791 14.3714C16.6087 13.0711 16.9572 11.3113 18.2576 10.4408C22.7613 7.42613 28.1798 5.66797 34.0003 5.66797C49.6484 5.66797 62.3337 18.3532 62.3337 34.0013C62.3337 38.5196 61.274 42.7985 59.387 46.5956C58.9245 47.5261 57.9897 48.1289 56.9513 48.1661C55.9128 48.2034 54.9372 47.6692 54.4093 46.7741L48.5599 36.8575C47.7649 35.5096 48.213 33.7726 49.5608 32.9775C50.9086 32.1825 52.6457 32.6307 53.4407 33.9785L56.1919 38.6427C56.5033 37.1456 56.667 35.5933 56.667 34.0013C56.667 21.4828 46.5188 11.3346 34.0003 11.3346Z" fill="url(#paint0_linear_4429_208946)"/>
<path d="M13.5914 21.2285C13.0634 20.3334 12.0879 19.7992 11.0494 19.8365C10.0109 19.8737 9.07613 20.4765 8.61367 21.407C6.72668 25.2041 5.66699 29.483 5.66699 34.0013C5.66699 49.6494 18.3523 62.3346 34.0003 62.3346C39.7892 62.3346 45.1805 60.5955 49.6697 57.6107C50.9728 56.7443 51.3268 54.9856 50.4604 53.6826C49.594 52.3795 47.8353 52.0255 46.5322 52.8919C42.9438 55.2778 38.6387 56.668 34.0003 56.668C21.4819 56.668 11.3337 46.5198 11.3337 34.0013C11.3337 32.4093 11.4974 30.857 11.8087 29.3599L14.5599 34.0241C15.3549 35.3719 17.092 35.8201 18.4398 35.0251C19.7876 34.2301 20.2358 32.493 19.4407 31.1452L13.5914 21.2285Z" fill="url(#paint1_linear_4429_208946)"/>
</g>
</g>
<defs>
<filter id="filter0_d_4429_208946" x="4.11699" y="6.5499" width="65.1665" height="65.1665" filterUnits="userSpaceOnUse" color-interpolation-filters="sRGB">
<feFlood flood-opacity="0" result="BackgroundImageFix"/>
<feColorMatrix in="SourceAlpha" type="matrix" values="0 0 0 0 0 0 0 0 0 0 0 0 0 0 0 0 0 0 127 0" result="hardAlpha"/>
<feOffset dx="1.7" dy="3.4"/>
<feGaussianBlur stdDeviation="2.125"/>
<feComposite in2="hardAlpha" operator="out"/>
<feColorMatrix type="matrix" values="0 0 0 0 0.921667 0 0 0 0 0.638396 0 0 0 0 0.448544 0 0 0 1 0"/>
<feBlend mode="normal" in2="BackgroundImageFix" result="effect1_dropShadow_4429_208946"/>
<feBlend mode="normal" in="SourceGraphic" in2="effect1_dropShadow_4429_208946" result="shape"/>
</filter>
<linearGradient id="paint0_linear_4429_208946" x1="15.9333" y1="14.4467" x2="60.5423" y2="34.273" gradientUnits="userSpaceOnUse">
<stop stop-color="white"/>
<stop offset="0.497136" stop-color="#FFE8C3"/>
<stop offset="1" stop-color="white"/>
</linearGradient>
<linearGradient id="paint1_linear_4429_208946" x1="15.9333" y1="14.4467" x2="60.5423" y2="34.273" gradientUnits="userSpaceOnUse">
<stop stop-color="white"/>
<stop offset="0.497136" stop-color="#FFE8C3"/>
<stop offset="1" stop-color="white"/>
</linearGradient>
<clipPath id="clip0_4429_208946">
<rect width="68" height="68" fill="white"/>
</clipPath>
</defs>
</svg>
