<svg width="24" height="24" viewBox="0 0 24 24" fill="none" xmlns="http://www.w3.org/2000/svg">
<g id="icon/&#233;&#128;&#154;&#231;&#148;&#168;/&#230;&#155;&#180;&#229;&#164;&#154;-&#231;&#171;&#150;&#229;&#144;&#145;-&#229;&#164;&#167;">
<g id="Union">
<path d="M12 3C10.9 3 10 3.9 10 5C10 6.1 10.9 7 12 7C13.1 7 14 6.1 14 5C14 3.9 13.1 3 12 3Z" fill="black" fill-opacity="0.88"/>
<path d="M12 17C10.9 17 10 17.9 10 19C10 20.1 10.9 21 12 21C13.1 21 14 20.1 14 19C14 17.9 13.1 17 12 17Z" fill="black" fill-opacity="0.88"/>
<path d="M12 10C10.9 10 10 10.9 10 12C10 13.1 10.9 14 12 14C13.1 14 14 13.1 14 12C14 10.9 13.1 10 12 10Z" fill="black" fill-opacity="0.88"/>
</g>
</g>
</svg>
