<?xml version="1.0" standalone="no"?>
<svg xmlns="http://www.w3.org/2000/svg" width="24" height="24"><rect width="24" height="24" opacity="0"></rect><g><path d="M12 6.5Q13.49 6.5 14.75 7.25Q16.01 7.99 16.75 9.25Q17.5 10.51 17.5 12Q17.5 13.49 16.75 14.75Q16.01 16.01 14.75 16.75Q13.49 17.5 12 17.5Q10.51 17.5 9.24 16.75Q7.97 16.01 7.24 14.75Q6.5 13.49 6.5 12Q6.5 10.51 7.24 9.25Q7.97 7.99 9.24 7.25Q10.51 6.5 12 6.5ZM12 4.99Q10.1 4.99 8.5 5.94Q6.89 6.89 5.94 8.5Q4.99 10.1 4.99 12Q4.99 13.9 5.94 15.5Q6.89 17.11 8.5 18.06Q10.1 19.01 12 19.01Q13.9 19.01 15.5 18.06Q17.11 17.11 18.06 15.5Q19.01 13.9 19.01 12Q19.01 10.1 18.06 8.5Q17.11 6.89 15.5 5.94Q13.9 4.99 12 4.99ZM12 4.01Q12.31 4.01 12.53 3.79Q12.74 3.58 12.74 3.29L12.74 2.21Q12.74 1.92 12.53 1.7Q12.31 1.49 12 1.49Q11.69 1.49 11.46 1.7Q11.23 1.92 11.23 2.21L11.23 3.29Q11.23 3.58 11.46 3.79Q11.69 4.01 12 4.01ZM6.34 6.36Q6.55 6.12 6.56 5.82Q6.58 5.52 6.36 5.33L5.59 4.56Q5.4 4.34 5.1 4.36Q4.8 4.37 4.58 4.58Q4.34 4.8 4.34 5.1Q4.34 5.4 4.54 5.62L5.3 6.38Q5.5 6.58 5.81 6.58Q6.12 6.58 6.34 6.36ZM4.01 12Q4.01 11.69 3.79 11.47Q3.58 11.26 3.29 11.26L2.21 11.26Q1.92 11.26 1.72 11.47Q1.51 11.69 1.51 12Q1.51 12.31 1.72 12.54Q1.92 12.77 2.21 12.77L3.29 12.77Q3.58 12.77 3.79 12.54Q4.01 12.31 4.01 12ZM6.34 17.66Q6.12 17.45 5.82 17.44Q5.52 17.42 5.33 17.64L4.56 18.38Q4.34 18.6 4.36 18.9Q4.37 19.2 4.58 19.42Q4.8 19.63 5.11 19.64Q5.42 19.66 5.62 19.44L6.38 18.7Q6.58 18.48 6.58 18.18Q6.58 17.88 6.34 17.66ZM12 19.99Q11.69 19.99 11.47 20.21Q11.26 20.42 11.26 20.71L11.26 21.79Q11.26 22.08 11.47 22.28Q11.69 22.49 12 22.49Q12.31 22.49 12.54 22.28Q12.77 22.08 12.77 21.79L12.77 20.71Q12.77 20.42 12.54 20.21Q12.31 19.99 12 19.99ZM17.66 17.64Q17.45 17.86 17.44 18.17Q17.42 18.48 17.62 18.67L18.38 19.44Q18.6 19.66 18.9 19.64Q19.2 19.63 19.42 19.42Q19.63 19.2 19.64 18.89Q19.66 18.58 19.44 18.38L18.7 17.62Q18.48 17.4 18.18 17.41Q17.88 17.42 17.66 17.64ZM19.99 12Q19.99 12.31 20.21 12.53Q20.42 12.74 20.71 12.74L21.79 12.74Q22.08 12.74 22.3 12.53Q22.51 12.31 22.51 12Q22.51 11.69 22.3 11.46Q22.08 11.23 21.79 11.23L20.71 11.23Q20.42 11.23 20.21 11.46Q19.99 11.69 19.99 12ZM17.64 6.34Q17.88 6.55 18.18 6.56Q18.48 6.58 18.67 6.36L19.44 5.62Q19.63 5.4 19.63 5.1Q19.63 4.8 19.42 4.58Q19.2 4.37 18.89 4.36Q18.58 4.34 18.36 4.56L17.62 5.3Q17.42 5.52 17.42 5.82Q17.42 6.12 17.64 6.34Z" fill="rgba(0,0,0,0.9019607843137255)"></path></g></svg>