<svg width="20" height="20" viewBox="0 0 20 20" fill="none" xmlns="http://www.w3.org/2000/svg">
    <path d="M8.33325 14.5832C7.87301 14.5832 7.49992 14.9563 7.49992 15.4165C7.49992 15.8767 7.87301 16.2498 8.33325 16.2498H11.6666C12.1268 16.2498 12.4999 15.8767 12.4999 15.4165C12.4999 14.9563 12.1268 14.5832 11.6666 14.5832H8.33325Z" fill="black" fill-opacity="0.88"/>
    <path fill-rule="evenodd" clip-rule="evenodd" d="M3.33325 4.1665C3.33325 2.78579 4.45254 1.6665 5.83325 1.6665H14.1666C15.5473 1.6665 16.6666 2.78579 16.6666 4.1665V15.8332C16.6666 17.2139 15.5473 18.3332 14.1666 18.3332H5.83325C4.45254 18.3332 3.33325 17.2139 3.33325 15.8332V4.1665ZM5.83325 3.33317C5.37301 3.33317 4.99992 3.70627 4.99992 4.1665V15.8332C4.99992 16.2934 5.37301 16.6665 5.83325 16.6665H14.1666C14.6268 16.6665 14.9999 16.2934 14.9999 15.8332V4.1665C14.9999 3.70627 14.6268 3.33317 14.1666 3.33317H12.0833C12.0833 3.79341 11.7102 4.1665 11.2499 4.1665H8.74992C8.28968 4.1665 7.91659 3.79341 7.91659 3.33317H5.83325Z" fill="black" fill-opacity="0.88"/>
</svg>
