<svg width="24" height="24" viewBox="0 0 24 24" fill="none" xmlns="http://www.w3.org/2000/svg">
<g id="icon/&#229;&#170;&#146;&#228;&#189;&#147;/&#231;&#155;&#174;&#229;&#189;&#149;">
<path id="Union" fill-rule="evenodd" clip-rule="evenodd" d="M3.61965 1.8536C3.84869 1.71883 4.13193 1.71533 4.36423 1.84438L8.86423 4.34438C9.10233 4.47666 9.25 4.72762 9.25 5C9.25 5.27238 9.10233 5.52334 8.86423 5.65562L4.36423 8.15562C4.13193 8.28467 3.84869 8.28117 3.61965 8.1464C3.39062 8.01164 3.25 7.76574 3.25 7.5V2.5C3.25 2.23426 3.39062 1.98836 3.61965 1.8536ZM12 4.25C11.5858 4.25 11.25 4.58579 11.25 5C11.25 5.41421 11.5858 5.75 12 5.75H20C20.4142 5.75 20.75 5.41421 20.75 5C20.75 4.58579 20.4142 4.25 20 4.25H12ZM4 11.25C3.58579 11.25 3.25 11.5858 3.25 12C3.25 12.4142 3.58579 12.75 4 12.75H20C20.4142 12.75 20.75 12.4142 20.75 12C20.75 11.5858 20.4142 11.25 20 11.25H4ZM3.25 19C3.25 18.5858 3.58579 18.25 4 18.25H20C20.4142 18.25 20.75 18.5858 20.75 19C20.75 19.4142 20.4142 19.75 20 19.75H4C3.58579 19.75 3.25 19.4142 3.25 19Z" fill="black"/>
</g>
</svg>
