<svg width="24" height="24" viewBox="0 0 24 24" fill="none" xmlns="http://www.w3.org/2000/svg">
<g id="icon/&#233;&#128;&#154;&#231;&#148;&#168;/&#232;&#167;&#163;&#230;&#149;&#163;">
<g id="Union">
<path d="M6 3C4.34315 3 3 4.34315 3 6V18C3 19.6569 4.34315 21 6 21H9C9.55228 21 10 20.5523 10 20C10 19.4477 9.55228 19 9 19H6C5.44772 19 5 18.5523 5 18V6C5 5.44772 5.44772 5 6 5H18C18.5523 5 19 5.44772 19 6V9C19 9.55228 19.4477 10 20 10C20.5523 10 21 9.55228 21 9V6C21 4.34315 19.6569 3 18 3H6Z" fill="black" fill-opacity="0.65"/>
<path d="M14.7071 13.2929C14.3166 12.9024 13.6834 12.9024 13.2929 13.2929C12.9024 13.6834 12.9024 14.3166 13.2929 14.7071L15.5858 17L13.2929 19.2929C12.9024 19.6834 12.9024 20.3166 13.2929 20.7071C13.6834 21.0976 14.3166 21.0976 14.7071 20.7071L17 18.4142L19.2929 20.7071C19.6834 21.0976 20.3166 21.0976 20.7071 20.7071C21.0976 20.3166 21.0976 19.6834 20.7071 19.2929L18.4142 17L20.7071 14.7071C21.0976 14.3166 21.0976 13.6834 20.7071 13.2929C20.3166 12.9024 19.6834 12.9024 19.2929 13.2929L17 15.5858L14.7071 13.2929Z" fill="black" fill-opacity="0.65"/>
</g>
</g>
</svg>
