<svg width="16" height="16" viewBox="0 0 16 16" fill="none" xmlns="http://www.w3.org/2000/svg">
<g id="icon/&#233;&#128;&#154;&#231;&#148;&#168;/&#229;&#184;&#174;&#229;&#138;&#169;">
<g id="Union">
<path d="M7.99992 5.33334C7.4264 5.33334 6.99992 5.72241 6.99992 6.33334C6.99992 6.70153 6.70144 7 6.33325 7C5.96506 7 5.66659 6.70153 5.66659 6.33334C5.66659 4.94426 6.73249 4 7.99992 4C9.28858 4 10.3333 5.04467 10.3333 6.33334C10.3333 7.36306 9.6427 7.87216 9.21556 8.17116C9.18047 8.19572 9.14764 8.21857 9.11685 8.24C8.9352 8.36643 8.82425 8.44365 8.7394 8.53133C8.66841 8.60469 8.66659 8.63431 8.66659 8.66667V8.99976C8.66659 9.36795 8.36811 9.66667 7.99992 9.66667C7.63173 9.66667 7.33325 9.36819 7.33325 9V8.66692C7.33325 8.19928 7.53977 7.85365 7.78127 7.6041C7.96533 7.4139 8.20074 7.2516 8.37382 7.13228C8.40117 7.11341 8.42715 7.0955 8.45094 7.07885C8.85714 6.79452 8.99992 6.63695 8.99992 6.33334C8.99992 5.78105 8.5522 5.33334 7.99992 5.33334Z" fill="black" fill-opacity="0.45"/>
<path d="M7.99992 12C8.46016 12 8.83325 11.6269 8.83325 11.1667C8.83325 10.7064 8.46016 10.3333 7.99992 10.3333C7.53968 10.3333 7.16659 10.7064 7.16659 11.1667C7.16659 11.6269 7.53968 12 7.99992 12Z" fill="black" fill-opacity="0.45"/>
<path fill-rule="evenodd" clip-rule="evenodd" d="M1.33325 8C1.33325 4.3181 4.31802 1.33334 7.99992 1.33334C11.6818 1.33334 14.6666 4.3181 14.6666 8C14.6666 11.6819 11.6818 14.6667 7.99992 14.6667C4.31802 14.6667 1.33325 11.6819 1.33325 8ZM7.99992 2.66667C5.0544 2.66667 2.66659 5.05448 2.66659 8C2.66659 10.9455 5.0544 13.3333 7.99992 13.3333C10.9454 13.3333 13.3333 10.9455 13.3333 8C13.3333 5.05448 10.9454 2.66667 7.99992 2.66667Z" fill="black" fill-opacity="0.45"/>
</g>
</g>
</svg>
