<svg width="24" height="24" viewBox="0 0 24 24" fill="none" xmlns="http://www.w3.org/2000/svg">
<g id="icon/&#230;&#150;&#185;&#229;&#144;&#145;/&#228;&#184;&#139;&#232;&#189;&#189;">
<g id="Union">
<path d="M12 2C12.5523 2 13 2.44772 13 3V13.5858L17.2929 9.29289C17.6834 8.90237 18.3166 8.90237 18.7071 9.29289C19.0976 9.68342 19.0976 10.3166 18.7071 10.7071L12.7078 16.7064C12.5268 16.8878 12.2765 17 12 17C11.7293 17 11.4838 16.8925 11.3037 16.7178C11.3001 16.7143 11.2965 16.7107 11.2929 16.7071L5.29289 10.7071C4.90237 10.3166 4.90237 9.68342 5.29289 9.29289C5.68342 8.90237 6.31658 8.90237 6.70711 9.29289L11 13.5858L11 3C11 2.44772 11.4477 2 12 2Z" fill="black" fill-opacity="0.65"/>
<path d="M19 20C19 20.5523 18.5523 21 18 21H6C5.44772 21 5 20.5523 5 20C5 19.4477 5.44772 19 6 19H18C18.5523 19 19 19.4477 19 20Z" fill="black" fill-opacity="0.65"/>
</g>
</g>
</svg>
