<svg width="18" height="17" viewBox="0 0 18 17" fill="none" xmlns="http://www.w3.org/2000/svg">
<path d="M9.00008 0.666992C9.46032 0.666992 9.83342 1.04009 9.83342 1.50033V9.48848L12.1608 7.16107C12.4863 6.83563 13.0139 6.83563 13.3393 7.16107C13.6648 7.48651 13.6648 8.01414 13.3393 8.33958L9.58934 12.0896C9.2639 12.415 8.73626 12.415 8.41083 12.0896L4.66083 8.33958C4.33539 8.01414 4.33539 7.48651 4.66083 7.16107C4.98626 6.83563 5.5139 6.83563 5.83934 7.16107L8.16675 9.48848V1.50033C8.16675 1.04009 8.53984 0.666992 9.00008 0.666992Z" fill="black" fill-opacity="0.88"/>
<path d="M16.5001 7.33366C16.9603 7.33366 17.3334 7.70675 17.3334 8.16699V14.0003C17.3334 15.381 16.2141 16.5003 14.8334 16.5003H3.16675C1.78604 16.5003 0.666748 15.381 0.666748 14.0003V8.16699C0.666748 7.70675 1.03984 7.33366 1.50008 7.33366C1.96032 7.33366 2.33341 7.70675 2.33341 8.16699L2.33341 14.0003C2.33341 14.4606 2.70651 14.8337 3.16675 14.8337H14.8334C15.2937 14.8337 15.6667 14.4606 15.6667 14.0003V8.16699C15.6667 7.70675 16.0398 7.33366 16.5001 7.33366Z" fill="black" fill-opacity="0.88"/>
</svg>
