<svg width="24" height="24" viewBox="0 0 24 24" fill="none" xmlns="http://www.w3.org/2000/svg">
<g id="icon/&#229;&#170;&#146;&#228;&#189;&#147;/&#229;&#191;&#171;&#232;&#191;&#155;">
<path id="Union" fill-rule="evenodd" clip-rule="evenodd" d="M19.3337 8.21721C17.9612 5.56218 15.1916 3.75 11.9999 3.75C7.44359 3.75 3.74994 7.44365 3.74994 12C3.74994 16.5563 7.44359 20.25 11.9999 20.25C15.1916 20.25 17.9612 18.4378 19.3337 15.7828C19.5239 15.4148 19.9764 15.2707 20.3444 15.461C20.7123 15.6512 20.8564 16.1037 20.6662 16.4716C19.0462 19.6053 15.7742 21.75 11.9999 21.75C6.61516 21.75 2.24994 17.3848 2.24994 12C2.24994 6.61522 6.61516 2.25 11.9999 2.25C14.8789 2.25 17.4657 3.49794 19.2499 5.48084V4C19.2499 3.58579 19.5857 3.25 19.9999 3.25C20.4142 3.25 20.7499 3.58579 20.7499 4V7.8728C20.7499 8.21875 20.5133 8.51981 20.1772 8.60156C19.841 8.68331 19.4926 8.52452 19.3337 8.21721ZM9.09251 8.4L7.40251 9.3V10.42L8.88251 9.63V15.6H10.1525V8.4H9.09251ZM12.4529 13.83L11.6429 14.49C12.1529 15.31 12.9329 15.72 13.9929 15.72C14.7229 15.72 15.3329 15.5 15.8029 15.05C16.2729 14.6 16.5029 14.01 16.5029 13.27C16.5029 12.63 16.2929 12.1 15.8829 11.68C15.4729 11.27 14.9429 11.06 14.3129 11.06C13.8629 11.06 13.4829 11.12 13.1229 11.39L13.2629 9.5H16.1329V8.4H12.1829L11.9129 12.25L12.7129 12.58C13.0329 12.19 13.4429 12 13.9429 12C14.7129 12 15.2729 12.51 15.2729 13.31C15.2729 14.16 14.7229 14.68 13.9129 14.68C13.2829 14.68 12.8029 14.4 12.4529 13.83Z" fill="white"/>
</g>
</svg>
