<svg width="20" height="20" viewBox="0 0 20 20" fill="none" xmlns="http://www.w3.org/2000/svg">
<g id="icon/&#233;&#128;&#154;&#231;&#148;&#168;/&#229;&#184;&#174;&#229;&#138;&#169;-fill">
<path id="Union" fill-rule="evenodd" clip-rule="evenodd" d="M10.0007 18.3332C14.6031 18.3332 18.334 14.6022 18.334 9.99984C18.334 5.39746 14.6031 1.6665 10.0007 1.6665C5.39832 1.6665 1.66736 5.39746 1.66736 9.99984C1.66736 14.6022 5.39832 18.3332 10.0007 18.3332ZM10.0007 6.6665C9.28379 6.6665 8.75069 7.15285 8.75069 7.9165C8.75069 8.37674 8.3776 8.74984 7.91736 8.74984C7.45712 8.74984 7.08403 8.37674 7.08403 7.9165C7.08403 6.18016 8.41641 4.99984 10.0007 4.99984C11.6115 4.99984 12.9174 6.30567 12.9174 7.9165C12.9174 9.20366 12.0542 9.84003 11.5202 10.2138C11.4762 10.2446 11.4351 10.2732 11.3965 10.3001C11.1694 10.4581 11.0311 10.5544 10.925 10.664C10.8363 10.7557 10.834 10.7927 10.834 10.8332V11.2495C10.834 11.7098 10.4609 12.0832 10.0007 12.0832C9.54046 12.0832 9.16736 11.7101 9.16736 11.2498V10.8335C9.16736 10.2489 9.4255 9.81689 9.72738 9.50496C9.95745 9.26721 10.2517 9.06433 10.4681 8.91518C10.5023 8.89155 10.5347 8.86925 10.5645 8.84839C11.0722 8.49298 11.2507 8.29602 11.2507 7.9165C11.2507 7.22615 10.691 6.6665 10.0007 6.6665ZM11.0424 13.9582C11.0424 14.5335 10.576 14.9998 10.0007 14.9998C9.4254 14.9998 8.95903 14.5335 8.95903 13.9582C8.95903 13.3829 9.4254 12.9165 10.0007 12.9165C10.576 12.9165 11.0424 13.3829 11.0424 13.9582Z" fill="black" fill-opacity="0.25"/>
</g>
</svg>
