<svg width="40" height="40" viewBox="0 0 40 40" fill="none" xmlns="http://www.w3.org/2000/svg">
<path d="M4 31V9C4 6.79086 5.79086 5 8 5H15.7352C17.1403 5 18.4423 5.7372 19.1652 6.94202L19.8348 8.05798C20.5577 9.2628 21.8597 10 23.2648 10H32C34.2091 10 36 11.7909 36 14V31C36 33.2091 34.2091 35 32 35H8C5.79086 35 4 33.2091 4 31Z" fill="white"/>
<path d="M4 31V9C4 6.79086 5.79086 5 8 5H15.7352C17.1403 5 18.4423 5.7372 19.1652 6.94202L19.8348 8.05798C20.5577 9.2628 21.8597 10 23.2648 10H32C34.2091 10 36 11.7909 36 14V31C36 33.2091 34.2091 35 32 35H8C5.79086 35 4 33.2091 4 31Z" fill="url(#paint0_linear_5453_19016)"/>
<path d="M13 22.5C13 21.6716 13.6716 21 14.5 21H25.5C26.3284 21 27 21.6716 27 22.5C27 23.3284 26.3284 24 25.5 24H14.5C13.6716 24 13 23.3284 13 22.5Z" fill="white"/>
<defs>
<linearGradient id="paint0_linear_5453_19016" x1="20" y1="5" x2="28.436" y2="36.9944" gradientUnits="userSpaceOnUse">
<stop stop-color="#FF6600" stop-opacity="0.6"/>
<stop offset="1" stop-color="#FF6600" stop-opacity="0.3"/>
</linearGradient>
</defs>
</svg>
