<svg width="20" height="20" viewBox="0 0 20 20" fill="none" xmlns="http://www.w3.org/2000/svg">
<g id="icon/&#230;&#150;&#185;&#229;&#144;&#145;/&#233;&#128;&#128;&#229;&#135;&#186;">
<g id="Union">
<path d="M1.6665 4.16675C1.6665 2.78604 2.78579 1.66675 4.1665 1.66675H9.99984C10.4601 1.66675 10.8332 2.03984 10.8332 2.50008C10.8332 2.96032 10.4601 3.33341 9.99984 3.33341H4.1665C3.70627 3.33341 3.33317 3.70651 3.33317 4.16675V15.8334C3.33317 16.2937 3.70627 16.6667 4.1665 16.6667H9.99984C10.4601 16.6667 10.8332 17.0398 10.8332 17.5001C10.8332 17.9603 10.4601 18.3334 9.99984 18.3334H4.1665C2.78579 18.3334 1.6665 17.2141 1.6665 15.8334V4.16675Z" fill="#EF4444"/>
<path d="M13.1606 5.66083C13.486 5.33539 14.0137 5.33539 14.3391 5.66083L18.0421 9.36385C18.2203 9.51668 18.3332 9.74347 18.3332 9.99662L18.3332 9.99826C18.3336 10.2121 18.2523 10.4262 18.0891 10.5893L14.3391 14.3393C14.0137 14.6648 13.486 14.6648 13.1606 14.3393C12.8351 14.0139 12.8351 13.4863 13.1606 13.1608L15.4915 10.83H6.6665C6.20627 10.83 5.83317 10.4569 5.83317 9.99662C5.83317 9.53639 6.20627 9.16329 6.6665 9.16329H15.4845L13.1606 6.83934C12.8351 6.5139 12.8351 5.98626 13.1606 5.66083Z" fill="#EF4444"/>
</g>
</g>
</svg>
