<svg width="24" height="24" viewBox="0 0 24 24" fill="none" xmlns="http://www.w3.org/2000/svg">
    <path d="M11 11C11 10.4477 10.5523 10 10 10C9.44772 10 9 10.4477 9 11V16C9 16.5523 9.44772 17 10 17C10.5523 17 11 16.5523 11 16V11Z" fill="black" fill-opacity="0.65"/>
    <path d="M15 11C15 10.4477 14.5523 10 14 10C13.4477 10 13 10.4477 13 11V16C13 16.5523 13.4477 17 14 17C14.5523 17 15 16.5523 15 16V11Z" fill="black" fill-opacity="0.65"/>
    <path fill-rule="evenodd" clip-rule="evenodd" d="M7.33125 3.45056C7.57657 2.59196 8.36134 2 9.2543 2H14.7457C15.6387 2 16.4234 2.59195 16.6687 3.45056L17.2543 5.5H21C21.5523 5.5 22 5.94772 22 6.5C22 7.05228 21.5523 7.5 21 7.5H19.4334L18.6261 19.2064C18.5176 20.7794 17.2099 22 15.6332 22H8.36682C6.79007 22 5.48241 20.7794 5.37393 19.2064L4.56659 7.5H3C2.44772 7.5 2 7.05228 2 6.5C2 5.94772 2.44772 5.5 3 5.5H6.7457L7.33125 3.45056ZM17.4287 7.5L16.6308 19.0688C16.5946 19.5931 16.1588 20 15.6332 20H8.36682C7.84124 20 7.40535 19.5931 7.36919 19.0688L6.57134 7.5H17.4287ZM14.7457 4L15.1743 5.5H8.82573L9.2543 4L14.7457 4Z" fill="black" fill-opacity="0.65"/>
</svg>
