<svg width="20" height="20" viewBox="0 0 20 20" fill="none" xmlns="http://www.w3.org/2000/svg">
    <path d="M2.00034 10.9255C2.00034 9.74984 2.37432 8.51686 3.12229 7.22654C3.90277 5.93622 4.84586 4.86095 5.95155 4.00073L7.75643 4.60288C7.00846 5.60647 6.48814 6.50969 6.19546 7.31256C5.90277 8.08675 5.72391 8.96131 5.65887 9.93622H9.02473V16.0007H2.00034V10.9255ZM11.0247 10.9255C11.0247 9.74984 11.3987 8.51686 12.1467 7.22654C12.9272 5.93622 13.9028 4.86095 15.0735 4.00073L16.8296 4.60288C16.0491 5.60647 15.5125 6.50969 15.2198 7.31256C14.9597 8.08675 14.7971 8.96131 14.732 9.93622H18.0003V16.0007H11.0247V10.9255Z" fill="black" fill-opacity="0.25"/>
</svg>
