<svg width="24" height="24" viewBox="0 0 24 24" fill="none" xmlns="http://www.w3.org/2000/svg">
    <path fill-rule="evenodd" clip-rule="evenodd" d="M16.0548 2.29305C15.8672 2.10537 15.6127 1.99995 15.3474 2C15.082 2.00005 14.8275 2.10557 14.64 2.29332L4.29247 12.6533C4.10519 12.8408 4 13.0949 4 13.36V17C4 17.5523 4.44772 18 5 18H8.6586C8.92389 18 9.17831 17.8946 9.36586 17.707L19.7073 7.361C20.0976 6.97051 20.0976 6.33759 19.7073 5.9471L16.0548 2.29305ZM6 13.7738L15.3478 4.41479L17.5861 6.65405L8.24426 16H6V13.7738Z" fill="black" fill-opacity="0.88"/>
    <path d="M3 20C2.44772 20 2 20.4477 2 21C2 21.5523 2.44772 22 3 22H21C21.5523 22 22 21.5523 22 21C22 20.4477 21.5523 20 21 20H3Z" fill="black" fill-opacity="0.88"/>
</svg>
