<svg width="16" height="18" viewBox="0 0 16 18" fill="none" xmlns="http://www.w3.org/2000/svg">
<path d="M5.5 4.83366C5.03976 4.83366 4.66667 5.20676 4.66667 5.66699C4.66667 6.12723 5.03976 6.50033 5.5 6.50033H10.5C10.9602 6.50033 11.3333 6.12723 11.3333 5.66699C11.3333 5.20676 10.9602 4.83366 10.5 4.83366H5.5Z" fill="black" fill-opacity="0.88"/>
<path d="M4.66667 9.00033C4.66667 8.54009 5.03976 8.16699 5.5 8.16699H10.5C10.9602 8.16699 11.3333 8.54009 11.3333 9.00033C11.3333 9.46056 10.9602 9.83366 10.5 9.83366H5.5C5.03976 9.83366 4.66667 9.46056 4.66667 9.00033Z" fill="black" fill-opacity="0.88"/>
<path d="M5.5 11.5003C5.03976 11.5003 4.66667 11.8734 4.66667 12.3337C4.66667 12.7939 5.03976 13.167 5.5 13.167H8C8.46024 13.167 8.83333 12.7939 8.83333 12.3337C8.83333 11.8734 8.46024 11.5003 8 11.5003H5.5Z" fill="black" fill-opacity="0.88"/>
<path fill-rule="evenodd" clip-rule="evenodd" d="M3 0.666992C1.61929 0.666992 0.5 1.78628 0.5 3.16699V14.8337C0.5 16.2144 1.61929 17.3337 3 17.3337H13C14.3807 17.3337 15.5 16.2144 15.5 14.8337V3.16699C15.5 1.78628 14.3807 0.666992 13 0.666992H3ZM2.16667 3.16699C2.16667 2.70675 2.53976 2.33366 3 2.33366H13C13.4602 2.33366 13.8333 2.70675 13.8333 3.16699V14.8337C13.8333 15.2939 13.4602 15.667 13 15.667H3C2.53976 15.667 2.16667 15.2939 2.16667 14.8337V3.16699Z" fill="black" fill-opacity="0.88"/>
</svg>
