<svg width="20" height="20" viewBox="0 0 20 20" fill="none" xmlns="http://www.w3.org/2000/svg">
<path d="M2.5 4.16699C2.5 2.78628 3.61929 1.66699 5 1.66699H15C16.3807 1.66699 17.5 2.78628 17.5 4.16699V15.8337C17.5 17.2144 16.3807 18.3337 15 18.3337H5C3.61929 18.3337 2.5 17.2144 2.5 15.8337V13.7503C2.5 13.2901 2.8731 12.917 3.33333 12.917C3.79357 12.917 4.16667 13.2901 4.16667 13.7503V15.8337C4.16667 16.2939 4.53976 16.667 5 16.667H15C15.4602 16.667 15.8333 16.2939 15.8333 15.8337V4.16699C15.8333 3.70675 15.4602 3.33366 15 3.33366H5C4.53976 3.33366 4.16667 3.70675 4.16667 4.16699V6.25033C4.16667 6.71056 3.79357 7.08366 3.33333 7.08366C2.8731 7.08366 2.5 6.71056 2.5 6.25033V4.16699Z" fill="black" fill-opacity="0.88"/>
<path d="M2.5 10.0003C2.5 9.54009 2.8731 9.16699 3.33333 9.16699H9.65482L8.57741 8.08958C8.25197 7.76414 8.25197 7.23651 8.57741 6.91107C8.90285 6.58563 9.43049 6.58563 9.75592 6.91107L12.2559 9.41107C12.5814 9.73651 12.5814 10.2641 12.2559 10.5896L9.75592 13.0896C9.43049 13.415 8.90285 13.415 8.57741 13.0896C8.25197 12.7641 8.25197 12.2365 8.57741 11.9111L9.65482 10.8337H3.33333C2.8731 10.8337 2.5 10.4606 2.5 10.0003Z" fill="black" fill-opacity="0.88"/>
</svg>
