<svg width="30" height="20" viewBox="0 0 30 20" fill="none" xmlns="http://www.w3.org/2000/svg">
<path id="Union" fill-rule="evenodd" clip-rule="evenodd" d="M16.25 0H17.5H20L19.1058 1.78397C18.9055 2.20699 18.4746 2.49957 17.9755 2.49957C17.8282 2.49957 17.6653 2.49959 17.5 2.49962V2.5H16.25L5.00001 2.5C4.6717 2.5 4.34661 2.56466 4.0433 2.6903C3.73998 2.81594 3.46438 3.00009 3.23224 3.23223C3.00009 3.46438 2.81594 3.73998 2.69031 4.04329C2.56467 4.3466 2.5 4.6717 2.5 5V7.5C2.5 7.8283 2.56467 8.15339 2.69031 8.45671C2.81594 8.76002 3.00009 9.03562 3.23224 9.26777C3.46438 9.49991 3.73998 9.68406 4.0433 9.8097C4.34661 9.93534 4.6717 10 5.00001 10H11.25H12.5H15L14.1058 11.784C13.9055 12.207 13.4746 12.4996 12.9755 12.4996L12.5 12.4996V12.5H11.25H5.00001C4.66849 12.5 4.35054 12.6317 4.11612 12.8661C3.8817 13.1005 3.75 13.4185 3.75 13.75C3.75 14.0815 3.8817 14.3995 4.11612 14.6339C4.35054 14.8683 4.66849 15 5.00001 15L5.00001 17.5C4.00544 17.5 3.05161 17.1049 2.34835 16.4016C1.64509 15.6984 1.25 14.7446 1.25 13.75C1.25 12.9339 1.516 12.1453 1.99999 11.5C1.81114 11.3583 1.63214 11.2032 1.46447 11.0355C1.00017 10.5712 0.631877 10.02 0.380603 9.41342C0.129329 8.80679 0 8.15661 0 7.5V5C0 4.34339 0.129329 3.69321 0.380603 3.08658C0.631877 2.47995 1.00017 1.92876 1.46447 1.46447C1.92876 1.00017 2.47996 0.631876 3.08659 0.380602C3.69322 0.129329 4.3434 0 5.00001 0H16.25ZM17.5 5L18.3942 3.21603C18.5946 2.79301 19.0254 2.50043 19.5246 2.50043C20.2149 2.50043 21.25 2.5 21.25 2.5H25C25.9946 2.5 26.9484 2.89509 27.6517 3.59835C28.355 4.30161 28.75 5.25544 28.75 6.25C28.75 7.06607 28.484 7.85471 28.0001 8.50001C28.1889 8.64165 28.3679 8.7968 28.5356 8.96447C28.9999 9.42876 29.3682 9.97995 29.6194 10.5866C29.8707 11.1932 30 11.8434 30 12.5V15C30 15.6566 29.8707 16.3068 29.6194 16.9134C29.3682 17.52 28.9999 18.0712 28.5356 18.5355C28.0713 18.9998 27.5201 19.3681 26.9135 19.6194C26.3068 19.8707 25.6566 20 25 20H13.75H12.5H10L10.8942 18.216C11.0946 17.793 11.5254 17.5004 12.0246 17.5004L12.5 17.5004V17.5H13.75H25C25.3283 17.5 25.6534 17.4353 25.9567 17.3097C26.2601 17.1841 26.5357 16.9999 26.7678 16.7678C27 16.5356 27.1841 16.26 27.3097 15.9567C27.4354 15.6534 27.5 15.3283 27.5 15V12.5C27.5 12.1717 27.4354 11.8466 27.3097 11.5433C27.1841 11.24 27 10.9644 26.7678 10.7322C26.5357 10.5001 26.2601 10.3159 25.9567 10.1903C25.6534 10.0647 25.3283 10 25 10H18.75H17.5H15L15.8942 8.21603C16.0946 7.79301 16.5254 7.50043 17.0246 7.50043L17.5 7.50038V7.5H18.75H25C25.3316 7.5 25.6495 7.3683 25.8839 7.13388C26.1183 6.89946 26.25 6.58152 26.25 6.25C26.25 5.91848 26.1183 5.60054 25.8839 5.36612C25.6495 5.1317 25.3316 5 25 5H21.25H17.5ZM17.5 5L16.6058 6.78397C16.4055 7.20699 15.9746 7.49957 15.4755 7.49957L15 7.49962V7.5H13.75H6.25001C5.55965 7.5 5.00001 6.94036 5.00001 6.25C5.00001 5.55964 5.55965 5 6.25001 5H13.75H15H17.5ZM16.25 15H23.75C24.4404 15 25 14.4404 25 13.75C25 13.0596 24.4404 12.5 23.75 12.5H16.25H15V12.5004L14.5246 12.5004C14.0254 12.5004 13.5946 12.793 13.3942 13.216L12.5 15H8.75001H5.00001V17.5H8.75001C8.75001 17.5 9.78512 17.4996 10.4755 17.4996C10.9746 17.4996 11.4055 17.207 11.6058 16.784L12.5 15H15H16.25Z" fill="#FF6600"/>
</svg>
