<svg width="65" height="16" viewBox="0 0 65 16" fill="none" xmlns="http://www.w3.org/2000/svg">
<g id="&#229;&#188;&#128;&#230;&#186;&#144;&#233;&#152;&#133;&#232;&#175;&#187;">
<path id="Vector" d="M55.0217 13.7007C57.0873 13.3408 58.4922 12.741 59.2363 11.9013H54.8385V10.0202H59.736V5.7181H61.7849V10.0202H65V11.9013H61.5184L61.4185 12.0976L64.8501 13.488V15.4673L60.2191 13.5862C59.6083 14.0987 58.8531 14.5131 57.9536 14.8293C57.054 15.1456 56.0768 15.3691 55.0217 15.5V13.7007ZM49.7744 5.32552H53.3559V12.1303L54.5053 11.6887V14.126L51.1904 15.3855V7.50109H49.7744V5.32552ZM52.8562 0.663578L54.0056 4.2132H51.7401L50.5907 0.663578H52.8562ZM55.0051 3.57525H58.8531V2.70829H55.5381V1.0398H58.8531V0.5H60.9854V1.0398H64.3003V2.70829H60.9854V3.57525H64.6668V6.86314H62.7345V5.40731H55.0051V3.57525ZM55.1383 7.74646L58.47 8.07361V9.56216L55.1383 9.23501V7.74646ZM55.838 5.81625L59.1863 6.1434V7.63195L55.838 7.3048V5.81625Z" fill="black" fill-opacity="0.88"/>
<path id="Vector_2" d="M47.9254 15.386H45.3101V13.2595H45.8265V3.05228H39.08V0.974858H47.9421L47.9254 15.386ZM33.7993 4.13189H35.8982V15.386H33.7993V4.13189ZM36.9477 0.664062L38.1304 3.36308H35.765L34.5823 0.664062H36.9477ZM36.1481 15.386C36.8033 14.6444 37.2809 13.9138 37.5807 13.194C37.8806 12.4743 38.0583 11.6946 38.1138 10.8549H36.7478V5.09699H37.9305L37.4141 3.64116H39.563L40.0628 5.09699H41.6453L42.1451 3.64116H44.294L43.7776 5.09699H44.9603V10.8549H43.611V13.2431H44.9103V15.3042H41.5787V10.8549H40.1294C40.085 11.6728 39.9462 12.447 39.713 13.1777C39.4909 13.9083 39.1632 14.6444 38.7301 15.386H36.1481ZM42.8614 8.92469V7.0272H38.8467V8.92469H42.8614Z" fill="black" fill-opacity="0.88"/>
<path id="Vector_3" d="M31.7004 0.89307V2.82328H28.7186V3.60845H31.4005V10.0534H28.7852V15.386H26.7862V10.0534H24.0043V3.60845H26.5863V2.82328H23.3713V8.46668C23.3713 9.77529 23.3158 10.9858 23.2047 12.0981C23.0937 13.2104 22.9049 14.3064 22.6383 15.386H20.3728C20.7282 14.2737 20.9725 13.1886 21.1058 12.1308C21.2502 11.0621 21.3223 9.84072 21.3223 8.46668V0.89307H31.7004ZM18.9902 15.386C19.7787 13.4558 20.3451 11.133 20.6893 8.41761H18.4571C18.1573 10.7186 17.5243 13.0414 16.5581 15.386H18.9902ZM20.6893 7.66515V5.47322L16.708 4.50812V6.73276L20.6893 7.66515ZM20.656 3.80474V1.58009L17.0412 0.664062V2.88871L20.656 3.80474ZM23.6045 15.2388C24.082 13.6793 24.3208 12.169 24.3208 10.7077H26.0699C26.0699 12.278 25.8756 13.7884 25.4869 15.2388H23.6045ZM29.4848 8.46668V7.56701H25.9367V8.46668H29.4848ZM29.4848 6.11117V5.2115H25.9367V6.11117H29.4848ZM31.2506 10.7077C31.2506 12.169 31.4894 13.6793 31.9669 15.2388H30.0845C29.6958 13.7884 29.5015 12.278 29.5015 10.7077H31.2506Z" fill="black" fill-opacity="0.88"/>
<path id="Vector_4" d="M0.81625 15.3877C1.61584 14.4171 2.21554 13.4193 2.61533 12.3942C3.01513 11.3691 3.27055 10.2841 3.38161 9.13905H0V7.02891H3.44824V3.10306H1.03281V0.976562H14.0595V3.10306H11.8606V7.02891H15.0923V9.13905H11.8606V15.3877H9.69505V9.13905H5.56383C5.48609 10.3386 5.29174 11.4346 4.98079 12.4269C4.66984 13.4084 4.20341 14.3953 3.58151 15.3877H0.81625ZM9.69505 7.02891V3.10306H5.6138V7.02891H9.69505Z" fill="black" fill-opacity="0.88"/>
</g>
</svg>
