<svg width="20" height="18" viewBox="0 0 20 18" fill="none" xmlns="http://www.w3.org/2000/svg">
<path d="M5 8.5C5 7.94772 5.44772 7.5 6 7.5H12C12.5523 7.5 13 7.94772 13 8.5C13 9.05229 12.5523 9.5 12 9.5H6C5.44772 9.5 5 9.05229 5 8.5Z" fill="black" fill-opacity="0.88"/>
<path d="M6 11.5C5.44772 11.5 5 11.9477 5 12.5C5 13.0523 5.44772 13.5 6 13.5H10C10.5523 13.5 11 13.0523 11 12.5C11 11.9477 10.5523 11.5 10 11.5H6Z" fill="black" fill-opacity="0.88"/>
<path fill-rule="evenodd" clip-rule="evenodd" d="M0 3C0 1.34315 1.34315 0 3 0H7.46482C8.13352 0 8.75799 0.334202 9.12892 0.8906L10.5352 3H17C18.6569 3 20 4.34315 20 6V15C20 16.6569 18.6569 18 17 18H3C1.34315 18 0 16.6569 0 15V3ZM3 2C2.44772 2 2 2.44772 2 3V15C2 15.5523 2.44772 16 3 16H17C17.5523 16 18 15.5523 18 15V6C18 5.44772 17.5523 5 17 5H10.5352C9.86648 5 9.24201 4.6658 8.87108 4.1094L7.46482 2H3Z" fill="black" fill-opacity="0.88"/>
</svg>
