<svg width="80" height="80" viewBox="0 0 80 80" fill="none" xmlns="http://www.w3.org/2000/svg">
<g id="icon/&#229;&#170;&#146;&#228;&#189;&#147;/&#230;&#146;&#173;&#230;&#148;&#190;">
<path id="Union" fill-rule="evenodd" clip-rule="evenodd" d="M68 40C68 55.464 55.464 68 40 68C24.536 68 12 55.464 12 40C12 24.536 24.536 12 40 12C55.464 12 68 24.536 68 40ZM70 40C70 56.5685 56.5685 70 40 70C23.4315 70 10 56.5685 10 40C10 23.4315 23.4315 10 40 10C56.5685 10 70 23.4315 70 40ZM37.5 49.5263L49.5 42.5981C51.5 41.4434 51.5 38.5566 49.5 37.4019L37.5 30.4737C35.5 29.319 33 30.7624 33 33.0718V46.9282C33 49.2376 35.5 50.681 37.5 49.5263Z" fill="black" fill-opacity="0.88"/>
</g>
</svg>
