<svg width="24" height="24" viewBox="0 0 24 24" fill="none" xmlns="http://www.w3.org/2000/svg">
    <path d="M9.17151 16.8284C8.42137 16.0783 7.99994 15.0609 7.99994 14L15.9999 14C15.9999 15.0609 15.5785 16.0783 14.8284 16.8284C14.0782 17.5786 13.0608 18 11.9999 18C10.9391 18 9.92166 17.5786 9.17151 16.8284Z" fill="black" fill-opacity="0.88"/>
    <path fill-rule="evenodd" clip-rule="evenodd" d="M11.9999 22C16.4182 22 19.9999 18.4183 19.9999 14C19.9999 11.1586 18.3274 8.18585 16.6693 6.01755C15.8234 4.91134 14.9397 3.96032 14.1891 3.27643C13.8154 2.93603 13.4589 2.64721 13.144 2.43649C12.9873 2.33165 12.823 2.23397 12.6588 2.15901C12.5164 2.09395 12.2777 2 11.9999 2C11.7222 2 11.4835 2.09395 11.341 2.15901C11.1769 2.23397 11.0126 2.33165 10.8559 2.43649C10.541 2.64722 10.1844 2.93603 9.81082 3.27643C9.06022 3.96032 8.1765 4.91134 7.33058 6.01755C5.67247 8.18585 3.99994 11.1586 3.99994 14C3.99994 18.4183 7.58166 22 11.9999 22ZM17.9999 14C17.9999 17.3137 15.3136 20 11.9999 20C8.68623 20 5.99994 17.3137 5.99994 14C5.99994 11.8414 7.32741 9.31415 8.9193 7.23245C9.69837 6.21366 10.5022 5.35218 11.1578 4.75482C11.4873 4.45459 11.7636 4.2356 11.9682 4.09867L11.9999 4.07771L12.0317 4.09867C12.2363 4.2356 12.5126 4.45459 12.8421 4.75482C13.4977 5.35218 14.3015 6.21366 15.0806 7.23245C16.6725 9.31415 17.9999 11.8414 17.9999 14Z" fill="black" fill-opacity="0.88"/>
</svg>
