<svg width="24" height="24" viewBox="0 0 24 24" fill="none" xmlns="http://www.w3.org/2000/svg">
    <path fill-rule="evenodd" clip-rule="evenodd" d="M12.0001 7.99909C9.79099 7.99909 8.00013 9.78995 8.00013 11.9991C8.00013 14.2082 9.79099 15.9991 12.0001 15.9991C14.2093 15.9991 16.0001 14.2082 16.0001 11.9991C16.0001 9.78995 14.2093 7.99909 12.0001 7.99909ZM10.0001 11.9991C10.0001 10.8945 10.8956 9.99909 12.0001 9.99909C13.1047 9.99909 14.0001 10.8945 14.0001 11.9991C14.0001 13.1037 13.1047 13.9991 12.0001 13.9991C10.8956 13.9991 10.0001 13.1037 10.0001 11.9991Z" fill="black" fill-opacity="0.88"/>
    <path fill-rule="evenodd" clip-rule="evenodd" d="M5.55811 20.1565C6.09401 21.0847 7.08439 21.6565 8.15619 21.6565H15.8445C16.9163 21.6565 17.9067 21.0847 18.4426 20.1565L22.2868 13.4982C22.8227 12.57 22.8227 11.4264 22.2868 10.4982L18.4426 3.83984C17.9067 2.91164 16.9163 2.33984 15.8445 2.33984H8.15619C7.08439 2.33984 6.09401 2.91164 5.55811 3.83985L1.71394 10.4982C1.17804 11.4264 1.17804 12.57 1.71394 13.4982L5.55811 20.1565ZM8.15619 19.6565C7.79892 19.6565 7.4688 19.4659 7.29016 19.1565L3.44599 12.4982C3.26735 12.1888 3.26735 11.8076 3.44599 11.4982L7.29016 4.83985C7.4688 4.53044 7.79892 4.33984 8.15619 4.33984L15.8445 4.33984C16.2018 4.33984 16.5319 4.53044 16.7106 4.83985L20.5547 11.4982C20.7334 11.8076 20.7334 12.1888 20.5547 12.4982L16.7106 19.1565C16.5319 19.4659 16.2018 19.6565 15.8445 19.6565H8.15619Z" fill="black" fill-opacity="0.88"/>
</svg>
