<svg width="20" height="20" viewBox="0 0 20 20" fill="none" xmlns="http://www.w3.org/2000/svg">
    <path d="M7.50001 10.4167C7.03977 10.4167 6.66667 10.7898 6.66667 11.25C6.66667 11.7102 7.03977 12.0833 7.50001 12.0833H12.5C12.9602 12.0833 13.3333 11.7102 13.3333 11.25C13.3333 10.7898 12.9602 10.4167 12.5 10.4167H7.50001Z" fill="black" fill-opacity="0.88"/>
    <path fill-rule="evenodd" clip-rule="evenodd" d="M4.16667 2.5C2.78596 2.5 1.66667 3.61929 1.66667 5V15C1.66667 16.3807 2.78596 17.5 4.16667 17.5H15.8333C17.2141 17.5 18.3333 16.3807 18.3333 15V7.5C18.3333 6.11929 17.2141 5 15.8333 5H10.446L9.2741 3.24217C8.96499 2.7785 8.44461 2.5 7.88735 2.5H4.16667ZM3.33334 5C3.33334 4.53976 3.70643 4.16667 4.16667 4.16667H7.88735L9.05924 5.9245C9.36835 6.38816 9.88874 6.66667 10.446 6.66667H15.8333C16.2936 6.66667 16.6667 7.03976 16.6667 7.5V15C16.6667 15.4602 16.2936 15.8333 15.8333 15.8333H4.16667C3.70643 15.8333 3.33334 15.4602 3.33334 15V5Z" fill="black" fill-opacity="0.88"/>
</svg>
