<svg width="18" height="18" viewBox="0 0 18 18" fill="none" xmlns="http://www.w3.org/2000/svg">
    <path d="M8.16675 8.16675C8.16675 7.70651 7.79365 7.33342 7.33342 7.33342C6.87318 7.33342 6.50008 7.70651 6.50008 8.16675V12.3334C6.50008 12.7937 6.87318 13.1667 7.33342 13.1667C7.79365 13.1667 8.16675 12.7937 8.16675 12.3334V8.16675Z" fill="black" fill-opacity="0.88"/>
    <path d="M11.5001 8.16675C11.5001 7.70651 11.127 7.33342 10.6667 7.33342C10.2065 7.33342 9.83342 7.70651 9.83342 8.16675V12.3334C9.83342 12.7937 10.2065 13.1667 10.6667 13.1667C11.127 13.1667 11.5001 12.7937 11.5001 12.3334V8.16675Z" fill="black" fill-opacity="0.88"/>
    <path fill-rule="evenodd" clip-rule="evenodd" d="M5.10946 1.87555C5.31389 1.16004 5.96786 0.666748 6.712 0.666748H11.2882C12.0323 0.666748 12.6863 1.16004 12.8907 1.87555L13.3787 3.58341H16.5001C16.9603 3.58341 17.3334 3.95651 17.3334 4.41675C17.3334 4.87699 16.9603 5.25008 16.5001 5.25008H15.1946L14.5218 15.0054C14.4314 16.3163 13.3417 17.3334 12.0277 17.3334H5.97243C4.65848 17.3334 3.56876 16.3163 3.47836 15.0054L2.80557 5.25008H1.50008C1.03984 5.25008 0.666748 4.87699 0.666748 4.41675C0.666748 3.95651 1.03984 3.58341 1.50008 3.58341H4.6215L5.10946 1.87555ZM13.524 5.25008L12.8591 14.8908C12.829 15.3277 12.4657 15.6667 12.0277 15.6667H5.97243C5.53445 15.6667 5.17121 15.3277 5.14107 14.8907L4.4762 5.25008H13.524ZM11.2882 2.33341L11.6453 3.58341H6.35486L6.712 2.33342L11.2882 2.33341Z" fill="black" fill-opacity="0.88"/>
</svg>
