<svg width="24" height="24" viewBox="0 0 24 24" fill="none" xmlns="http://www.w3.org/2000/svg">
<path fill-rule="evenodd" clip-rule="evenodd" d="M2.2001 11.3993C2.91022 10.4542 3.89299 9.72559 5.03162 9.33034C5.36872 5.77848 8.35989 3 12 3C15.6402 3 18.6315 5.77865 18.9684 9.33065C21.3152 10.1455 23 12.3751 23 15C23 18.3137 20.3137 21 17 21H7C3.68629 21 1 18.3137 1 15C1 13.6486 1.44655 12.402 2.2001 11.3993ZM3 15C3 17.2091 4.79086 19 7 19H17C19.2091 19 21 17.2091 21 15C21 13.0658 19.6261 11.4502 17.8004 11.0799L16.9858 10.9147L16.9993 10.0835C16.9998 10.0557 17 10.0279 17 10C17 7.23858 14.7614 5 12 5C9.58075 5 7.56281 6.71817 7.09985 9.00082C9.02239 9.03222 10.7251 9.9688 11.7995 11.3988C12.1715 11.8939 12.469 12.4491 12.6749 13.0476C12.8545 13.5698 12.5768 14.1388 12.0546 14.3185C11.5323 14.4981 10.9633 14.2204 10.7837 13.6981C10.6469 13.3006 10.4489 12.9308 10.2005 12.6002C9.46903 11.6266 8.30783 11 7 11C4.79086 11 3 12.7909 3 15Z" fill="black" fill-opacity="0.88"/>
</svg>
