<svg width="20" height="20" viewBox="0 0 20 20" fill="none" xmlns="http://www.w3.org/2000/svg">
    <path d="M11.0417 6.87508C11.0417 7.45038 10.5754 7.91675 10.0001 7.91675C9.42478 7.91675 8.95842 7.45038 8.95842 6.87508C8.95842 6.29979 9.42478 5.83342 10.0001 5.83342C10.5754 5.83342 11.0417 6.29979 11.0417 6.87508Z" fill="black" fill-opacity="0.88"/>
    <path d="M10.8334 10.0001C10.8334 9.53984 10.4603 9.16675 10.0001 9.16675C9.53984 9.16675 9.16675 9.53984 9.16675 10.0001V13.3334C9.16675 13.7937 9.53984 14.1667 10.0001 14.1667C10.4603 14.1667 10.8334 13.7937 10.8334 13.3334V10.0001Z" fill="black" fill-opacity="0.88"/>
    <path fill-rule="evenodd" clip-rule="evenodd" d="M1.66675 10.0001C1.66675 5.39771 5.39771 1.66675 10.0001 1.66675C14.6025 1.66675 18.3334 5.39771 18.3334 10.0001C18.3334 14.6025 14.6025 18.3334 10.0001 18.3334C5.39771 18.3334 1.66675 14.6025 1.66675 10.0001ZM10.0001 3.33341C6.31818 3.33341 3.33341 6.31818 3.33341 10.0001C3.33341 13.682 6.31818 16.6667 10.0001 16.6667C13.682 16.6667 16.6667 13.682 16.6667 10.0001C16.6667 6.31818 13.682 3.33341 10.0001 3.33341Z" fill="black" fill-opacity="0.88"/>
</svg>
