<svg width="24" height="24" viewBox="0 0 24 24" fill="none" xmlns="http://www.w3.org/2000/svg">
    <path fill-rule="evenodd" clip-rule="evenodd" d="M4.91894 2.75061C5.29849 2.27618 5.87311 2 6.48068 2H9.00006C9.55235 2 10.0001 2.44772 10.0001 3C10.0001 4.10457 10.8955 5 12.0001 5C13.1046 5 14.0001 4.10457 14.0001 3C14.0001 2.44772 14.4478 2 15.0001 2H17.5194C18.127 2 18.7016 2.27618 19.0812 2.75061L22.1212 6.55068C22.838 7.44663 22.6556 8.76064 21.722 9.42754L19.5001 11.0146V19C19.5001 20.6569 18.1569 22 16.5001 22H7.50005C5.8432 22 4.50005 20.6569 4.50005 19L4.50005 11.0146L2.27814 9.42754C1.34449 8.76064 1.16212 7.44663 1.87888 6.55068L4.91894 2.75061ZM8.12608 4L6.48068 4L3.44062 7.80007L5.66253 9.38715C6.18812 9.76257 6.50005 10.3687 6.50005 11.0146V19C6.50005 19.5523 6.94777 20 7.50005 20H16.5001C17.0523 20 17.5001 19.5523 17.5001 19V11.0146C17.5001 10.3687 17.812 9.76257 18.3376 9.38715L20.5595 7.80007L17.5194 4H15.874C15.43 5.72523 13.8639 7 12.0001 7C10.1362 7 8.57012 5.72523 8.12608 4Z" fill="black" fill-opacity="0.88"/>
</svg>
