<svg width="24" height="24" viewBox="0 0 24 24" fill="none" xmlns="http://www.w3.org/2000/svg">
<path d="M5.77032 20.1678C4.98048 19.6709 4.4836 18.7498 4.4836 17.756V4.52559C4.4836 4.30293 4.30079 4.12012 4.07813 4.12012H3.7547C2.51954 4.12012 1.5047 5.22403 1.5047 6.57168V19.6709C1.5047 21.0185 2.5172 22.1224 3.7547 22.1224H8.8922L5.77032 20.1678ZM11.6461 4.12012H11.6672V5.75137H11.6461V4.12012Z" fill="currentColor"/>
<path d="M11.9695 4.33105C11.9695 4.18808 11.8992 4.05683 11.7773 3.98652L8.71877 2.13262C8.14221 1.77871 7.46252 1.77871 6.88596 2.13262C6.31877 2.48652 5.97424 3.12637 5.97424 3.8459V16.9146C5.97424 17.9084 6.47111 18.8295 7.26096 19.3264L11.9016 22.1225H11.9625V4.33105H11.9695ZM20.2172 4.12011H13.8961C13.6734 4.12011 13.4906 4.30293 13.4906 4.52558V21.717C13.4906 21.9396 13.6734 22.1225 13.8961 22.1225H20.2172C21.4641 22.1225 22.4672 21.0185 22.4672 19.6709V6.57168C22.4672 5.22402 21.4641 4.12011 20.2172 4.12011Z" fill="currentColor"/>
</svg>
