<svg width="24" height="24" viewBox="0 0 24 24" fill="none" xmlns="http://www.w3.org/2000/svg">
<path fill-rule="evenodd" clip-rule="evenodd" d="M4 4C4 2.89543 4.89543 2 6 2H18C19.1046 2 20 2.89543 20 4V20C20 21.1046 19.1046 22 18 22H6C4.89543 22 4 21.1046 4 20V4ZM9 19.5C9 19.2239 9.22386 19 9.5 19H14.5C14.7761 19 15 19.2239 15 19.5C15 19.7761 14.7761 20 14.5 20H9.5C9.22386 20 9 19.7761 9 19.5ZM12.4421 7.19467L12 6L11.5579 7.19467C11.1528 8.28955 10.2895 9.15279 9.19467 9.55793L8 10L9.19467 10.4421C10.2895 10.8472 11.1528 11.7105 11.5579 12.8053L12 14L12.4421 12.8053C12.8472 11.7105 13.7105 10.8472 14.8053 10.4421L16 10L14.8053 9.55793C13.7105 9.15279 12.8472 8.28955 12.4421 7.19467Z" fill="currentColor"/>
</svg>
