<svg width="24" height="24" viewBox="0 0 24 24" fill="none" xmlns="http://www.w3.org/2000/svg">
    <path fill-rule="evenodd" clip-rule="evenodd" d="M12 2C17.52 2 22 5.98 22 10.89C22 13.96 19.51 16.44 16.44 16.44H14.48C13.56 16.44 12.81 17.19 12.81 18.11C12.81 18.53 12.98 18.92 13.23 19.21C13.5 19.51 13.67 19.9 13.67 20.33C13.67 21.26 12.9 22 12 22C6.48 22 2 17.52 2 12C2 6.48 6.48 2 12 2ZM14.48 14.44H16.44C18.41 14.44 20 12.85 20 10.89C20 7.14 16.47 4 12 4C7.71 4 4.18 7.38 4 11.66C3.82 15.95 7.05 19.61 11.32 19.97C10.99 19.41 10.81 18.77 10.81 18.11C10.81 16.09 12.45 14.44 14.48 14.44ZM7.5 12C6.67 12 6 11.33 6 10.5C6 9.67 6.67 9 7.5 9C8.33 9 9 9.67 9 10.5C9 11.33 8.33 12 7.5 12ZM16.5 12C15.67 12 15 11.33 15 10.5C15 9.67 15.67 9 16.5 9C17.33 9 18 9.67 18 10.5C18 11.33 17.33 12 16.5 12ZM12 9C11.17 9 10.5 8.33 10.5 7.5C10.5 6.67 11.17 6 12 6C12.83 6 13.5 6.67 13.5 7.5C13.5 8.33 12.83 9 12 9Z" fill="black" fill-opacity="0.88"/>
</svg>
