<svg width="24" height="24" viewBox="0 0 24 24" fill="none" xmlns="http://www.w3.org/2000/svg">
    <path fill-rule="evenodd" clip-rule="evenodd" d="M10.1512 2.03149C10.8801 1.8904 11.5118 2.52617 11.3846 3.24544C11.3033 3.70496 11.2608 4.17854 11.2608 4.66288C11.2608 9.12315 14.8766 12.7389 19.3368 12.7389C19.8212 12.7389 20.2947 12.6964 20.7543 12.6151C21.4735 12.4879 22.1093 13.1196 21.9682 13.8485C21.0693 18.4926 16.9833 21.9997 12.076 21.9997C6.51119 21.9997 2 17.4885 2 11.9237C2 7.01638 5.50708 2.93039 10.1512 2.03149ZM9.26559 4.34979C6.19088 5.49109 4 8.45238 4 11.9237C4 16.3839 7.61576 19.9997 12.076 19.9997C15.5473 19.9997 18.5086 17.8088 19.6499 14.7341C19.5459 14.7373 19.4415 14.7389 19.3368 14.7389C13.772 14.7389 9.26081 10.2277 9.26081 4.66288C9.26081 4.55816 9.26241 4.45379 9.26559 4.34979Z" fill="black" fill-opacity="0.88"/>
</svg>
