<svg width="22" height="22" viewBox="0 0 22 22" fill="none" xmlns="http://www.w3.org/2000/svg">
    <path d="M2 10.98C2 15.9616 6.03839 20 11.02 20C13.5967 20 15.759 19.0222 17.4474 17.3113C18.9083 15.8309 19.799 14.0206 20.0044 11.8459L21 11.94L21.4913 12.811C20.2166 13.53 18.6181 13.98 17.04 13.98C14.6114 13.98 12.2432 12.9199 10.6616 11.3384C9.0801 9.75685 8.02 7.38865 8.02 4.96005C8.02 3.38199 8.46997 1.78341 9.189 0.50873L10.06 1.00005L10.1541 1.99562C7.97937 2.2011 6.16905 3.09171 4.68867 4.55267C2.97783 6.24105 2 8.40337 2 10.98ZM0 10.98C0 7.97218 1.30857 5.07848 3.28383 3.12914C4.9951 1.44032 7.42583 0.24449 9.9659 0.00447991C10.0676 -0.00512009 10.1683 0.000709808 10.2682 0.0219598C10.368 0.0432098 10.4624 0.0789098 10.5513 0.12907C10.6085 0.16133 10.662 0.19886 10.7118 0.24166C10.7616 0.28446 10.8067 0.3317 10.8472 0.38339C10.8877 0.43508 10.9228 0.49023 10.9524 0.54882C10.982 0.60742 11.0056 0.66834 11.0233 0.73159C11.0409 0.79484 11.0522 0.85921 11.0572 0.92468C11.0621 0.99015 11.0606 1.05548 11.0527 1.12066C11.0448 1.18585 11.0306 1.24963 11.0101 1.31201C10.9896 1.3744 10.9633 1.43418 10.931 1.49137C10.33 2.55669 10.02 3.65811 10.02 4.96005C10.02 6.96144 10.7549 8.60326 12.0759 9.92415C13.3968 11.2451 15.0386 11.98 17.04 11.98C18.3419 11.98 19.4434 11.67 20.5087 11.069C20.5976 11.0189 20.692 10.9832 20.7918 10.9619C20.8917 10.9407 20.9924 10.9348 21.0941 10.9444C21.1594 10.9506 21.2236 10.9632 21.2865 10.9819C21.3494 11.0007 21.4098 11.0255 21.4679 11.0562C21.5259 11.087 21.5804 11.1231 21.6313 11.1645C21.6822 11.206 21.7286 11.252 21.7705 11.3025C21.8124 11.3531 21.8489 11.4073 21.88 11.4651C21.9112 11.523 21.9365 11.5832 21.9558 11.6459C21.9751 11.7087 21.9881 11.7728 21.9948 11.838C22.0015 11.9034 22.0017 11.9687 21.9956 12.0341C21.7556 14.5742 20.5597 17.0049 18.8709 18.7162C16.9216 20.6915 14.0279 22 11.02 22C4.93382 22 0 17.0662 0 10.98Z" fill="black"/>
</svg>
