<svg width="12" height="12" viewBox="0 0 12 12" fill="none" xmlns="http://www.w3.org/2000/svg">
<path d="M2.48147 1.1845C2.12349 0.82652 1.54309 0.82652 1.18511 1.1845C0.827131 1.54248 0.827131 2.12288 1.18511 2.48086L4.7036 5.99935L1.18511 9.51783C0.827131 9.87582 0.827131 10.4562 1.18511 10.8142C1.54309 11.1722 2.12349 11.1722 2.48147 10.8142L5.99996 7.29571L9.51845 10.8142C9.87643 11.1722 10.4568 11.1722 10.8148 10.8142C11.1728 10.4562 11.1728 9.87582 10.8148 9.51783L7.29632 5.99935L10.8148 2.48086C11.1728 2.12288 11.1728 1.54248 10.8148 1.1845C10.4568 0.82652 9.87643 0.82652 9.51845 1.1845L5.99996 4.70299L2.48147 1.1845Z" fill="white" fill-opacity="0.85"/>
</svg>
