<svg width="24" height="24" viewBox="0 0 24 24" fill="none" xmlns="http://www.w3.org/2000/svg">
<g id="icon/&#233;&#128;&#154;&#231;&#148;&#168;/&#231;&#178;&#152;&#232;&#180;&#180;">
<path id="Union" fill-rule="evenodd" clip-rule="evenodd" d="M9 2C7.89543 2 7 2.89543 7 4H6C4.34315 4 3 5.34315 3 7V19C3 20.6569 4.34315 22 6 22H18C19.6569 22 21 20.6569 21 19V7C21 5.34315 19.6569 4 18 4H17C17 2.89543 16.1046 2 15 2H9ZM17 6C17 7.10457 16.1046 8 15 8H9C7.89543 8 7 7.10457 7 6H6C5.44772 6 5 6.44772 5 7V19C5 19.5523 5.44772 20 6 20H18C18.5523 20 19 19.5523 19 19V7C19 6.44772 18.5523 6 18 6H17ZM9 4H15V6H9V4Z" fill="black" fill-opacity="0.65"/>
</g>
</svg>
