<svg width="20" height="20" viewBox="0 0 20 20" fill="none" xmlns="http://www.w3.org/2000/svg">
    <path d="M14.5833 14.5833C14.123 14.5833 13.7499 14.9564 13.7499 15.4167C13.7499 15.8769 14.123 16.25 14.5833 16.25H15.4166C15.8768 16.25 16.2499 15.8769 16.2499 15.4167C16.2499 14.9564 15.8768 14.5833 15.4166 14.5833H14.5833Z" fill="black" fill-opacity="0.88"/>
    <path fill-rule="evenodd" clip-rule="evenodd" d="M16.6666 3.4375V5.83333H17.4999C18.4204 5.83333 19.1666 6.57953 19.1666 7.5V16.6667C19.1666 17.5871 18.4204 18.3333 17.4999 18.3333H12.4999C11.5794 18.3333 10.8333 17.5871 10.8333 16.6667H4.16658C3.70635 16.6667 3.33325 16.2936 3.33325 15.8333C3.33325 15.3731 3.70635 15 4.16658 15H7.91658V13.3333H2.72909C1.78313 13.3333 0.833252 12.6355 0.833252 11.5625V3.4375C0.833252 2.36454 1.78313 1.66667 2.72909 1.66667H14.7708C15.7167 1.66667 16.6666 2.36455 16.6666 3.4375ZM2.49996 3.43683C2.49998 3.43673 2.50028 3.43543 2.50154 3.4328C2.5041 3.42747 2.51155 3.41497 2.52914 3.39945C2.56536 3.36749 2.6336 3.33333 2.72909 3.33333H14.7708C14.8663 3.33333 14.9345 3.3675 14.9707 3.39945C14.9883 3.41497 14.9957 3.42746 14.9983 3.4328C14.9996 3.43542 14.9999 3.43672 14.9999 3.43682L14.9999 5.83333H12.4999C11.5794 5.83333 10.8333 6.57953 10.8333 7.5V11.6667H2.72909C2.63359 11.6667 2.56535 11.6325 2.52913 11.6006C2.51155 11.585 2.5041 11.5725 2.50154 11.5672C2.50028 11.5646 2.49998 11.5633 2.49996 11.5632L2.49996 3.43683ZM12.4999 7.5H17.4999V16.6667H12.4999V7.5ZM10.8333 13.3333V15H9.58325V13.3333H10.8333Z" fill="black" fill-opacity="0.88"/>
</svg>
