<svg width="14" height="19" viewBox="0 0 14 19" fill="none" xmlns="http://www.w3.org/2000/svg">
<path d="M7 19C7.55229 19 8 18.5523 8 18V7.41421L12.2929 11.7071C12.6834 12.0976 13.3166 12.0976 13.7071 11.7071C14.0976 11.3166 14.0976 10.6834 13.7071 10.2929L7.70779 4.29357C7.52677 4.11221 7.27649 4 7 4C6.72933 4 6.48377 4.10754 6.30373 4.28222C6.30009 4.28575 6.29648 4.28931 6.29289 4.29289L0.292893 10.2929C-0.097631 10.6834 -0.0976309 11.3166 0.292893 11.7071C0.683418 12.0976 1.31658 12.0976 1.70711 11.7071L6 7.41421L6 18C6 18.5523 6.44772 19 7 19Z" fill="black" fill-opacity="0.88"/>
<path d="M14 1C14 0.447716 13.5523 0 13 0H1C0.447715 0 4.76837e-07 0.447716 4.76837e-07 1C4.76837e-07 1.55229 0.447715 2 1 2H13C13.5523 2 14 1.55228 14 1Z" fill="black" fill-opacity="0.88"/>
</svg>
