<svg width="16" height="16" viewBox="0 0 16 16" fill="none" xmlns="http://www.w3.org/2000/svg">
<g id="icon/&#233;&#128;&#154;&#231;&#148;&#168;/&#229;&#135;&#128;&#229;&#140;&#150;">
<g id="Union">
<path d="M6.11405 11.2196C5.61396 10.7195 5.333 10.0412 5.333 9.33398L10.6663 9.33398C10.6663 10.0412 10.3854 10.7195 9.88529 11.2196C9.38519 11.7197 8.70691 12.0007 7.99967 12.0007C7.29243 12.0007 6.61415 11.7197 6.11405 11.2196Z" fill="black" fill-opacity="0.65"/>
<path fill-rule="evenodd" clip-rule="evenodd" d="M7.99967 14.6673C10.9452 14.6673 13.333 12.2795 13.333 9.33398C13.333 7.43975 12.218 5.45788 11.1126 4.01235C10.5486 3.27488 9.95948 2.64086 9.45908 2.18494C9.21001 1.95801 8.97229 1.76546 8.76236 1.62498C8.65791 1.55509 8.54835 1.48997 8.43894 1.43999C8.34399 1.39662 8.18485 1.33398 7.99967 1.33398C7.81449 1.33398 7.65534 1.39662 7.5604 1.43999C7.45099 1.48997 7.34142 1.55509 7.23698 1.62498C7.02705 1.76546 6.78933 1.95801 6.54026 2.18494C6.03985 2.64086 5.45071 3.27488 4.88676 4.01235C3.78136 5.45788 2.66634 7.43975 2.66634 9.33399C2.66634 12.2795 5.05415 14.6673 7.99967 14.6673ZM11.9997 9.33398C11.9997 11.5431 10.2088 13.334 7.99967 13.334C5.79053 13.334 3.99967 11.5431 3.99967 9.33399C3.99967 7.89489 4.88465 6.21009 5.94591 4.82229C6.46529 4.14309 7.00115 3.56877 7.43825 3.17053C7.65793 2.97038 7.84208 2.82438 7.9785 2.73309L7.99967 2.71912L8.02084 2.73309C8.15725 2.82438 8.34141 2.97038 8.56109 3.17053C8.99819 3.56877 9.53405 4.14309 10.0534 4.82228C11.1147 6.21008 11.9997 7.89489 11.9997 9.33398Z" fill="black" fill-opacity="0.65"/>
</g>
</g>
</svg>
