<svg width="24" height="24" viewBox="0 0 24 24" fill="none" xmlns="http://www.w3.org/2000/svg">
<g id="Group">
<path id="Vector" d="M17.5349 12.514L16.8389 10.718C16.8389 10.697 16.8489 10.343 16.8489 10.16C16.8479 7.088 15.4459 4 11.9999 4C8.55386 4 7.15186 7.088 7.15186 10.16C7.15186 10.343 7.16086 10.697 7.16186 10.718L6.46586 12.514C6.27586 13.029 6.08586 13.564 5.94886 14.024C5.29186 16.213 5.50486 17.119 5.66686 17.139C6.01486 17.182 7.02086 15.491 7.02086 15.491C7.02086 16.471 7.50886 17.749 8.56286 18.671C8.16886 18.798 7.68486 18.991 7.37486 19.228C7.09486 19.442 7.12986 19.659 7.18086 19.748C7.40086 20.133 10.9709 19.993 12.0009 19.873C13.0309 19.993 16.5999 20.133 16.8209 19.747C16.8709 19.659 16.9059 19.442 16.6269 19.228C16.3159 18.991 15.8319 18.798 15.4369 18.672C16.4919 17.749 16.9789 16.47 16.9789 15.491C16.9789 15.491 17.9859 17.182 18.3339 17.139C18.4959 17.119 18.7119 16.211 18.0509 14.023C17.9109 13.56 17.7259 13.029 17.5349 12.514ZM18.5559 20.741C18.1829 21.393 17.7229 21.633 17.1179 21.798C16.8779 21.863 16.6199 21.906 16.3239 21.936C15.8839 21.981 15.3379 22.001 14.7109 22C13.8063 21.9982 12.9022 21.9595 12.0009 21.884C11.3089 21.949 10.2159 21.998 9.29086 22C8.75213 22.0057 8.21345 21.9844 7.67686 21.936C7.40921 21.9117 7.14399 21.8655 6.88386 21.798C6.27886 21.634 5.81886 21.393 5.44386 20.739C5.15766 20.2385 5.07224 19.6481 5.20486 19.087C4.61286 18.955 4.20386 18.604 3.92586 18.176C3.78557 17.9574 3.68125 17.7177 3.61686 17.466C3.52724 17.1045 3.48821 16.7323 3.50086 16.36C3.51386 15.575 3.68786 14.598 4.03286 13.448C4.17286 12.982 4.35986 12.44 4.60086 11.793L5.15386 10.363C5.15275 10.2953 5.15208 10.2277 5.15186 10.16C5.15186 5.605 7.58786 2 11.9999 2C16.4129 2 18.8479 5.605 18.8479 10.16L18.8469 10.363L19.3999 11.793L19.4099 11.819C19.6349 12.425 19.8229 12.972 19.9659 13.445C20.3139 14.595 20.4879 15.574 20.5009 16.361C20.5079 16.768 20.4709 17.137 20.3829 17.469C20.3169 17.715 20.2219 17.949 20.0729 18.177C19.7969 18.604 19.3889 18.953 18.7959 19.087C18.9259 19.641 18.8509 20.227 18.5559 20.741Z" fill="#188BFF"/>
</g>
</svg>
