<svg width="24" height="24" viewBox="0 0 24 24" fill="none" xmlns="http://www.w3.org/2000/svg">
<g id="icon/logo/QQ&#231;&#169;&#186;&#233;&#151;&#180;">
<g id="Outlined">
<path d="M12.0953 11.2033L8.5 10.1436C8.5 10.1436 10.226 9.90548 12.4375 10.0425C12.7454 10.0616 13.0627 10.0879 13.3861 10.1232C13.5877 10.1452 13.7916 10.1707 13.9971 10.2C14.413 10.2594 14.8353 10.3346 15.2571 10.429L12.1385 13.339C12.1385 13.339 12.0187 13.3996 12.219 13.4981C12.2485 13.5126 12.285 13.528 12.3299 13.5441C12.529 13.6157 12.8932 13.7021 13.5457 13.797C13.6283 13.809 13.7154 13.8211 13.8074 13.8333C14.2498 13.8923 14.8048 13.9541 15.5 14.0174C15.2939 14.0774 14.4276 14.3178 13.1625 14.4351L13.1581 14.4355C13.0144 14.4487 12.8656 14.4604 12.7121 14.4701L12.7107 14.4701C12.205 14.5019 11.6477 14.5115 11.0525 14.4832C10.923 14.4771 10.7917 14.4691 10.6587 14.4592C10.0391 14.413 9.38363 14.3243 8.70655 14.1764L12.0953 11.2033Z" fill="#FF9500"/>
<path fill-rule="evenodd" clip-rule="evenodd" d="M13.0784 2.87088C12.5962 2.04304 11.4003 2.04304 10.9181 2.87088L8.44641 7.11456L3.64662 8.15394C2.71031 8.35669 2.34074 9.4941 2.97906 10.2085L6.25124 13.8706L5.75653 18.7567C5.66002 19.7098 6.62756 20.4128 7.50423 20.0264L11.9983 18.0461L16.4923 20.0264C17.369 20.4128 18.3365 19.7098 18.24 18.7567L17.7453 13.8706L21.0175 10.2085C21.6558 9.4941 21.2862 8.35669 20.3499 8.15394L15.5501 7.11456L13.0784 2.87088ZM10.0083 8.40675L11.9983 4.99017L13.9882 8.40675C14.1649 8.71 14.4608 8.92503 14.8038 8.99931L18.6681 9.83611L16.0337 12.7845C15.7999 13.0462 15.6868 13.3941 15.7222 13.7433L16.1205 17.677L12.5023 16.0826C12.1812 15.9411 11.8154 15.9411 11.4942 16.0826L7.87607 17.677L8.27436 13.7433C8.30971 13.3941 8.19666 13.0462 7.96283 12.7845L5.32841 9.83611L9.1927 8.99931C9.53569 8.92503 9.83166 8.71 10.0083 8.40675Z" fill="#FF9500"/>
</g>
</g>
</svg>
