<svg width="46" height="46" viewBox="0 0 46 46" fill="none" xmlns="http://www.w3.org/2000/svg">
<g id="QR Code">
<rect width="46" height="46" fill="white"/>
<path id="Vector" d="M2.60938 2.60938H4.24058V4.24058H2.60938V2.60938ZM4.24058 2.60938H5.87179V4.24058H4.24058V2.60938ZM5.87179 2.60938H7.50299V4.24058H5.87179V2.60938ZM7.50299 2.60938H9.1342V4.24058H7.50299V2.60938ZM9.1342 2.60938H10.7654V4.24058H9.1342V2.60938ZM10.7654 2.60938H12.3966V4.24058H10.7654V2.60938ZM12.3966 2.60938H14.0278V4.24058H12.3966V2.60938ZM20.5526 2.60938H22.1838V4.24058H20.5526V2.60938ZM25.4463 2.60938H27.0775V4.24058H25.4463V2.60938ZM27.0775 2.60938H28.7087V4.24058H27.0775V2.60938ZM28.7087 2.60938H30.3399V4.24058H28.7087V2.60938ZM31.9711 2.60938H33.6023V4.24058H31.9711V2.60938ZM33.6023 2.60938H35.2335V4.24058H33.6023V2.60938ZM35.2335 2.60938H36.8647V4.24058H35.2335V2.60938ZM36.8647 2.60938H38.4959V4.24058H36.8647V2.60938ZM38.4959 2.60938H40.1271V4.24058H38.4959V2.60938ZM40.1271 2.60938H41.7583V4.24058H40.1271V2.60938ZM41.7583 2.60938H43.3895V4.24058H41.7583V2.60938ZM2.60938 4.24058H4.24058V5.87179H2.60938V4.24058ZM12.3966 4.24058H14.0278V5.87179H12.3966V4.24058ZM17.2902 4.24058H18.9214V5.87179H17.2902V4.24058ZM23.815 4.24058H25.4463V5.87179H23.815V4.24058ZM25.4463 4.24058H27.0775V5.87179H25.4463V4.24058ZM28.7087 4.24058H30.3399V5.87179H28.7087V4.24058ZM31.9711 4.24058H33.6023V5.87179H31.9711V4.24058ZM41.7583 4.24058H43.3895V5.87179H41.7583V4.24058ZM2.60938 5.87179H4.24058V7.50299H2.60938V5.87179ZM5.87179 5.87179H7.50299V7.50299H5.87179V5.87179ZM7.50299 5.87179H9.1342V7.50299H7.50299V5.87179ZM9.1342 5.87179H10.7654V7.50299H9.1342V5.87179ZM12.3966 5.87179H14.0278V7.50299H12.3966V5.87179ZM17.2902 5.87179H18.9214V7.50299H17.2902V5.87179ZM18.9214 5.87179H20.5526V7.50299H18.9214V5.87179ZM22.1838 5.87179H23.815V7.50299H22.1838V5.87179ZM25.4463 5.87179H27.0775V7.50299H25.4463V5.87179ZM27.0775 5.87179H28.7087V7.50299H27.0775V5.87179ZM31.9711 5.87179H33.6023V7.50299H31.9711V5.87179ZM35.2335 5.87179H36.8647V7.50299H35.2335V5.87179ZM36.8647 5.87179H38.4959V7.50299H36.8647V5.87179ZM38.4959 5.87179H40.1271V7.50299H38.4959V5.87179ZM41.7583 5.87179H43.3895V7.50299H41.7583V5.87179ZM2.60938 7.50299H4.24058V9.1342H2.60938V7.50299ZM5.87179 7.50299H7.50299V9.1342H5.87179V7.50299ZM7.50299 7.50299H9.1342V9.1342H7.50299V7.50299ZM9.1342 7.50299H10.7654V9.1342H9.1342V7.50299ZM12.3966 7.50299H14.0278V9.1342H12.3966V7.50299ZM15.659 7.50299H17.2902V9.1342H15.659V7.50299ZM17.2902 7.50299H18.9214V9.1342H17.2902V7.50299ZM22.1838 7.50299H23.815V9.1342H22.1838V7.50299ZM25.4463 7.50299H27.0775V9.1342H25.4463V7.50299ZM27.0775 7.50299H28.7087V9.1342H27.0775V7.50299ZM31.9711 7.50299H33.6023V9.1342H31.9711V7.50299ZM35.2335 7.50299H36.8647V9.1342H35.2335V7.50299ZM36.8647 7.50299H38.4959V9.1342H36.8647V7.50299ZM38.4959 7.50299H40.1271V9.1342H38.4959V7.50299ZM41.7583 7.50299H43.3895V9.1342H41.7583V7.50299ZM2.60938 9.1342H4.24058V10.7654H2.60938V9.1342ZM5.87179 9.1342H7.50299V10.7654H5.87179V9.1342ZM7.50299 9.1342H9.1342V10.7654H7.50299V9.1342ZM9.1342 9.1342H10.7654V10.7654H9.1342V9.1342ZM12.3966 9.1342H14.0278V10.7654H12.3966V9.1342ZM18.9214 9.1342H20.5526V10.7654H18.9214V9.1342ZM20.5526 9.1342H22.1838V10.7654H20.5526V9.1342ZM22.1838 9.1342H23.815V10.7654H22.1838V9.1342ZM23.815 9.1342H25.4463V10.7654H23.815V9.1342ZM25.4463 9.1342H27.0775V10.7654H25.4463V9.1342ZM31.9711 9.1342H33.6023V10.7654H31.9711V9.1342ZM35.2335 9.1342H36.8647V10.7654H35.2335V9.1342ZM36.8647 9.1342H38.4959V10.7654H36.8647V9.1342ZM38.4959 9.1342H40.1271V10.7654H38.4959V9.1342ZM41.7583 9.1342H43.3895V10.7654H41.7583V9.1342ZM2.60938 10.7654H4.24058V12.3966H2.60938V10.7654ZM12.3966 10.7654H14.0278V12.3966H12.3966V10.7654ZM15.659 10.7654H17.2902V12.3966H15.659V10.7654ZM20.5526 10.7654H22.1838V12.3966H20.5526V10.7654ZM28.7087 10.7654H30.3399V12.3966H28.7087V10.7654ZM31.9711 10.7654H33.6023V12.3966H31.9711V10.7654ZM41.7583 10.7654H43.3895V12.3966H41.7583V10.7654ZM2.60938 12.3966H4.24058V14.0278H2.60938V12.3966ZM4.24058 12.3966H5.87179V14.0278H4.24058V12.3966ZM5.87179 12.3966H7.50299V14.0278H5.87179V12.3966ZM7.50299 12.3966H9.1342V14.0278H7.50299V12.3966ZM9.1342 12.3966H10.7654V14.0278H9.1342V12.3966ZM10.7654 12.3966H12.3966V14.0278H10.7654V12.3966ZM12.3966 12.3966H14.0278V14.0278H12.3966V12.3966ZM15.659 12.3966H17.2902V14.0278H15.659V12.3966ZM18.9214 12.3966H20.5526V14.0278H18.9214V12.3966ZM22.1838 12.3966H23.815V14.0278H22.1838V12.3966ZM25.4463 12.3966H27.0775V14.0278H25.4463V12.3966ZM28.7087 12.3966H30.3399V14.0278H28.7087V12.3966ZM31.9711 12.3966H33.6023V14.0278H31.9711V12.3966ZM33.6023 12.3966H35.2335V14.0278H33.6023V12.3966ZM35.2335 12.3966H36.8647V14.0278H35.2335V12.3966ZM36.8647 12.3966H38.4959V14.0278H36.8647V12.3966ZM38.4959 12.3966H40.1271V14.0278H38.4959V12.3966ZM40.1271 12.3966H41.7583V14.0278H40.1271V12.3966ZM41.7583 12.3966H43.3895V14.0278H41.7583V12.3966ZM15.659 14.0278H17.2902V15.659H15.659V14.0278ZM17.2902 14.0278H18.9214V15.659H17.2902V14.0278ZM18.9214 14.0278H20.5526V15.659H18.9214V14.0278ZM25.4463 14.0278H27.0775V15.659H25.4463V14.0278ZM27.0775 14.0278H28.7087V15.659H27.0775V14.0278ZM28.7087 14.0278H30.3399V15.659H28.7087V14.0278ZM4.24058 15.659H5.87179V17.2902H4.24058V15.659ZM5.87179 15.659H7.50299V17.2902H5.87179V15.659ZM12.3966 15.659H14.0278V17.2902H12.3966V15.659ZM23.815 15.659H25.4463V17.2902H23.815V15.659ZM25.4463 15.659H27.0775V17.2902H25.4463V15.659ZM28.7087 15.659H30.3399V17.2902H28.7087V15.659ZM31.9711 15.659H33.6023V17.2902H31.9711V15.659ZM33.6023 15.659H35.2335V17.2902H33.6023V15.659ZM36.8647 15.659H38.4959V17.2902H36.8647V15.659ZM4.24058 17.2902H5.87179V18.9214H4.24058V17.2902ZM5.87179 17.2902H7.50299V18.9214H5.87179V17.2902ZM9.1342 17.2902H10.7654V18.9214H9.1342V17.2902ZM14.0278 17.2902H15.659V18.9214H14.0278V17.2902ZM18.9214 17.2902H20.5526V18.9214H18.9214V17.2902ZM20.5526 17.2902H22.1838V18.9214H20.5526V17.2902ZM22.1838 17.2902H23.815V18.9214H22.1838V17.2902ZM23.815 17.2902H25.4463V18.9214H23.815V17.2902ZM25.4463 17.2902H27.0775V18.9214H25.4463V17.2902ZM27.0775 17.2902H28.7087V18.9214H27.0775V17.2902ZM28.7087 17.2902H30.3399V18.9214H28.7087V17.2902ZM31.9711 17.2902H33.6023V18.9214H31.9711V17.2902ZM33.6023 17.2902H35.2335V18.9214H33.6023V17.2902ZM36.8647 17.2902H38.4959V18.9214H36.8647V17.2902ZM40.1271 17.2902H41.7583V18.9214H40.1271V17.2902ZM41.7583 17.2902H43.3895V18.9214H41.7583V17.2902ZM12.3966 18.9214H14.0278V20.5526H12.3966V18.9214ZM20.5526 18.9214H22.1838V20.5526H20.5526V18.9214ZM27.0775 18.9214H28.7087V20.5526H27.0775V18.9214ZM30.3399 18.9214H31.9711V20.5526H30.3399V18.9214ZM33.6023 18.9214H35.2335V20.5526H33.6023V18.9214ZM36.8647 18.9214H38.4959V20.5526H36.8647V18.9214ZM38.4959 18.9214H40.1271V20.5526H38.4959V18.9214ZM41.7583 18.9214H43.3895V20.5526H41.7583V18.9214ZM2.60938 20.5526H4.24058V22.1838H2.60938V20.5526ZM4.24058 20.5526H5.87179V22.1838H4.24058V20.5526ZM9.1342 20.5526H10.7654V22.1838H9.1342V20.5526ZM14.0278 20.5526H15.659V22.1838H14.0278V20.5526ZM17.2902 20.5526H18.9214V22.1838H17.2902V20.5526ZM18.9214 20.5526H20.5526V22.1838H18.9214V20.5526ZM23.815 20.5526H25.4463V22.1838H23.815V20.5526ZM27.0775 20.5526H28.7087V22.1838H27.0775V20.5526ZM30.3399 20.5526H31.9711V22.1838H30.3399V20.5526ZM33.6023 20.5526H35.2335V22.1838H33.6023V20.5526ZM36.8647 20.5526H38.4959V22.1838H36.8647V20.5526ZM2.60938 22.1838H4.24058V23.815H2.60938V22.1838ZM4.24058 22.1838H5.87179V23.815H4.24058V22.1838ZM7.50299 22.1838H9.1342V23.815H7.50299V22.1838ZM12.3966 22.1838H14.0278V23.815H12.3966V22.1838ZM14.0278 22.1838H15.659V23.815H14.0278V22.1838ZM15.659 22.1838H17.2902V23.815H15.659V22.1838ZM17.2902 22.1838H18.9214V23.815H17.2902V22.1838ZM18.9214 22.1838H20.5526V23.815H18.9214V22.1838ZM23.815 22.1838H25.4463V23.815H23.815V22.1838ZM27.0775 22.1838H28.7087V23.815H27.0775V22.1838ZM28.7087 22.1838H30.3399V23.815H28.7087V22.1838ZM31.9711 22.1838H33.6023V23.815H31.9711V22.1838ZM33.6023 22.1838H35.2335V23.815H33.6023V22.1838ZM41.7583 22.1838H43.3895V23.815H41.7583V22.1838ZM5.87179 23.815H7.50299V25.4463H5.87179V23.815ZM7.50299 23.815H9.1342V25.4463H7.50299V23.815ZM9.1342 23.815H10.7654V25.4463H9.1342V23.815ZM18.9214 23.815H20.5526V25.4463H18.9214V23.815ZM20.5526 23.815H22.1838V25.4463H20.5526V23.815ZM22.1838 23.815H23.815V25.4463H22.1838V23.815ZM27.0775 23.815H28.7087V25.4463H27.0775V23.815ZM28.7087 23.815H30.3399V25.4463H28.7087V23.815ZM31.9711 23.815H33.6023V25.4463H31.9711V23.815ZM33.6023 23.815H35.2335V25.4463H33.6023V23.815ZM40.1271 23.815H41.7583V25.4463H40.1271V23.815ZM41.7583 23.815H43.3895V25.4463H41.7583V23.815ZM2.60938 25.4463H4.24058V27.0775H2.60938V25.4463ZM4.24058 25.4463H5.87179V27.0775H4.24058V25.4463ZM7.50299 25.4463H9.1342V27.0775H7.50299V25.4463ZM10.7654 25.4463H12.3966V27.0775H10.7654V25.4463ZM12.3966 25.4463H14.0278V27.0775H12.3966V25.4463ZM15.659 25.4463H17.2902V27.0775H15.659V25.4463ZM17.2902 25.4463H18.9214V27.0775H17.2902V25.4463ZM18.9214 25.4463H20.5526V27.0775H18.9214V25.4463ZM22.1838 25.4463H23.815V27.0775H22.1838V25.4463ZM27.0775 25.4463H28.7087V27.0775H27.0775V25.4463ZM28.7087 25.4463H30.3399V27.0775H28.7087V25.4463ZM31.9711 25.4463H33.6023V27.0775H31.9711V25.4463ZM36.8647 25.4463H38.4959V27.0775H36.8647V25.4463ZM38.4959 25.4463H40.1271V27.0775H38.4959V25.4463ZM41.7583 25.4463H43.3895V27.0775H41.7583V25.4463ZM5.87179 27.0775H7.50299V28.7087H5.87179V27.0775ZM7.50299 27.0775H9.1342V28.7087H7.50299V27.0775ZM9.1342 27.0775H10.7654V28.7087H9.1342V27.0775ZM14.0278 27.0775H15.659V28.7087H14.0278V27.0775ZM18.9214 27.0775H20.5526V28.7087H18.9214V27.0775ZM25.4463 27.0775H27.0775V28.7087H25.4463V27.0775ZM27.0775 27.0775H28.7087V28.7087H27.0775V27.0775ZM28.7087 27.0775H30.3399V28.7087H28.7087V27.0775ZM30.3399 27.0775H31.9711V28.7087H30.3399V27.0775ZM31.9711 27.0775H33.6023V28.7087H31.9711V27.0775ZM33.6023 27.0775H35.2335V28.7087H33.6023V27.0775ZM35.2335 27.0775H36.8647V28.7087H35.2335V27.0775ZM36.8647 27.0775H38.4959V28.7087H36.8647V27.0775ZM2.60938 28.7087H4.24058V30.3399H2.60938V28.7087ZM4.24058 28.7087H5.87179V30.3399H4.24058V28.7087ZM5.87179 28.7087H7.50299V30.3399H5.87179V28.7087ZM9.1342 28.7087H10.7654V30.3399H9.1342V28.7087ZM12.3966 28.7087H14.0278V30.3399H12.3966V28.7087ZM15.659 28.7087H17.2902V30.3399H15.659V28.7087ZM20.5526 28.7087H22.1838V30.3399H20.5526V28.7087ZM28.7087 28.7087H30.3399V30.3399H28.7087V28.7087ZM30.3399 28.7087H31.9711V30.3399H30.3399V28.7087ZM31.9711 28.7087H33.6023V30.3399H31.9711V28.7087ZM33.6023 28.7087H35.2335V30.3399H33.6023V28.7087ZM35.2335 28.7087H36.8647V30.3399H35.2335V28.7087ZM40.1271 28.7087H41.7583V30.3399H40.1271V28.7087ZM15.659 30.3399H17.2902V31.9711H15.659V30.3399ZM17.2902 30.3399H18.9214V31.9711H17.2902V30.3399ZM18.9214 30.3399H20.5526V31.9711H18.9214V30.3399ZM20.5526 30.3399H22.1838V31.9711H20.5526V30.3399ZM23.815 30.3399H25.4463V31.9711H23.815V30.3399ZM25.4463 30.3399H27.0775V31.9711H25.4463V30.3399ZM28.7087 30.3399H30.3399V31.9711H28.7087V30.3399ZM35.2335 30.3399H36.8647V31.9711H35.2335V30.3399ZM41.7583 30.3399H43.3895V31.9711H41.7583V30.3399ZM2.60938 31.9711H4.24058V33.6023H2.60938V31.9711ZM4.24058 31.9711H5.87179V33.6023H4.24058V31.9711ZM5.87179 31.9711H7.50299V33.6023H5.87179V31.9711ZM7.50299 31.9711H9.1342V33.6023H7.50299V31.9711ZM9.1342 31.9711H10.7654V33.6023H9.1342V31.9711ZM10.7654 31.9711H12.3966V33.6023H10.7654V31.9711ZM12.3966 31.9711H14.0278V33.6023H12.3966V31.9711ZM18.9214 31.9711H20.5526V33.6023H18.9214V31.9711ZM20.5526 31.9711H22.1838V33.6023H20.5526V31.9711ZM25.4463 31.9711H27.0775V33.6023H25.4463V31.9711ZM28.7087 31.9711H30.3399V33.6023H28.7087V31.9711ZM31.9711 31.9711H33.6023V33.6023H31.9711V31.9711ZM35.2335 31.9711H36.8647V33.6023H35.2335V31.9711ZM41.7583 31.9711H43.3895V33.6023H41.7583V31.9711ZM2.60938 33.6023H4.24058V35.2335H2.60938V33.6023ZM12.3966 33.6023H14.0278V35.2335H12.3966V33.6023ZM17.2902 33.6023H18.9214V35.2335H17.2902V33.6023ZM18.9214 33.6023H20.5526V35.2335H18.9214V33.6023ZM22.1838 33.6023H23.815V35.2335H22.1838V33.6023ZM23.815 33.6023H25.4463V35.2335H23.815V33.6023ZM28.7087 33.6023H30.3399V35.2335H28.7087V33.6023ZM35.2335 33.6023H36.8647V35.2335H35.2335V33.6023ZM40.1271 33.6023H41.7583V35.2335H40.1271V33.6023ZM2.60938 35.2335H4.24058V36.8647H2.60938V35.2335ZM5.87179 35.2335H7.50299V36.8647H5.87179V35.2335ZM7.50299 35.2335H9.1342V36.8647H7.50299V35.2335ZM9.1342 35.2335H10.7654V36.8647H9.1342V35.2335ZM12.3966 35.2335H14.0278V36.8647H12.3966V35.2335ZM17.2902 35.2335H18.9214V36.8647H17.2902V35.2335ZM18.9214 35.2335H20.5526V36.8647H18.9214V35.2335ZM25.4463 35.2335H27.0775V36.8647H25.4463V35.2335ZM27.0775 35.2335H28.7087V36.8647H27.0775V35.2335ZM28.7087 35.2335H30.3399V36.8647H28.7087V35.2335ZM30.3399 35.2335H31.9711V36.8647H30.3399V35.2335ZM31.9711 35.2335H33.6023V36.8647H31.9711V35.2335ZM33.6023 35.2335H35.2335V36.8647H33.6023V35.2335ZM35.2335 35.2335H36.8647V36.8647H35.2335V35.2335ZM40.1271 35.2335H41.7583V36.8647H40.1271V35.2335ZM41.7583 35.2335H43.3895V36.8647H41.7583V35.2335ZM2.60938 36.8647H4.24058V38.4959H2.60938V36.8647ZM5.87179 36.8647H7.50299V38.4959H5.87179V36.8647ZM7.50299 36.8647H9.1342V38.4959H7.50299V36.8647ZM9.1342 36.8647H10.7654V38.4959H9.1342V36.8647ZM12.3966 36.8647H14.0278V38.4959H12.3966V36.8647ZM17.2902 36.8647H18.9214V38.4959H17.2902V36.8647ZM18.9214 36.8647H20.5526V38.4959H18.9214V36.8647ZM20.5526 36.8647H22.1838V38.4959H20.5526V36.8647ZM22.1838 36.8647H23.815V38.4959H22.1838V36.8647ZM27.0775 36.8647H28.7087V38.4959H27.0775V36.8647ZM30.3399 36.8647H31.9711V38.4959H30.3399V36.8647ZM35.2335 36.8647H36.8647V38.4959H35.2335V36.8647ZM38.4959 36.8647H40.1271V38.4959H38.4959V36.8647ZM40.1271 36.8647H41.7583V38.4959H40.1271V36.8647ZM2.60938 38.4959H4.24058V40.1271H2.60938V38.4959ZM5.87179 38.4959H7.50299V40.1271H5.87179V38.4959ZM7.50299 38.4959H9.1342V40.1271H7.50299V38.4959ZM9.1342 38.4959H10.7654V40.1271H9.1342V38.4959ZM12.3966 38.4959H14.0278V40.1271H12.3966V38.4959ZM15.659 38.4959H17.2902V40.1271H15.659V38.4959ZM23.815 38.4959H25.4463V40.1271H23.815V38.4959ZM25.4463 38.4959H27.0775V40.1271H25.4463V38.4959ZM27.0775 38.4959H28.7087V40.1271H27.0775V38.4959ZM28.7087 38.4959H30.3399V40.1271H28.7087V38.4959ZM30.3399 38.4959H31.9711V40.1271H30.3399V38.4959ZM33.6023 38.4959H35.2335V40.1271H33.6023V38.4959ZM35.2335 38.4959H36.8647V40.1271H35.2335V38.4959ZM36.8647 38.4959H38.4959V40.1271H36.8647V38.4959ZM40.1271 38.4959H41.7583V40.1271H40.1271V38.4959ZM41.7583 38.4959H43.3895V40.1271H41.7583V38.4959ZM2.60938 40.1271H4.24058V41.7583H2.60938V40.1271ZM12.3966 40.1271H14.0278V41.7583H12.3966V40.1271ZM15.659 40.1271H17.2902V41.7583H15.659V40.1271ZM17.2902 40.1271H18.9214V41.7583H17.2902V40.1271ZM18.9214 40.1271H20.5526V41.7583H18.9214V40.1271ZM23.815 40.1271H25.4463V41.7583H23.815V40.1271ZM28.7087 40.1271H30.3399V41.7583H28.7087V40.1271ZM30.3399 40.1271H31.9711V41.7583H30.3399V40.1271ZM31.9711 40.1271H33.6023V41.7583H31.9711V40.1271ZM33.6023 40.1271H35.2335V41.7583H33.6023V40.1271ZM35.2335 40.1271H36.8647V41.7583H35.2335V40.1271ZM2.60938 41.7583H4.24058V43.3895H2.60938V41.7583ZM4.24058 41.7583H5.87179V43.3895H4.24058V41.7583ZM5.87179 41.7583H7.50299V43.3895H5.87179V41.7583ZM7.50299 41.7583H9.1342V43.3895H7.50299V41.7583ZM9.1342 41.7583H10.7654V43.3895H9.1342V41.7583ZM10.7654 41.7583H12.3966V43.3895H10.7654V41.7583ZM12.3966 41.7583H14.0278V43.3895H12.3966V41.7583ZM18.9214 41.7583H20.5526V43.3895H18.9214V41.7583ZM22.1838 41.7583H23.815V43.3895H22.1838V41.7583ZM28.7087 41.7583H30.3399V43.3895H28.7087V41.7583ZM31.9711 41.7583H33.6023V43.3895H31.9711V41.7583ZM36.8647 41.7583H38.4959V43.3895H36.8647V41.7583ZM41.7583 41.7583H43.3895V43.3895H41.7583V41.7583Z" fill="black"/>
</g>
</svg>
