<svg width="24" height="24" viewBox="0 0 24 24" fill="none" xmlns="http://www.w3.org/2000/svg">
<g id="icon/&#230;&#150;&#185;&#229;&#144;&#145;/&#229;&#136;&#183;&#230;&#150;&#176;">
<g id="Union">
<path d="M12 4C10.354 4 8.8269 4.49602 7.55626 5.34656C7.09731 5.65377 6.4762 5.53076 6.16899 5.07181C5.86178 4.61285 5.98479 3.99175 6.44374 3.68454C8.0333 2.62053 9.9457 2 12 2C17.5228 2 22 6.47715 22 12C22 13.5947 21.626 15.1049 20.96 16.445C20.7968 16.7735 20.4669 16.9862 20.1003 16.9994C19.7338 17.0125 19.3895 16.824 19.2032 16.5081L17.1387 13.0081C16.8581 12.5324 17.0162 11.9193 17.4919 11.6387C17.9676 11.3581 18.5807 11.5162 18.8613 11.9919L19.8323 13.6381C19.9422 13.1097 20 12.5619 20 12C20 7.58172 16.4183 4 12 4Z" fill="black" fill-opacity="0.65"/>
<path d="M3.89967 7.00064C4.2662 6.98749 4.61051 7.17604 4.79684 7.49195L6.86133 10.9919C7.14192 11.4676 6.98375 12.0807 6.50805 12.3613C6.03236 12.6419 5.41927 12.4838 5.13867 12.0081L4.16766 10.3619C4.05779 10.8903 4 11.4381 4 12C4 16.4183 7.58172 20 12 20C13.6371 20 15.1565 19.5093 16.423 18.6673C16.8829 18.3615 17.5036 18.4864 17.8094 18.9463C18.1152 19.4062 17.9903 20.0269 17.5304 20.3327C15.9459 21.3862 14.0431 22 12 22C6.47715 22 2 17.5228 2 12C2 10.4053 2.37401 8.89511 3.04001 7.55497C3.20323 7.22653 3.53314 7.01379 3.89967 7.00064Z" fill="black" fill-opacity="0.65"/>
</g>
</g>
</svg>
