<svg width="16" height="16" viewBox="0 0 16 16" fill="none" xmlns="http://www.w3.org/2000/svg">
<g id="icon/&#233;&#128;&#154;&#231;&#148;&#168;/&#231;&#173;&#155;&#233;&#128;&#137;">
<path id="Union" fill-rule="evenodd" clip-rule="evenodd" d="M3.14765 5.22788C2.12587 3.91416 3.06207 2 4.72636 2H11.274C12.9383 2 13.8745 3.91417 12.8527 5.22788L10.0002 8.89541V13.2546C10.0002 14.2458 8.95709 14.8905 8.07056 14.4472L6.73722 13.7805C6.28551 13.5547 6.00017 13.093 6.00017 12.588V8.89541L3.14765 5.22788ZM4.72636 3.33333C4.17159 3.33333 3.85953 3.97139 4.20012 4.40929L7.05264 8.07682C7.23468 8.31086 7.33351 8.5989 7.33351 8.89541V12.588L8.66684 13.2546V8.89541C8.66684 8.5989 8.76567 8.31086 8.9477 8.07682L11.8002 4.40929C12.1408 3.97139 11.8288 3.33333 11.274 3.33333H4.72636Z" fill="black" fill-opacity="0.45"/>
</g>
</svg>
