<svg width="20" height="20" viewBox="0 0 20 20" fill="none" xmlns="http://www.w3.org/2000/svg">
<g id="icon/&#233;&#128;&#154;&#231;&#148;&#168;/&#228;&#185;&#166;&#229;&#141;&#149;">
<g id="Union">
<path d="M7.5 5.83342C7.03976 5.83342 6.66667 6.20651 6.66667 6.66675C6.66667 7.12699 7.03976 7.50008 7.5 7.50008H12.5C12.9602 7.50008 13.3333 7.12699 13.3333 6.66675C13.3333 6.20651 12.9602 5.83342 12.5 5.83342H7.5Z" fill="black" fill-opacity="0.88"/>
<path d="M6.66667 10.0001C6.66667 9.53984 7.03976 9.16675 7.5 9.16675H12.5C12.9602 9.16675 13.3333 9.53984 13.3333 10.0001C13.3333 10.4603 12.9602 10.8334 12.5 10.8334H7.5C7.03976 10.8334 6.66667 10.4603 6.66667 10.0001Z" fill="black" fill-opacity="0.88"/>
<path d="M7.5 12.5001C7.03976 12.5001 6.66667 12.8732 6.66667 13.3334C6.66667 13.7937 7.03976 14.1667 7.5 14.1667H10C10.4602 14.1667 10.8333 13.7937 10.8333 13.3334C10.8333 12.8732 10.4602 12.5001 10 12.5001H7.5Z" fill="black" fill-opacity="0.88"/>
<path fill-rule="evenodd" clip-rule="evenodd" d="M5 1.66675C3.61929 1.66675 2.5 2.78604 2.5 4.16675V15.8334C2.5 17.2141 3.61929 18.3334 5 18.3334H15C16.3807 18.3334 17.5 17.2141 17.5 15.8334V4.16675C17.5 2.78604 16.3807 1.66675 15 1.66675H5ZM4.16667 4.16675C4.16667 3.70651 4.53976 3.33341 5 3.33341H15C15.4602 3.33341 15.8333 3.70651 15.8333 4.16675V15.8334C15.8333 16.2937 15.4602 16.6667 15 16.6667H5C4.53976 16.6667 4.16667 16.2937 4.16667 15.8334V4.16675Z" fill="black" fill-opacity="0.88"/>
</g>
</g>
</svg>
