<svg width="20" height="20" viewBox="0 0 20 20" fill="none" xmlns="http://www.w3.org/2000/svg">
<g id="icon/&#233;&#128;&#154;&#231;&#148;&#168;/&#230;&#142;&#146;&#229;&#186;&#143;-fill">
<path id="Outlined" fill-rule="evenodd" clip-rule="evenodd" d="M18.334 9.99984C18.334 14.6022 14.6031 18.3332 10.0007 18.3332C5.39832 18.3332 1.66736 14.6022 1.66736 9.99984C1.66736 5.39746 5.39832 1.6665 10.0007 1.6665C14.6031 1.6665 18.334 5.39746 18.334 9.99984ZM6.66762 5.83296C6.20738 5.83296 5.83429 6.20606 5.83429 6.6663C5.83429 7.12653 6.20738 7.49963 6.66762 7.49963H13.3343C13.7945 7.49963 14.1676 7.12653 14.1676 6.6663C14.1676 6.20606 13.7945 5.83296 13.3343 5.83296H6.66762ZM6.66742 9.1663C6.20718 9.1663 5.83408 9.53939 5.83408 9.99963C5.83408 10.4599 6.20718 10.833 6.66742 10.833H13.3341C13.7943 10.833 14.1674 10.4599 14.1674 9.99963C14.1674 9.53939 13.7943 9.1663 13.3341 9.1663H6.66742ZM5.83408 13.3297C5.83408 12.8695 6.20718 12.4964 6.66742 12.4964H13.3341C13.7943 12.4964 14.1674 12.8695 14.1674 13.3297C14.1674 13.7899 13.7943 14.163 13.3341 14.163H6.66742C6.20718 14.163 5.83408 13.7899 5.83408 13.3297Z" fill="black" fill-opacity="0.25"/>
</g>
</svg>
