<svg width="24" height="24" viewBox="0 0 24 24" fill="none" xmlns="http://www.w3.org/2000/svg">
<g id="icon/&#229;&#170;&#146;&#228;&#189;&#147;/&#229;&#128;&#141;&#233;&#128;&#159;">
<path id="Union" fill-rule="evenodd" clip-rule="evenodd" d="M3.75 12C3.75 7.44365 7.44365 3.75 12 3.75C16.5563 3.75 20.25 7.44365 20.25 12C20.25 14.9493 18.7029 17.5378 16.3725 18.9974C16.0215 19.2172 15.9151 19.6801 16.135 20.0311C16.3549 20.3822 16.8177 20.4885 17.1687 20.2686C19.9186 18.5463 21.75 15.4873 21.75 12C21.75 6.61522 17.3848 2.25 12 2.25C6.61522 2.25 2.25 6.61522 2.25 12C2.25 15.4873 4.08138 18.5463 6.83127 20.2686C7.18231 20.4885 7.64513 20.3822 7.86499 20.0311C8.08486 19.6801 7.97852 19.2172 7.62748 18.9974C5.29705 17.5378 3.75 14.9493 3.75 12ZM12 20C12.8284 20 13.5 19.3284 13.5 18.5C13.5 17.6716 12 10 12 10C12 10 10.5 17.6716 10.5 18.5C10.5 19.3284 11.1716 20 12 20Z" fill="black"/>
</g>
</svg>
