<svg width="80" height="80" viewBox="0 0 80 80" fill="none" xmlns="http://www.w3.org/2000/svg">
<g id="icon/&#229;&#170;&#146;&#228;&#189;&#147;/&#230;&#154;&#130;&#229;&#129;&#156;">
<path id="Union" fill-rule="evenodd" clip-rule="evenodd" d="M40 68C55.464 68 68 55.464 68 40C68 24.536 55.464 12 40 12C24.536 12 12 24.536 12 40C12 55.464 24.536 68 40 68ZM40 70C56.5685 70 70 56.5685 70 40C70 23.4315 56.5685 10 40 10C23.4315 10 10 23.4315 10 40C10 56.5685 23.4315 70 40 70Z" fill="black" fill-opacity="0.88"/>
<path id="&#231;&#159;&#169;&#229;&#189;&#162; 2" fill-rule="evenodd" clip-rule="evenodd" d="M34.5 50C35.88 50 37 48.88 37 47.5V32.5C37 31.12 35.88 30 34.5 30C33.12 30 32 31.12 32 32.5V47.5C32 48.88 33.12 50 34.5 50Z" fill="black" fill-opacity="0.88"/>
<path id="&#231;&#159;&#169;&#229;&#189;&#162; 1" fill-rule="evenodd" clip-rule="evenodd" d="M45.5 50C46.88 50 48 48.88 48 47.5V32.5C48 31.12 46.88 30 45.5 30C44.12 30 43 31.12 43 32.5V47.5C43 48.88 44.12 50 45.5 50Z" fill="black" fill-opacity="0.88"/>
</g>
</svg>
