<svg width="18" height="23" viewBox="0 0 18 23" fill="none" xmlns="http://www.w3.org/2000/svg">
<path fill-rule="evenodd" clip-rule="evenodd" d="M0 3.01562C0 1.35877 1.34315 0.015625 3 0.015625H15C16.6569 0.015625 18 1.35877 18 3.01562V19.08C18 21.3745 15.529 22.8196 13.5292 21.6948L9.49026 19.4228C9.18585 19.2516 8.81415 19.2516 8.50974 19.4228L4.47078 21.6948C2.47097 22.8197 0 21.3745 0 19.08V3.01562ZM10 6.99973C10 6.44744 9.55228 5.99973 9 5.99973C8.44772 5.99973 8 6.44744 8 6.99973V8.99973H6C5.44772 8.99973 5 9.44745 5 9.99973C5 10.552 5.44772 10.9997 6 10.9997H8V12.9997C8 13.552 8.44772 13.9997 9 13.9997C9.55228 13.9997 10 13.552 10 12.9997V10.9997H12C12.5523 10.9997 13 10.552 13 9.99973C13 9.44745 12.5523 8.99973 12 8.99973H10V6.99973Z" fill="#24B277"/>
</svg>
