<?xml version="1.0" encoding="UTF-8" standalone="no"?>
<svg
   width="24"
   height="24"
   viewBox="0 0 24 24"
   fill="none"
   version="1.1"
   id="svg1"
   sodipodi:docname="SUB_theme.svg"
   inkscape:version="1.4 (86a8ad7, 2024-10-11)"
   xmlns:inkscape="http://www.inkscape.org/namespaces/inkscape"
   xmlns:sodipodi="http://sodipodi.sourceforge.net/DTD/sodipodi-0.dtd"
   xmlns="http://www.w3.org/2000/svg"
   xmlns:svg="http://www.w3.org/2000/svg">
  <defs
     id="defs1" />
  <sodipodi:namedview
     id="namedview1"
     pagecolor="#ffffff"
     bordercolor="#000000"
     borderopacity="0.25"
     inkscape:showpageshadow="2"
     inkscape:pageopacity="0.0"
     inkscape:pagecheckerboard="0"
     inkscape:deskcolor="#d1d1d1"
     inkscape:zoom="51.333333"
     inkscape:cx="12"
     inkscape:cy="12"
     inkscape:window-width="2520"
     inkscape:window-height="1556"
     inkscape:window-x="-12"
     inkscape:window-y="-12"
     inkscape:window-maximized="1"
     inkscape:current-layer="svg1" />
  <path
     fill-rule="evenodd"
     clip-rule="evenodd"
     d="M 3,3.999995 C 3,2.343145 4.34315,1 6,1 h 12 c 1.6569,0 3,1.343145 3,2.999995 v 16.064379 c 0,2.2945 -2.471,3.7396 -4.4708,2.6148 l -4.03894,-2.272 c -0.30441,-0.1712 -0.67611,-0.1712 -0.98052,0 l -4.03896,2.272 C 5.47097,23.804074 3,22.358874 3,20.064374 Z m 10,3.98411 c 0,-0.55229 -0.44772,-1 -1,-1 -0.55228,0 -1,0.44771 -1,1 V 9.9841043 H 9 c -0.55228,0 -1,0.4477197 -1,0.9999997 0,0.55227 0.44772,0.99997 1,0.99997 h 2 v 2 c 0,0.5523 0.44772,1 1,1 0.55228,0 1,-0.4477 1,-1 v -2 h 2 c 0.5523,0 1,-0.4477 1,-0.99997 0,-0.55228 -0.4477,-0.9999997 -1,-0.9999997 h -2 z"
     fill="#24b277"
     id="path1" />
</svg>
