<svg width="24" height="24" viewBox="0 0 24 24" fill="none" xmlns="http://www.w3.org/2000/svg">
<g id="&#232;&#184;&#169;">
<path id="Union" fill-rule="evenodd" clip-rule="evenodd" d="M12.3879 21.7999C12.9567 22.1412 13.6958 21.9052 13.9616 21.2976L17.1539 14.0009H18.9999C20.6568 14.0009 21.9999 12.6578 21.9999 11.0009V5.00094C21.9999 3.34409 20.6568 2.00094 18.9999 2.00094H6.1821C4.72357 2.00094 3.47637 3.04996 3.22647 4.48692L1.92212 11.9869C1.60302 13.8218 3.01537 15.5009 4.87775 15.5009H9.49991V18.3686C9.49991 19.4223 10.0528 20.3989 10.9564 20.941L12.3879 21.7999ZM15.4161 12.9834L12.5395 19.5585L11.9854 19.2261C11.6842 19.0453 11.4999 18.7198 11.4999 18.3686V15.5009C11.4999 14.3964 10.6045 13.5009 9.49991 13.5009H4.87775C4.25696 13.5009 3.78617 12.9412 3.89254 12.3296L5.19689 4.8296C5.28019 4.35061 5.69593 4.00094 6.1821 4.00094H15.4999V12.5826C15.4999 12.7205 15.4714 12.857 15.4161 12.9834ZM17.4999 4.00094V12.0009H18.9999C19.5522 12.0009 19.9999 11.5532 19.9999 11.0009V5.00094C19.9999 4.44866 19.5522 4.00094 18.9999 4.00094H17.4999Z" fill="black" fill-opacity="0.45"/>
</g>
</svg>
