<svg width="20" height="20" viewBox="0 0 20 20" fill="none" xmlns="http://www.w3.org/2000/svg">
<g id="icon/&#233;&#128;&#154;&#231;&#148;&#168;/&#229;&#183;&#178;&#229;&#138;&#160;&#228;&#185;&#166;&#230;&#158;&#182;">
<g id="Union">
<path fill-rule="evenodd" clip-rule="evenodd" d="M1.86245 3.8872C1.50163 3.2782 1.93769 2.5 2.65275 2.5H15.0008C16.8418 2.5 18.3341 3.99238 18.3341 5.83333C18.3341 7.67428 16.8418 9.16667 15.0008 9.16667H2.65275C1.93771 9.16667 1.50162 8.38848 1.86245 7.77946C1.96515 7.60612 2.15978 7.25998 2.32636 6.86759C2.50187 6.45415 2.60498 6.0834 2.60498 5.83333C2.60498 5.58327 2.50187 5.21251 2.32636 4.79907C2.15978 4.40669 1.96515 4.06054 1.86245 3.8872ZM3.86849 4.16667C4.06378 4.62996 4.27165 5.24553 4.27165 5.83333C4.27165 6.42114 4.06378 7.0367 3.86849 7.5H15.0008C15.9213 7.5 16.6675 6.75381 16.6675 5.83333C16.6675 4.91286 15.9213 4.16667 15.0008 4.16667H3.86849Z" fill="black" fill-opacity="0.25"/>
<path d="M18.1392 12.2205C18.5 11.6115 18.0639 10.8333 17.3489 10.8333H5.00081C3.15986 10.8333 1.66748 12.3257 1.66748 14.1667C1.66748 16.0076 3.15986 17.5 5.00081 17.5H5.78206C6.2423 17.5 6.6154 17.1269 6.6154 16.6667C6.6154 16.2064 6.2423 15.8333 5.78206 15.8333H5.00081C4.08034 15.8333 3.33415 15.0871 3.33415 14.1667C3.33415 13.2462 4.08034 12.5 5.00081 12.5H16.1331C15.9378 12.9633 15.73 13.5789 15.73 14.1667C15.73 14.7545 15.9378 15.37 16.1331 15.8333H14.1675C13.7072 15.8333 13.3341 16.2064 13.3341 16.6667C13.3341 17.1269 13.7072 17.5 14.1675 17.5H17.3489C18.0639 17.5 18.5 16.7218 18.1392 16.1128C18.0365 15.9395 17.8418 15.5933 17.6753 15.2009C17.4998 14.7875 17.3966 14.4167 17.3966 14.1667C17.3966 13.9166 17.4998 13.5458 17.6753 13.1324C17.8418 12.74 18.0365 12.3939 18.1392 12.2205Z" fill="black" fill-opacity="0.25"/>
<path d="M12.6734 16.0059C12.9988 15.6805 12.9988 15.1528 12.6734 14.8274C12.348 14.502 11.8203 14.502 11.4949 14.8274L9.58415 16.7382L8.9234 16.0774C8.59797 15.752 8.07033 15.752 7.74489 16.0774C7.41945 16.4028 7.41945 16.9305 7.74489 17.2559L8.99489 18.5059C9.32033 18.8314 9.84797 18.8314 10.1734 18.5059L12.6734 16.0059Z" fill="black" fill-opacity="0.25"/>
</g>
</g>
</svg>
