<svg width="26" height="12" viewBox="0 0 26 12" fill="none" xmlns="http://www.w3.org/2000/svg">
<path id="Union" opacity="0.5" fill-rule="evenodd" clip-rule="evenodd" d="M19.0402 5.57046e-07H19.0402H4.95984H4.95981C4.29395 -1.37525e-05 3.73444 -2.5777e-05 3.27657 0.0373833C2.79785 0.0764964 2.34289 0.161437 1.91103 0.381479C1.25247 0.717036 0.717036 1.25247 0.381479 1.91103C0.161437 2.34289 0.0764964 2.79785 0.0373833 3.27657C-2.57761e-05 3.73444 -1.37525e-05 4.29395 5.57046e-07 4.95981V4.95984V7.04016V7.04019C-1.37525e-05 7.70605 -2.5777e-05 8.26556 0.0373833 8.72343C0.0764964 9.20215 0.161437 9.65711 0.381479 10.089C0.717036 10.7475 1.25247 11.283 1.91103 11.6185C2.34289 11.8386 2.79785 11.9235 3.27657 11.9626C3.73445 12 4.29398 12 4.95987 12H19.0401C19.706 12 20.2656 12 20.7234 11.9626C21.2022 11.9235 21.6571 11.8386 22.089 11.6185C22.7475 11.283 23.283 10.7475 23.6185 10.089C23.8386 9.65711 23.9235 9.20215 23.9626 8.72343C24 8.26557 24 7.70606 24 7.04021V7.04018V4.95982V4.95979C24 4.29394 24 3.73444 23.9626 3.27657C23.9235 2.79785 23.8386 2.34289 23.6185 1.91103C23.283 1.25247 22.7475 0.717036 22.089 0.381479C21.6571 0.161437 21.2022 0.0764964 20.7234 0.0373833C20.2656 -2.57761e-05 19.7061 -1.37525e-05 19.0402 5.57046e-07ZM1 5C1 3.59987 1 2.8998 1.27249 2.36503C1.51217 1.89462 1.89462 1.51217 2.36503 1.27249C2.8998 1 3.59987 1 5 1H19C20.4001 1 21.1002 1 21.635 1.27249C22.1054 1.51217 22.4878 1.89462 22.7275 2.36503C23 2.8998 23 3.59987 23 5V7C23 8.40013 23 9.1002 22.7275 9.63498C22.4878 10.1054 22.1054 10.4878 21.635 10.7275C21.1002 11 20.4001 11 19 11H5C3.59987 11 2.8998 11 2.36503 10.7275C1.89462 10.4878 1.51217 10.1054 1.27249 9.63498C1 9.1002 1 8.40013 1 7V5ZM25.1213 7.89737C25.0819 7.93262 25.0414 7.96684 25 8V4C25.0414 4.03316 25.0819 4.06738 25.1213 4.10263C25.3999 4.3518 25.6209 4.6476 25.7716 4.97315C25.9224 5.2987 26 5.64763 26 6C26 6.35237 25.9224 6.7013 25.7716 7.02685C25.6209 7.3524 25.3999 7.6482 25.1213 7.89737Z" fill="black" fill-opacity="0.88"/>
</svg>
