<svg width="54" height="54" viewBox="0 0 54 54" fill="none" xmlns="http://www.w3.org/2000/svg">
    <g clip-path="url(#clip0_52_141094)">
        <path fill-rule="evenodd" clip-rule="evenodd" d="M8.93099 47.0553C9.81121 47.8602 10.7464 48.5942 11.7338 49.2645L12.0639 49.4961C16.3404 52.3366 21.4697 54 26.9942 54C31.6979 54 36.1148 52.8013 39.9658 50.6905C40.5695 50.3546 41.1645 49.9985 41.7421 49.6206C43.643 48.3901 45.3658 46.9105 46.8888 45.2514C47.1103 45.0097 47.326 44.7664 47.5301 44.5116C47.8327 44.1714 48.1136 43.8269 48.3901 43.4649C49.9391 41.4671 51.2088 39.2579 52.1426 36.8706C53.3413 33.8144 54 30.4832 54 27.0058C54 12.0899 41.9101 0 26.9942 0C12.0899 0 0 12.0899 0 27.0058C0 33.8955 2.58129 40.1757 6.90129 45.0299C7.08949 45.2355 7.27914 45.4411 7.46879 45.6466C7.84665 46.0346 8.23464 46.4183 8.64 46.7903C8.64 46.7903 8.82965 46.9699 8.93099 47.0553Z" fill="#EDDDD6"/>
        <path fill-rule="evenodd" clip-rule="evenodd" d="M26.999 53.9994C31.7012 53.9994 36.1124 52.8007 39.9634 50.6871C40.57 50.357 41.1621 49.9979 41.7412 49.623C43.6406 48.3895 45.3634 46.9128 46.8893 45.2494C45.4661 41.6475 43.3105 37.5953 41.8164 34.9315C40.7437 33.0191 39.1396 31.7465 37.3502 31.3918C33.0056 30.5348 26.9672 29.7993 22.0478 30.1584C18.1853 30.4494 14.6847 32.5457 12.6029 35.8103C10.8019 38.6319 8.49135 42.5697 7.4707 45.6446C7.84566 46.037 8.2351 46.4206 8.64191 46.7912C8.64191 46.7912 8.83011 46.9708 8.92856 47.0562C9.81167 47.8611 10.7469 48.598 11.7313 49.2639C11.8428 49.345 11.9528 49.4188 12.0629 49.4956C16.3438 52.3389 21.4716 53.9994 26.999 53.9994Z" fill="#F7734F"/>
        <path fill-rule="evenodd" clip-rule="evenodd" d="M34.9042 8.52208C35.7352 8.7291 36.3606 7.20465 34.9042 6.58068C33.4478 5.95527 33.6867 7.48117 33.6867 7.48117C33.6867 7.48117 34.0718 8.31361 34.9042 8.52208Z" fill="#7772D3"/>
        <path fill-rule="evenodd" clip-rule="evenodd" d="M31.1177 14.6335L29.8423 19.2634C29.8423 19.2634 32.5669 21.6043 34.4185 21.4147C36.2702 21.225 36.4989 17.112 36.4989 17.112L31.1177 14.6335Z" fill="black"/>
        <path fill-rule="evenodd" clip-rule="evenodd" d="M25.9384 12.7525C25.9384 12.7525 14.5173 8.86823 15.4178 11.4336C16.3197 14.0004 22.3639 15.9419 22.3639 15.9419L25.9384 12.7525Z" fill="#5C5CC6"/>
        <path fill-rule="evenodd" clip-rule="evenodd" d="M29.5605 25.0808L22.7301 26.5198L22.3161 29.7034L21.8948 32.9694C21.8948 32.9694 22.8778 33.6137 25.6907 33.4096C29.4693 33.1374 30.6491 31.2915 30.6491 31.2915L31.1182 24.7507L29.5605 25.0808Z" fill="#F49282"/>
        <path fill-rule="evenodd" clip-rule="evenodd" d="M22.7297 26.5198L22.3157 29.7034C23.9415 29.5731 27.8952 28.9129 29.3675 25.7019C29.4747 25.4645 29.5427 25.2574 29.5601 25.0808L22.7297 26.5198Z" fill="black"/>
        <path fill-rule="evenodd" clip-rule="evenodd" d="M19.2593 24.3646C20.5535 28.8728 24.6636 28.1344 27.1189 27.2455C29.5757 26.3566 30.7078 24.8394 30.7078 24.8394C30.7078 24.8394 33.0112 25.6038 34.5371 23.4554C36.0601 21.307 35.0973 18.8589 33.7799 18.3044C32.4639 17.7499 30.9076 18.7083 30.9076 18.7083L32.1179 16.363C32.1179 16.363 26.8902 4.52788 21.4221 11.7969C21.4221 11.7969 17.9635 19.8578 19.2593 24.3646Z" fill="#F49282"/>
        <path fill-rule="evenodd" clip-rule="evenodd" d="M31.2849 22.1737L34.2122 20.1092C34.3425 20.0166 34.3729 19.8356 34.2802 19.7053C34.189 19.5736 34.0066 19.5432 33.8777 19.6358L30.9519 21.7017C30.8201 21.7929 30.7897 21.9739 30.8824 22.1042C30.9374 22.1853 31.0272 22.2272 31.1184 22.2272C31.1763 22.2272 31.2356 22.2099 31.2849 22.1737Z" fill="black"/>
        <path fill-rule="evenodd" clip-rule="evenodd" d="M34.0488 22C34.0893 21.8451 33.9967 21.6859 33.8432 21.6453L31.9337 21.1343C31.7758 21.0952 31.6195 21.1864 31.579 21.3399C31.537 21.4948 31.6296 21.654 31.7845 21.6946L33.6941 22.2056C33.7187 22.2114 33.7447 22.2143 33.7679 22.2143C33.8968 22.2143 34.014 22.1289 34.0488 22Z" fill="black"/>
        <path fill-rule="evenodd" clip-rule="evenodd" d="M24.8993 15.2209C24.8993 15.2209 25.28 14.9357 25.7317 14.9936C26.0357 15.0355 26.3166 15.2237 26.5685 15.5567C26.6264 15.632 26.7118 15.6711 26.8001 15.6711C26.8609 15.6711 26.9232 15.6523 26.9739 15.6132C27.1027 15.5162 27.1273 15.3352 27.0303 15.2078C26.68 14.7446 26.2659 14.4782 25.8012 14.4188C25.1107 14.3262 24.5663 14.7474 24.5431 14.7648C24.4186 14.8633 24.3969 15.0442 24.4939 15.1687C24.5924 15.2961 24.7748 15.3179 24.8993 15.2209Z" fill="black"/>
        <path fill-rule="evenodd" clip-rule="evenodd" d="M21.9546 14.5643C21.9386 14.5353 21.7837 14.2704 21.4348 14.2023C21.1134 14.1401 20.7501 14.2675 20.3606 14.5831C20.2361 14.6844 20.2173 14.8654 20.3186 14.9899C20.3766 15.0608 20.4591 15.097 20.543 15.097C20.6067 15.097 20.6719 15.0768 20.7255 15.0333C21.0469 14.7727 21.2322 14.7525 21.3147 14.7684C21.4015 14.7814 21.4435 14.8408 21.4508 14.8509C21.5289 14.987 21.7012 15.0333 21.8402 14.9581C21.9806 14.8813 22.0313 14.7047 21.9546 14.5643Z" fill="black"/>
        <path fill-rule="evenodd" clip-rule="evenodd" d="M21.751 21.776C21.9044 21.734 21.9971 21.5747 21.9537 21.4213C21.544 19.8925 22.1448 18.2537 22.1506 18.2377C22.207 18.0872 22.1303 17.9207 21.9812 17.8657C21.8321 17.8092 21.6641 17.8845 21.6091 18.0351C21.5816 18.1074 20.9359 19.8592 21.3963 21.5704C21.4296 21.7007 21.5469 21.7847 21.6757 21.7847C21.7003 21.7847 21.7249 21.7818 21.751 21.776Z" fill="black"/>
        <path fill-rule="evenodd" clip-rule="evenodd" d="M20.8232 17.9791L21.2401 16.501C21.2836 16.349 21.1938 16.1883 21.0404 16.1449C20.8883 16.1 20.7262 16.1897 20.6828 16.3447L20.2658 17.8213C20.2224 17.9748 20.3122 18.134 20.4656 18.1789C20.4917 18.1862 20.5177 18.189 20.5438 18.189C20.6712 18.189 20.787 18.1065 20.8232 17.9791Z" fill="black"/>
        <path fill-rule="evenodd" clip-rule="evenodd" d="M25.559 18.1082L25.976 16.6315C26.0194 16.478 25.9297 16.3188 25.7747 16.2753C25.6227 16.2319 25.462 16.3217 25.4186 16.4751L25.0017 17.9518C24.9582 18.1053 25.048 18.2645 25.2015 18.3079C25.2275 18.3166 25.2536 18.3195 25.2796 18.3195C25.407 18.3195 25.5228 18.2356 25.559 18.1082Z" fill="black"/>
        <path fill-rule="evenodd" clip-rule="evenodd" d="M30.9092 18.7096L32.5003 18.158L33.6874 15.8474L29.1372 10.8557L23.6692 8.52197L20.9619 11.5332V12.9679C20.9619 12.9679 21.4397 12.3237 23.0481 12.3266C24.6579 12.3309 25.5888 13.4732 25.5888 13.4732C25.5888 13.4732 25.7235 16.3918 27.8994 17.8496C30.0768 19.3104 30.9092 18.7096 30.9092 18.7096Z" fill="black"/>
        <path fill-rule="evenodd" clip-rule="evenodd" d="M25.5486 22.3116C25.6181 22.1683 25.5573 21.996 25.4125 21.9251C25.2692 21.857 25.0955 21.9178 25.026 22.0612C24.4845 23.1904 23.2322 23.0818 23.1816 23.0789C23.0252 23.0601 22.8804 23.1774 22.8645 23.3381C22.8486 23.4959 22.963 23.6377 23.1222 23.6537C23.1222 23.6537 23.2004 23.6609 23.3046 23.6609C23.7621 23.6609 24.9594 23.5378 25.5486 22.3116Z" fill="black"/>
        <path fill-rule="evenodd" clip-rule="evenodd" d="M32.8137 16.5653L36.4981 17.7596C36.4981 17.7596 39.2039 7.48223 31.1184 6.09387C23.0343 4.7084 20.7527 11.1898 20.7527 11.1898L32.8137 16.5653Z" fill="#7772D3"/>
        <path fill-rule="evenodd" clip-rule="evenodd" d="M19.5086 13.7348C19.5086 13.7348 20.3208 13.2642 21.5731 13.2498C24.8377 13.2107 33.2301 16.7344 33.2301 16.7344C33.2301 16.7344 31.0383 15.3765 28.5236 14.2125C21.23 10.8364 18.4011 10.7322 18.4011 10.7322L19.5086 13.7348Z" fill="#5C5CC6"/>
        <path fill-rule="evenodd" clip-rule="evenodd" d="M30.8209 31.6454C30.9498 31.5499 30.9773 31.3704 30.8817 31.2401C30.7876 31.1127 30.6052 31.0866 30.4778 31.1807C26.7847 33.9155 22.0101 32.8195 21.9609 32.808C21.806 32.7718 21.6496 32.8673 21.6134 33.0222C21.5758 33.1786 21.6713 33.3349 21.8262 33.3711C21.9174 33.3943 22.9265 33.6259 24.3641 33.6259C26.168 33.6259 28.6436 33.2597 30.8209 31.6454Z" fill="#46467F"/>
    </g>
    <defs>
        <clipPath id="clip0_52_141094">
            <rect width="54" height="54" fill="white"/>
        </clipPath>
    </defs>
</svg>
