<svg width="40" height="40" viewBox="0 0 40 40" fill="none" xmlns="http://www.w3.org/2000/svg">
    <path d="M20.69 8.33333H35C35.442 8.33333 35.8659 8.50893 36.1785 8.82149C36.4911 9.13405 36.6666 9.55797 36.6666 10V33.3333C36.6666 33.7754 36.4911 34.1993 36.1785 34.5118C35.8659 34.8244 35.442 35 35 35H4.99998C4.55795 35 4.13403 34.8244 3.82147 34.5118C3.50891 34.1993 3.33331 33.7754 3.33331 33.3333V6.66667C3.33331 6.22464 3.50891 5.80072 3.82147 5.48816C4.13403 5.17559 4.55795 5 4.99998 5H17.3566L20.69 8.33333ZM13.3333 20V23.3333H26.6666V20H13.3333Z" fill="#FF9500"/>
</svg>
