<svg width="24" height="24" viewBox="0 0 24 24" fill="none" xmlns="http://www.w3.org/2000/svg">
<g id="Group">
<path id="Vector" d="M10 14.6762V14.6142C10 12.1062 12.016 9.99619 14.753 9.3812C14.389 7.0792 11.959 5.2002 8.9 5.2002C5.58 5.2002 3 7.4132 3 9.9802C3 10.9492 3.36 11.8802 4.04 12.6782C4.072 12.7162 4.123 12.7722 4.192 12.8432C4.7799 13.4474 5.13488 14.2402 5.194 15.0812C5.90809 14.6684 6.74197 14.5124 7.557 14.6392C7.723 14.6652 7.859 14.6852 7.962 14.6992C8.63908 14.7871 9.32518 14.7791 10 14.6752V14.6762ZM10.457 16.6272C9.54728 16.7834 8.61924 16.8019 7.704 16.6822C7.5524 16.6617 7.40106 16.6393 7.25 16.6152C6.87628 16.557 6.49398 16.632 6.17 16.8272L4.266 17.9752C4.11936 18.0655 3.94764 18.1066 3.776 18.0922C3.67219 18.0844 3.57095 18.0561 3.47809 18.0091C3.38522 17.962 3.30255 17.8971 3.23483 17.818C3.1671 17.739 3.11565 17.6473 3.08341 17.5483C3.05118 17.4494 3.03881 17.345 3.047 17.2412L3.197 15.4602C3.21569 15.2368 3.18617 15.012 3.11043 14.801C3.03469 14.59 2.9145 14.3977 2.758 14.2372C2.67488 14.1525 2.5945 14.0651 2.517 13.9752C1.563 12.8552 1 11.4732 1 9.9792C1 6.2352 4.537 3.2002 8.9 3.2002C12.96 3.2002 16.303 5.8272 16.75 9.2082C20.122 9.3612 22.8 11.7232 22.8 14.6142C22.8 15.8072 22.344 16.9102 21.571 17.8042C21.52 17.8642 21.455 17.9342 21.376 18.0142C21.2496 18.1415 21.1523 18.2946 21.0909 18.4631C21.0294 18.6316 21.0052 18.8114 21.02 18.9902L21.141 20.4132C21.1471 20.4966 21.1367 20.5804 21.1103 20.6598C21.084 20.7392 21.0422 20.8126 20.9873 20.8758C20.9325 20.939 20.8657 20.9907 20.7909 21.028C20.716 21.0653 20.6345 21.0875 20.551 21.0932C20.4121 21.1046 20.2731 21.0717 20.154 20.9992L18.611 20.0822C18.348 19.9265 18.0391 19.8668 17.737 19.9132C17.59 19.9362 17.467 19.9532 17.369 19.9662C17.053 20.0062 16.729 20.0282 16.4 20.0282C13.706 20.0282 11.402 18.6202 10.457 16.6272ZM17.434 17.9372C17.9983 17.8503 18.5755 17.9103 19.11 18.1112C19.2502 17.544 19.5408 17.0252 19.951 16.6092C20.001 16.5592 20.038 16.5192 20.057 16.4972C20.546 15.9322 20.8 15.2842 20.8 14.6142C20.8 12.8102 18.897 11.2002 16.4 11.2002C13.903 11.2002 12 12.8102 12 14.6142C12 16.4182 13.903 18.0282 16.4 18.0282C16.641 18.0282 16.88 18.0122 17.114 17.9822C17.194 17.9722 17.302 17.9572 17.434 17.9362V17.9372Z" fill="#24B277"/>
</g>
</svg>
