<svg width="28" height="28" viewBox="0 0 28 28" fill="none" xmlns="http://www.w3.org/2000/svg">
<g clip-path="url(#clip0_4429_207591)">
<path d="M0.804932 8.16316C4.5372 5.13953 9.19658 3.49289 13.9999 3.49999C18.9991 3.49999 23.5899 5.24649 27.1949 8.16316L25.7296 9.97849C22.4118 7.29058 18.2699 5.82684 13.9999 5.83333C9.5561 5.83333 5.47626 7.38499 2.27026 9.97849L0.804932 8.16316ZM4.46943 12.7015C7.16513 10.5175 10.5305 9.32812 13.9999 9.33333C17.6096 9.33333 20.9253 10.5945 23.5304 12.7003L22.0639 14.5157C19.7829 12.668 16.9354 11.662 13.9999 11.6667C10.9456 11.6667 8.13976 12.7342 5.93593 14.5157L4.46943 12.7003V12.7015ZM8.1351 17.2398C9.79392 15.8957 11.8649 15.1636 13.9999 15.1667C16.2213 15.1667 18.2618 15.9425 19.8648 17.2387L18.3983 19.054C17.1541 18.0463 15.601 17.4975 13.9999 17.5C12.3339 17.5 10.8033 18.0822 9.6016 19.054L8.1351 17.2387V17.2398ZM11.8008 21.7782C12.4227 21.2738 13.1992 20.999 13.9999 21C14.8329 21 15.5983 21.2917 16.1991 21.777L13.9999 24.5L11.8008 21.777V21.7782Z" fill="url(#paint0_linear_4429_207591)"/>
</g>
<defs>
<linearGradient id="paint0_linear_4429_207591" x1="13.9999" y1="3.49997" x2="13.9999" y2="24.5" gradientUnits="userSpaceOnUse">
<stop stop-color="#188BFF"/>
<stop offset="1" stop-color="#87C3FF"/>
</linearGradient>
<clipPath id="clip0_4429_207591">
<rect width="28" height="28" fill="white"/>
</clipPath>
</defs>
</svg>
