<svg width="29" height="28" viewBox="0 0 29 28" fill="none" xmlns="http://www.w3.org/2000/svg">
<path fill-rule="evenodd" clip-rule="evenodd" d="M19.3975 2.67522C19.1787 2.45626 18.8818 2.33327 18.5722 2.33333C18.2626 2.33339 17.9657 2.45649 17.7469 2.67553L5.67479 14.7621C5.4563 14.9809 5.33358 15.2774 5.33358 15.5866V19.8333C5.33358 20.4777 5.85591 21 6.50024 21H10.7686C11.0781 21 11.3749 20.877 11.5938 20.6581L23.6587 8.58783C24.1141 8.13226 24.1141 7.39385 23.6587 6.93828L19.3975 2.67522ZM7.66691 16.0694L18.5727 5.15059L21.184 7.76305L10.2852 18.6667H7.66691V16.0694Z" fill="url(#paint0_linear_4429_207612)"/>
<path d="M4.16691 23.3333C3.52258 23.3333 3.00024 23.8557 3.00024 24.5C3.00024 25.1443 3.52258 25.6667 4.16691 25.6667H25.1669C25.8112 25.6667 26.3336 25.1443 26.3336 24.5C26.3336 23.8557 25.8112 23.3333 25.1669 23.3333H4.16691Z" fill="url(#paint1_linear_4429_207612)"/>
<defs>
<linearGradient id="paint0_linear_4429_207612" x1="14.6669" y1="2.33333" x2="14.6669" y2="25.6667" gradientUnits="userSpaceOnUse">
<stop stop-color="#24B277"/>
<stop offset="1" stop-color="#8DD7B8"/>
</linearGradient>
<linearGradient id="paint1_linear_4429_207612" x1="14.6669" y1="2.33333" x2="14.6669" y2="25.6667" gradientUnits="userSpaceOnUse">
<stop stop-color="#24B277"/>
<stop offset="1" stop-color="#8DD7B8"/>
</linearGradient>
</defs>
</svg>
