<svg width="24" height="24" viewBox="0 0 24 24" fill="none" xmlns="http://www.w3.org/2000/svg">
<path fill-rule="evenodd" clip-rule="evenodd" d="M1 12C1 5.92487 5.92487 1 12 1C18.0751 1 23 5.92487 23 12C23 18.0751 18.0751 23 12 23C5.92487 23 1 18.0751 1 12ZM16.3321 14.0547C16.6384 13.5952 16.5142 12.9743 16.0547 12.6679C15.5993 12.3644 14.9855 12.4836 14.6764 12.9329C14.6757 12.9337 14.6749 12.9349 14.6737 12.9364C14.6718 12.9389 14.6692 12.9423 14.6658 12.9466C14.6509 12.9657 14.6217 13.0011 14.5777 13.0478C14.4894 13.1413 14.3431 13.2778 14.1328 13.4179C13.7205 13.6928 13.0364 14 12 14C11.3602 14 10.8287 13.8932 10.4622 13.7885C10.2796 13.7363 10.14 13.6852 10.0511 13.6496C10.0067 13.6319 9.97518 13.6181 9.95749 13.6101L9.94158 13.6028C9.44868 13.3601 8.85162 13.5607 8.60557 14.0528C8.35858 14.5468 8.55881 15.1474 9.05279 15.3944L9.5 14.5C9.05279 15.3944 9.05305 15.3946 9.05332 15.3947L9.05388 15.395L9.05507 15.3956L9.05774 15.3969L9.06421 15.4001L9.08166 15.4085C9.09528 15.415 9.11288 15.4232 9.13431 15.4329C9.17717 15.4522 9.2355 15.4775 9.3083 15.5066C9.45374 15.5648 9.65794 15.6387 9.91278 15.7115C10.4213 15.8568 11.1398 16 12 16C13.4636 16 14.5295 15.5572 15.2422 15.0821C15.5944 14.8472 15.8544 14.6087 16.0317 14.421C16.1205 14.327 16.189 14.2453 16.2385 14.1823C16.2632 14.1508 16.2833 14.1238 16.2988 14.1023C16.3066 14.0916 16.3132 14.0822 16.3188 14.0742L16.3262 14.0633L16.3293 14.0587L16.3307 14.0566L16.3314 14.0557C16.3317 14.0552 16.3321 14.0547 15.5 13.5L16.3321 14.0547Z" fill="black" fill-opacity="0.88"/>
</svg>
