<svg width="24" height="24" viewBox="0 0 24 24" fill="none" xmlns="http://www.w3.org/2000/svg">
<path fill-rule="evenodd" clip-rule="evenodd" d="M3.18232 3C2.32425 3 1.80098 3.93384 2.23396 4.66465C2.3572 4.87265 2.59076 5.28803 2.79066 5.75889C3.00127 6.25501 3.125 6.69992 3.125 7C3.125 7.30008 3.00127 7.74499 2.79066 8.24111C2.59076 8.71197 2.3572 9.12735 2.23396 9.33535C1.80097 10.0662 2.32427 11 3.18232 11H18C20.2091 11 22 9.20914 22 7C22 4.79086 20.2091 3 18 3H3.18232ZM5.125 7C5.125 6.29464 4.87556 5.55595 4.64121 5H18C19.1046 5 20 5.89543 20 7C20 8.10457 19.1046 9 18 9H4.64121C4.87556 8.44405 5.125 7.70536 5.125 7Z" fill="black" fill-opacity="0.88"/>
<path d="M20.8177 13C21.6757 13 22.199 13.9338 21.766 14.6646C21.6428 14.8727 21.4092 15.288 21.2093 15.7589C20.9987 16.255 20.875 16.6999 20.875 17C20.875 17.3001 20.9987 17.745 21.2093 18.2411C21.4092 18.712 21.6428 19.1273 21.766 19.3354C22.199 20.0662 21.6757 21 20.8177 21H17C16.4477 21 16 20.5523 16 20C16 19.4477 16.4477 19 17 19H19.3588C19.1244 18.444 18.875 17.7054 18.875 17C18.875 16.2946 19.1244 15.556 19.3588 15H6C4.89543 15 4 15.8954 4 17C4 18.1046 4.89543 19 6 19H6.9375C7.48979 19 7.9375 19.4477 7.9375 20C7.9375 20.5523 7.48979 21 6.9375 21H6C3.79086 21 2 19.2091 2 17C2 14.7909 3.79086 13 6 13H20.8177Z" fill="black" fill-opacity="0.88"/>
<path d="M9 20C9 19.4477 9.44772 19 10 19H11V18.5C11 17.9477 11.4477 17.5 12 17.5C12.5523 17.5 13 17.9477 13 18.5V19H14C14.5523 19 15 19.4477 15 20C15 20.5523 14.5523 21 14 21H13V21.5C13 22.0523 12.5523 22.5 12 22.5C11.4477 22.5 11 22.0523 11 21.5V21H10C9.44772 21 9 20.5523 9 20Z" fill="black" fill-opacity="0.88"/>
</svg>
