<svg width="24" height="24" viewBox="0 0 24 24" fill="none" xmlns="http://www.w3.org/2000/svg">
<circle cx="12" cy="12" r="9" stroke="black" stroke-opacity="0.25" stroke-width="1.5"/>
<path d="M15 11.134C15.6667 11.5189 15.6667 12.4811 15 12.866L11.25 15.0311C10.5833 15.416 9.75 14.9349 9.75 14.1651L9.75 9.83494C9.75 9.06513 10.5833 8.58401 11.25 8.96891L15 11.134Z" fill="black" fill-opacity="0.88"/>
<path d="M12 3C13.7258 3 15.4153 3.49621 16.867 4.42949C18.3187 5.36277 19.4714 6.69377 20.1879 8.26386C20.9043 9.83395 21.1542 11.5769 20.9078 13.2851C20.6614 14.9932 19.929 16.5945 18.798 17.8981C17.667 19.2016 16.185 20.1525 14.5287 20.6374C12.8724 21.1224 11.1116 21.1208 9.45619 20.633C7.80074 20.1452 6.32044 19.1917 5.19172 17.8862C4.06299 16.5806 3.33343 14.9781 3.08999 13.2695" stroke="black" stroke-opacity="0.88" stroke-width="1.5"/>
</svg>
