<svg width="24" height="24" viewBox="0 0 24 24" fill="none" xmlns="http://www.w3.org/2000/svg">
<path d="M10 17.5C9.44772 17.5 9 17.9477 9 18.5C9 19.0523 9.44772 19.5 10 19.5H14C14.5523 19.5 15 19.0523 15 18.5C15 17.9477 14.5523 17.5 14 17.5H10Z" fill="black" fill-opacity="0.88"/>
<path fill-rule="evenodd" clip-rule="evenodd" d="M4 5C4 3.34315 5.34315 2 7 2H17C18.6569 2 20 3.34315 20 5V19C20 20.6569 18.6569 22 17 22H7C5.34315 22 4 20.6569 4 19V5ZM7 4C6.44772 4 6 4.44772 6 5V19C6 19.5523 6.44772 20 7 20H17C17.5523 20 18 19.5523 18 19V5C18 4.44772 17.5523 4 17 4H14.5C14.5 4.55228 14.0523 5 13.5 5H10.5C9.94772 5 9.5 4.55228 9.5 4H7Z" fill="black" fill-opacity="0.88"/>
</svg>
