<svg width="24" height="24" viewBox="0 0 24 24" fill="none" xmlns="http://www.w3.org/2000/svg">
<path d="M4 4C3.44772 4 3 4.44772 3 5C3 5.55228 3.44772 6 4 6H20C20.5523 6 21 5.55228 21 5C21 4.44772 20.5523 4 20 4H4Z" fill="black" fill-opacity="0.88"/>
<path d="M4 11C3.44772 11 3 11.4477 3 12C3 12.5523 3.44772 13 4 13H20C20.5523 13 21 12.5523 21 12C21 11.4477 20.5523 11 20 11H4Z" fill="black" fill-opacity="0.88"/>
<path d="M3 19C3 18.4477 3.44772 18 4 18H10C10.5523 18 11 18.4477 11 19C11 19.5523 10.5523 20 10 20H4C3.44772 20 3 19.5523 3 19Z" fill="black" fill-opacity="0.88"/>
<path d="M20.7071 17.7071C21.0976 17.3166 21.0976 16.6834 20.7071 16.2929C20.3166 15.9024 19.6834 15.9024 19.2929 16.2929L16 19.5858L14.7071 18.2929C14.3166 17.9024 13.6834 17.9024 13.2929 18.2929C12.9024 18.6834 12.9024 19.3166 13.2929 19.7071L15.2929 21.7071C15.6834 22.0976 16.3166 22.0976 16.7071 21.7071L20.7071 17.7071Z" fill="black" fill-opacity="0.88"/>
</svg>
