<svg width="24" height="24" viewBox="0 0 24 24" fill="none" xmlns="http://www.w3.org/2000/svg">
<path d="M8.69036 9.59441L12.2301 2.07238C12.3678 1.77994 12.7425 1.69294 12.9949 1.89485L14.2494 2.89844C14.7238 3.27799 15 3.85261 15 4.46018V7.49893C15 8.05121 15.4477 8.49893 16 8.49893H20.1819C21.4032 8.49893 22.3393 9.58394 22.1603 10.792L20.7529 20.292C20.6076 21.2727 19.7658 21.9989 18.7745 21.9989H9.5C8.94771 21.9989 8.5 21.5512 8.5 20.9989V10.446C8.5 10.1516 8.565 9.8608 8.69036 9.59441Z" fill="black" fill-opacity="0.88"/>
<path d="M4 9.99893C2.89543 9.99893 2 10.8944 2 11.9989V19.9989C2 21.1035 2.89543 21.9989 4 21.9989H6.5V9.99893H4Z" fill="black" fill-opacity="0.88"/>
</svg>
