<svg width="360" height="134" viewBox="0 0 360 134" fill="none" xmlns="http://www.w3.org/2000/svg">
<g clip-path="url(#clip0_96_140715)">
<rect width="360" height="134" fill="#FF6400" fill-opacity="0.2"/>
<path fill-rule="evenodd" clip-rule="evenodd" d="M174.709 -110.694C176.752 -111.874 178.768 -113.038 180.589 -114.09C186.762 -117.654 190.001 -124.347 189.458 -131.009L187.779 -159.453L141.407 -132.68L141.41 -132.676L2.29406 -52.357L2.29405 -52.357C-5.82541 -47.6693 -12.942 -41.4281 -18.6495 -33.99C-24.357 -26.5519 -28.5435 -18.0624 -30.9701 -9.00636C-33.3966 0.0497215 -34.0157 9.49508 -32.792 18.7904C-31.5682 28.0858 -28.5256 37.049 -23.8378 45.1685L7.07667 27.32L7.07582 27.3185C4.73193 23.2588 3.21061 18.7772 2.59874 14.1295C1.98686 9.48182 2.2964 4.75915 3.50968 0.231105C4.72297 -4.29693 6.81624 -8.54166 9.66997 -12.2607C12.5236 -15.9797 16.0819 -19.1002 20.1415 -21.4441L20.1424 -21.4426L174.714 -110.685L174.709 -110.694ZM267.457 -164.233C279.755 -171.334 294.371 -173.258 308.088 -169.582C321.805 -165.907 333.5 -156.933 340.601 -144.634C346.427 -134.543 348.768 -122.891 347.39 -111.456C350.737 -111.053 354.058 -110.412 357.328 -109.536C366.384 -107.11 374.874 -102.923 382.312 -97.2155C389.75 -91.5083 395.991 -84.392 400.678 -76.2729L400.679 -76.2731L418.527 -45.3588C423.215 -37.2393 426.258 -28.276 427.481 -18.9807C428.705 -9.68534 428.086 -0.240016 425.659 8.81606C423.233 17.8722 419.046 26.3617 413.339 33.7998C407.631 41.2379 400.515 47.479 392.395 52.1668L374.548 21.2537C378.607 18.9098 382.166 15.7892 385.019 12.0702C387.873 8.35116 389.966 4.10645 391.18 -0.421612C392.393 -4.94966 392.702 -9.67232 392.091 -14.32C391.479 -18.9677 389.957 -23.4493 387.613 -27.509L387.613 -27.5103L369.765 -58.4238L369.764 -58.4235L369.764 -58.4243C367.42 -62.4841 364.299 -66.0423 360.58 -68.8961C356.861 -71.7498 352.617 -73.8431 348.089 -75.0564C343.561 -76.2697 338.838 -76.5792 334.19 -75.9673C329.594 -75.3622 325.161 -73.8679 321.137 -71.5681L321.002 -71.4901L321.002 -71.4906L321.001 -71.4903L303.153 -102.404L303.154 -102.404L303.153 -102.406C307.252 -104.773 310.244 -108.671 311.469 -113.243C312.694 -117.816 312.053 -122.688 309.686 -126.787C307.319 -130.887 303.421 -133.878 298.848 -135.103C294.276 -136.328 289.404 -135.687 285.305 -133.32L267.457 -164.233ZM47.2984 111.266C43.9521 110.863 40.6311 110.222 37.3609 109.346C28.3049 106.919 19.8154 102.733 12.3773 97.0252C4.94006 91.3185 -1.30043 84.2029 -5.98801 76.0847L-5.98956 76.0856L-23.838 45.1712L7.07637 27.3228L24.9231 58.2342L24.9248 58.2332L24.9255 58.2343C27.2694 62.294 30.3899 65.8523 34.109 68.7061C37.828 71.5598 42.0728 73.6531 46.6008 74.8664C51.1288 76.0797 55.8515 76.3892 60.4992 75.7773C65.0363 75.18 69.4153 73.716 73.3979 71.4661L73.5378 71.3844L73.6869 71.298L73.6894 71.3022L150.973 26.6823L150.972 26.6803L197.344 -0.0922718L199.023 28.3519C199.565 35.0133 196.327 41.707 190.154 45.2707C188.333 46.322 186.318 47.4856 184.275 48.6657L184.279 48.6723L91.5378 102.217L91.5361 102.218L91.5343 102.214C91.4521 102.262 91.3698 102.309 91.2874 102.356C87.3149 104.736 84.4189 108.569 83.2185 113.049C81.9933 117.621 82.6347 122.493 85.0015 126.592C87.3684 130.692 91.2668 133.683 95.8392 134.908C100.412 136.134 105.283 135.492 109.383 133.125L100.46 117.67L109.385 133.129L155.755 106.357L173.604 137.271L127.232 164.044L127.231 164.042C114.933 171.142 100.318 173.066 86.601 169.39C72.8839 165.715 61.1886 156.741 54.088 144.442C48.262 134.351 45.9209 122.7 47.2984 111.266ZM164.039 -22.0829C164.039 -22.0829 167.276 -23.9531 171.579 -26.4393L179.496 -31.0106L179.495 -31.0126C181.538 -32.1924 183.552 -33.3558 185.373 -34.4069C191.545 -37.9706 194.784 -44.6644 194.241 -51.3257L192.562 -79.7699L161.649 -61.9223L161.648 -61.9249L53.4477 0.544473C44.911 5.47317 41.9861 16.3891 46.9148 24.9259C51.8435 33.4626 62.7594 36.3875 71.2961 31.4588L164.038 -22.0856L164.039 -22.0829ZM199.752 -125.133C208.289 -130.062 221.086 -137.457 221.086 -137.457L238.934 -106.543L192.562 -79.7702L190.884 -108.214C190.341 -114.876 193.58 -121.57 199.752 -125.133ZM210.414 -48.8511C208.37 -47.6708 206.355 -46.5071 204.534 -45.4556C198.362 -41.8919 195.123 -35.1981 195.666 -28.5368L197.345 -0.0926183L243.716 -26.8652L243.715 -26.8666L321.002 -71.488L303.153 -102.402L210.41 -48.8572L210.414 -48.8511ZM230.424 22.0279L230.649 21.898L323.392 -31.6473C331.929 -36.576 342.845 -33.6511 347.774 -25.1143C352.702 -16.5776 349.777 -5.66168 341.241 -0.732981L233.041 61.7364L202.127 79.5843L203.806 108.027C204.348 114.688 201.11 121.382 194.937 124.946C186.401 129.874 173.604 137.27 173.604 137.27L155.755 106.355L202.126 79.5834L200.447 51.1408C199.904 44.4795 203.143 37.7857 209.315 34.2221C211.136 33.1706 213.151 32.0069 215.195 30.8267L215.192 30.8221L230.424 22.0279ZM392.395 52.1694L253.279 132.488L253.281 132.493L206.91 159.265L205.231 130.821C204.688 124.16 207.927 117.466 214.099 113.902C215.921 112.851 217.937 111.687 219.98 110.506L219.975 110.497L374.547 21.255L392.395 52.1694ZM285.305 -133.317L238.933 -106.544L221.085 -137.459L267.456 -164.231L285.305 -133.317Z" fill="url(#paint0_linear_96_140715)"/>
</g>
<defs>
<linearGradient id="paint0_linear_96_140715" x1="93.5" y1="-231" x2="83.2422" y2="230.659" gradientUnits="userSpaceOnUse">
<stop offset="0.335568" stop-color="#FF6400" stop-opacity="0.15"/>
<stop offset="0.836635" stop-color="#FFE9D7" stop-opacity="0"/>
</linearGradient>
<clipPath id="clip0_96_140715">
<rect width="360" height="134" fill="white"/>
</clipPath>
</defs>
</svg>
