<svg width="24.000000" height="24.000000" viewBox="0 0 24 24" fill="none" xmlns="http://www.w3.org/2000/svg" xmlns:xlink="http://www.w3.org/1999/xlink">
	<desc>
			Created with Pixso.
	</desc>
	<defs/>
	<rect id="Public/ic_public_brightness" width="24.000000" height="24.000000" transform="translate(-0.999756 0.000000)" fill="#FFCCCC" fill-opacity="0"/>
	<path id="合并形状" d="M11.7502 3.25C11.7502 3.66431 11.4146 4 11.0002 4C10.5859 4 10.2502 3.66431 10.2502 3.25L10.2502 2.25C10.2502 1.83569 10.5859 1.5 11.0002 1.5C11.4146 1.5 11.7502 1.83569 11.7502 2.25L11.7502 3.25ZM5.34351 5.28247C5.63623 5.57544 5.63623 6.05029 5.34351 6.34326C5.05054 6.63599 4.57568 6.63599 4.28271 6.34326L3.39893 5.45923C3.10596 5.16626 3.10596 4.69141 3.39893 4.39868C3.69165 4.10571 4.1665 4.10571 4.45947 4.39868L5.34351 5.28247ZM16.657 6.34326C16.95 6.63599 17.4248 6.63599 17.7178 6.34326L18.6016 5.45923C18.8945 5.16626 18.8945 4.69141 18.6016 4.39868C18.3088 4.10571 17.834 4.10571 17.541 4.39868L16.657 5.28247C16.3643 5.57544 16.3643 6.05029 16.657 6.34326ZM11.0002 19C7.13428 19 4.00024 15.866 4.00024 12C4.00024 8.13403 7.13428 5 11.0002 5C14.8662 5 18.0002 8.13403 18.0002 12C18.0002 15.866 14.8662 19 11.0002 19ZM11.0002 17.5C14.0378 17.5 16.5002 15.0376 16.5002 12C16.5002 8.9624 14.0378 6.5 11.0002 6.5C7.96265 6.5 5.50024 8.9624 5.50024 12C5.50024 15.0376 7.96265 17.5 11.0002 17.5ZM3.00024 12C3.00024 11.5857 2.66455 11.25 2.25024 11.25L1.00024 11.25C0.585938 11.25 0.250244 11.5857 0.250244 12C0.250244 12.4143 0.585938 12.75 1.00024 12.75L2.25024 12.75C2.66455 12.75 3.00024 12.4143 3.00024 12ZM21.7502 12C21.7502 11.5857 21.4146 11.25 21.0002 11.25L19.7502 11.25C19.3359 11.25 19.0002 11.5857 19.0002 12C19.0002 12.4143 19.3359 12.75 19.7502 12.75L21.0002 12.75C21.4146 12.75 21.7502 12.4143 21.7502 12ZM18.6016 19.6013C18.8945 19.3086 18.8945 18.8337 18.6016 18.5408L17.7178 17.6567C17.4248 17.364 16.95 17.364 16.657 17.6567C16.3643 17.9497 16.3643 18.4246 16.657 18.7175L17.541 19.6013C17.834 19.8943 18.3088 19.8943 18.6016 19.6013ZM3.39893 19.6013C3.69165 19.8943 4.1665 19.8943 4.45947 19.6013L5.34351 18.7175C5.63623 18.4246 5.63623 17.9497 5.34351 17.6567C5.05054 17.364 4.57568 17.364 4.28271 17.6567L3.39893 18.5408C3.10596 18.8337 3.10596 19.3086 3.39893 19.6013ZM11.7502 21.75C11.7502 22.1643 11.4146 22.5 11.0002 22.5C10.5859 22.5 10.2502 22.1643 10.2502 21.75L10.2502 20.75C10.2502 20.3357 10.5859 20 11.0002 20C11.4146 20 11.7502 20.3357 11.7502 20.75L11.7502 21.75Z" clip-rule="evenodd" fill="#000000" fill-opacity="0.000000" fill-rule="evenodd"/>
	<mask id="mask109_2892" mask-type="alpha" maskUnits="userSpaceOnUse" x="0.250244" y="1.500000" width="21.500000" height="21.000000">
		<path id="合并形状" d="M11.7502 3.25C11.7502 3.66431 11.4146 4 11.0002 4C10.5859 4 10.2502 3.66431 10.2502 3.25L10.2502 2.25C10.2502 1.83569 10.5859 1.5 11.0002 1.5C11.4146 1.5 11.7502 1.83569 11.7502 2.25L11.7502 3.25ZM5.34351 5.28247C5.63623 5.57544 5.63623 6.05029 5.34351 6.34326C5.05054 6.63599 4.57568 6.63599 4.28271 6.34326L3.39893 5.45923C3.10596 5.16626 3.10596 4.69141 3.39893 4.39868C3.69165 4.10571 4.1665 4.10571 4.45947 4.39868L5.34351 5.28247ZM16.657 6.34326C16.95 6.63599 17.4248 6.63599 17.7178 6.34326L18.6016 5.45923C18.8945 5.16626 18.8945 4.69141 18.6016 4.39868C18.3088 4.10571 17.834 4.10571 17.541 4.39868L16.657 5.28247C16.3643 5.57544 16.3643 6.05029 16.657 6.34326ZM11.0002 19C7.13428 19 4.00024 15.866 4.00024 12C4.00024 8.13403 7.13428 5 11.0002 5C14.8662 5 18.0002 8.13403 18.0002 12C18.0002 15.866 14.8662 19 11.0002 19ZM11.0002 17.5C14.0378 17.5 16.5002 15.0376 16.5002 12C16.5002 8.9624 14.0378 6.5 11.0002 6.5C7.96265 6.5 5.50024 8.9624 5.50024 12C5.50024 15.0376 7.96265 17.5 11.0002 17.5ZM3.00024 12C3.00024 11.5857 2.66455 11.25 2.25024 11.25L1.00024 11.25C0.585938 11.25 0.250244 11.5857 0.250244 12C0.250244 12.4143 0.585938 12.75 1.00024 12.75L2.25024 12.75C2.66455 12.75 3.00024 12.4143 3.00024 12ZM21.7502 12C21.7502 11.5857 21.4146 11.25 21.0002 11.25L19.7502 11.25C19.3359 11.25 19.0002 11.5857 19.0002 12C19.0002 12.4143 19.3359 12.75 19.7502 12.75L21.0002 12.75C21.4146 12.75 21.7502 12.4143 21.7502 12ZM18.6016 19.6013C18.8945 19.3086 18.8945 18.8337 18.6016 18.5408L17.7178 17.6567C17.4248 17.364 16.95 17.364 16.657 17.6567C16.3643 17.9497 16.3643 18.4246 16.657 18.7175L17.541 19.6013C17.834 19.8943 18.3088 19.8943 18.6016 19.6013ZM3.39893 19.6013C3.69165 19.8943 4.1665 19.8943 4.45947 19.6013L5.34351 18.7175C5.63623 18.4246 5.63623 17.9497 5.34351 17.6567C5.05054 17.364 4.57568 17.364 4.28271 17.6567L3.39893 18.5408C3.10596 18.8337 3.10596 19.3086 3.39893 19.6013ZM11.7502 21.75C11.7502 22.1643 11.4146 22.5 11.0002 22.5C10.5859 22.5 10.2502 22.1643 10.2502 21.75L10.2502 20.75C10.2502 20.3357 10.5859 20 11.0002 20C11.4146 20 11.7502 20.3357 11.7502 20.75L11.7502 21.75Z" clip-rule="evenodd" fill="#C4C4C4" fill-opacity="1.000000" fill-rule="evenodd"/>
	</mask>
	<g mask="url(#mask109_2892)">
		<rect id="color/#000000" x="-0.999756" width="24.000000" height="24.000000" fill="#000000" fill-opacity="1.000000"/>
	</g>
</svg>
