<svg width="24.000000" height="24.000000" viewBox="0 0 24 24" fill="none" xmlns="http://www.w3.org/2000/svg" xmlns:xlink="http://www.w3.org/1999/xlink">
	<desc>
			Created with Pixso.
	</desc>
	<defs/>
	<rect id="Public/ic_public_brightness_filled" width="24.000000" height="24.000000" transform="translate(-0.999756 0.000000)" fill="#FFCCCC" fill-opacity="0"/>
	<path id="形状结合" d="M10.0002 2.25C10.0002 1.69775 10.448 1.25 11.0002 1.25C11.5525 1.25 12.0002 1.69775 12.0002 2.25L12.0002 3.25C12.0002 3.80225 11.5525 4.25 11.0002 4.25C10.448 4.25 10.0002 3.80225 10.0002 3.25L10.0002 2.25ZM3.14893 4.14868C2.7583 4.53906 2.7583 5.17236 3.14893 5.56274L4.03271 6.44678C4.42334 6.83716 5.0564 6.83716 5.44702 6.44678C5.8374 6.05615 5.8374 5.4231 5.44702 5.03247L4.56299 4.14868C4.17261 3.75806 3.53931 3.75806 3.14893 4.14868ZM18.8516 4.14868C18.4612 3.75806 17.8279 3.75806 17.4375 4.14868L16.5535 5.03247C16.1631 5.4231 16.1631 6.05615 16.5535 6.44678C16.9441 6.83716 17.5771 6.83716 17.9678 6.44678L18.8516 5.56274C19.2422 5.17236 19.2422 4.53906 18.8516 4.14868ZM11.0002 18.75C7.27222 18.75 4.25024 15.728 4.25024 12C4.25024 8.27197 7.27222 5.25 11.0002 5.25C14.7283 5.25 17.7502 8.27197 17.7502 12C17.7502 15.728 14.7283 18.75 11.0002 18.75ZM2.25024 11C2.80249 11 3.25024 11.4478 3.25024 12C3.25024 12.5522 2.80249 13 2.25024 13L1.00024 13C0.447998 13 0.000244141 12.5522 0.000244141 12C0.000244141 11.4478 0.447998 11 1.00024 11L2.25024 11ZM22.0002 12C22.0002 11.4478 21.5525 11 21.0002 11L19.7502 11C19.198 11 18.7502 11.4478 18.7502 12C18.7502 12.5522 19.198 13 19.7502 13L21.0002 13C21.5525 13 22.0002 12.5522 22.0002 12ZM4.03271 17.5532C4.42334 17.1628 5.0564 17.1628 5.44702 17.5532C5.8374 17.9438 5.8374 18.5769 5.44702 18.9675L4.56299 19.8513C4.17261 20.2419 3.53931 20.2419 3.14893 19.8513C2.7583 19.4609 2.7583 18.8276 3.14893 18.4373L4.03271 17.5532ZM16.5535 17.5532C16.1631 17.9438 16.1631 18.5769 16.5535 18.9675L17.4375 19.8513C17.8279 20.2419 18.4612 20.2419 18.8516 19.8513C19.2422 19.4609 19.2422 18.8276 18.8516 18.4373L17.9678 17.5532C17.5771 17.1628 16.9441 17.1628 16.5535 17.5532ZM11.0002 19.75C10.448 19.75 10.0002 20.1978 10.0002 20.75L10.0002 21.75C10.0002 22.3022 10.448 22.75 11.0002 22.75C11.5525 22.75 12.0002 22.3022 12.0002 21.75L12.0002 20.75C12.0002 20.1978 11.5525 19.75 11.0002 19.75Z" clip-rule="evenodd" fill="#000000" fill-opacity="0.000000" fill-rule="evenodd"/>
	<mask id="mask109_2858" mask-type="alpha" maskUnits="userSpaceOnUse" x="0.000244" y="1.250000" width="22.000000" height="21.500000">
		<path id="形状结合" d="M10.0002 2.25C10.0002 1.69775 10.448 1.25 11.0002 1.25C11.5525 1.25 12.0002 1.69775 12.0002 2.25L12.0002 3.25C12.0002 3.80225 11.5525 4.25 11.0002 4.25C10.448 4.25 10.0002 3.80225 10.0002 3.25L10.0002 2.25ZM3.14893 4.14868C2.7583 4.53906 2.7583 5.17236 3.14893 5.56274L4.03271 6.44678C4.42334 6.83716 5.0564 6.83716 5.44702 6.44678C5.8374 6.05615 5.8374 5.4231 5.44702 5.03247L4.56299 4.14868C4.17261 3.75806 3.53931 3.75806 3.14893 4.14868ZM18.8516 4.14868C18.4612 3.75806 17.8279 3.75806 17.4375 4.14868L16.5535 5.03247C16.1631 5.4231 16.1631 6.05615 16.5535 6.44678C16.9441 6.83716 17.5771 6.83716 17.9678 6.44678L18.8516 5.56274C19.2422 5.17236 19.2422 4.53906 18.8516 4.14868ZM11.0002 18.75C7.27222 18.75 4.25024 15.728 4.25024 12C4.25024 8.27197 7.27222 5.25 11.0002 5.25C14.7283 5.25 17.7502 8.27197 17.7502 12C17.7502 15.728 14.7283 18.75 11.0002 18.75ZM2.25024 11C2.80249 11 3.25024 11.4478 3.25024 12C3.25024 12.5522 2.80249 13 2.25024 13L1.00024 13C0.447998 13 0.000244141 12.5522 0.000244141 12C0.000244141 11.4478 0.447998 11 1.00024 11L2.25024 11ZM22.0002 12C22.0002 11.4478 21.5525 11 21.0002 11L19.7502 11C19.198 11 18.7502 11.4478 18.7502 12C18.7502 12.5522 19.198 13 19.7502 13L21.0002 13C21.5525 13 22.0002 12.5522 22.0002 12ZM4.03271 17.5532C4.42334 17.1628 5.0564 17.1628 5.44702 17.5532C5.8374 17.9438 5.8374 18.5769 5.44702 18.9675L4.56299 19.8513C4.17261 20.2419 3.53931 20.2419 3.14893 19.8513C2.7583 19.4609 2.7583 18.8276 3.14893 18.4373L4.03271 17.5532ZM16.5535 17.5532C16.1631 17.9438 16.1631 18.5769 16.5535 18.9675L17.4375 19.8513C17.8279 20.2419 18.4612 20.2419 18.8516 19.8513C19.2422 19.4609 19.2422 18.8276 18.8516 18.4373L17.9678 17.5532C17.5771 17.1628 16.9441 17.1628 16.5535 17.5532ZM11.0002 19.75C10.448 19.75 10.0002 20.1978 10.0002 20.75L10.0002 21.75C10.0002 22.3022 10.448 22.75 11.0002 22.75C11.5525 22.75 12.0002 22.3022 12.0002 21.75L12.0002 20.75C12.0002 20.1978 11.5525 19.75 11.0002 19.75Z" clip-rule="evenodd" fill="#C4C4C4" fill-opacity="1.000000" fill-rule="evenodd"/>
	</mask>
	<g mask="url(#mask109_2858)">
		<rect id="color/#000000" x="-0.999756" width="24.000000" height="24.000000" fill="#000000" fill-opacity="1.000000"/>
	</g>
</svg>
