<svg width="90" height="120" viewBox="0 0 90 120" fill="none" xmlns="http://www.w3.org/2000/svg">
    <g clip-path="url(#clip0_2130_61773)">
        <path d="M0 4C0 1.79086 1.79086 0 4 0H82C86.4183 0 90 3.58172 90 8V112C90 116.418 86.4183 120 82 120H4C1.79086 120 0 118.209 0 116V4Z" fill="white"/>
        <path d="M0 4C0 1.79086 1.79086 0 4 0H82C86.4183 0 90 3.58172 90 8V112C90 116.418 86.4183 120 82 120H4C1.79086 120 0 118.209 0 116V4Z" fill="url(#paint0_linear_2130_61773)"/>
        <path fill-rule="evenodd" clip-rule="evenodd" d="M7.38975 70.1868C8.29817 69.7279 9.19407 69.2755 10.0037 68.8667C12.7449 67.4826 14.2995 64.6813 14.2268 61.8027L14.1909 49.5264L-6.40261 59.9243L-6.40055 59.9284L-68.1842 91.1235L-61.2523 104.853L7.39286 70.193L7.38975 70.1868ZM48.5681 49.3604C54.0299 46.6027 60.3634 46.1276 66.1754 48.0397C71.9874 49.9517 76.8018 54.0943 79.5595 59.556C81.8291 64.0511 82.5526 69.1368 81.6717 74.0362C83.1081 74.2906 84.5279 74.6474 85.9198 75.1053C89.7569 76.3677 93.3078 78.3734 96.3697 81.0081C99.4301 83.6414 101.942 86.8515 103.763 90.4552L103.765 90.4542L110.697 104.183L96.9675 111.115L90.0383 97.3914L90.0379 97.3916C89.1283 95.5962 87.8752 93.9968 86.3495 92.684C84.8185 91.3667 83.0431 90.3638 81.1246 89.7326C79.206 89.1015 77.1819 88.8544 75.1679 89.0054C73.1538 89.1565 71.1893 89.7028 69.3863 90.6131L76.3089 104.323L76.3072 104.324L69.3754 90.5954L28.1884 111.391L28.1853 111.385L14.4572 118.316L14.4213 106.04C14.3486 103.161 15.9033 100.36 18.6445 98.9759C22.4356 97.0617 28.1188 94.1893 28.1188 94.1893L28.122 94.1956L62.4434 76.8663L62.4535 76.8612L58.966 69.9539L48.5681 49.3604ZM55.5032 63.0827C57.3238 62.1635 59.435 62.0052 61.3723 62.6425C63.3096 63.2799 64.9144 64.6607 65.8337 66.4813C66.7529 68.3019 66.9113 70.4131 66.2739 72.3504C65.6365 74.2877 64.2557 75.8925 62.4351 76.8118L55.5032 63.0827ZM-52.7858 162.59C-54.2106 162.336 -55.6189 161.981 -56.9998 161.527C-60.8369 160.264 -64.3878 158.259 -67.4497 155.624C-70.5117 152.989 -73.0247 149.777 -74.8453 146.172L-61.1185 139.241C-60.2089 141.036 -58.9559 142.635 -57.4303 143.948C-55.8993 145.265 -54.1239 146.268 -52.2053 146.899C-50.2868 147.531 -48.2627 147.778 -46.2486 147.627C-44.2346 147.476 -42.27 146.929 -40.4671 146.019L-47.3895 132.309L-47.3873 132.308L-40.4485 146.05L-6.13334 128.724L-6.14479 128.702L14.4487 118.304L14.4847 130.58C14.5574 133.459 13.0027 136.26 10.2615 137.644L7.65021 138.963L7.66271 138.988L-33.5244 159.783L-33.5312 159.77L-33.5315 159.77L-30.0713 166.623L-26.5914 173.515L-6.00165 163.119L0.930263 176.848L-19.6633 187.246L-19.6773 187.218C-25.1382 189.974 -31.4701 190.449 -37.2807 188.537C-43.0928 186.625 -47.9072 182.483 -50.6649 177.021C-52.9269 172.541 -53.6531 167.474 -52.7858 162.59ZM-33.6676 159.838C-35.423 160.767 -36.7528 162.341 -37.3746 164.231C-38.012 166.169 -37.8536 168.28 -36.9344 170.1C-36.0152 171.921 -34.4104 173.302 -32.473 173.939C-30.5357 174.577 -28.4245 174.418 -26.6039 173.499L-33.535 159.772L-33.6025 159.806L-33.6676 159.838ZM0.661142 108.048C0.661142 108.048 6.34436 105.175 10.1355 103.261C12.8767 101.877 14.4314 99.0759 14.3587 96.1973L14.3228 83.921L0.592775 90.8534L0.586073 90.8401L-47.4655 115.102C-51.2567 117.016 -52.7783 121.641 -50.8641 125.432C-48.9499 129.223 -44.3248 130.745 -40.5336 128.831L0.65444 108.035L0.661142 108.048ZM18.512 64.5818C22.2613 62.6887 27.8611 59.8584 27.9843 59.7961L27.9751 59.7778L48.5686 49.38L55.5005 63.109L34.909 73.5058L34.9183 73.5241L14.3248 83.922L14.2889 71.6457C14.2162 68.7671 15.7708 65.9658 18.512 64.5818ZM35.1755 142.297L76.3641 121.5C80.1553 119.586 81.6769 114.961 79.7627 111.17C77.8485 107.379 73.2234 105.857 69.4322 107.771L21.3807 132.033L21.3843 132.04L18.7718 133.359C16.0306 134.743 14.4759 137.545 14.5486 140.423L14.5845 152.7L35.178 142.302L35.1755 142.297ZM28.3907 162.973C28.3907 162.973 22.7074 165.845 18.9163 167.759C16.1751 169.144 14.6204 171.945 14.6931 174.823L14.7291 187.1L28.4552 180.169L28.4576 180.174L97.1019 145.515L97.1029 145.517C100.709 143.696 103.921 141.183 106.555 138.121C109.19 135.059 111.196 131.508 112.458 127.671C113.72 123.834 114.215 119.786 113.912 115.758C113.61 111.73 112.518 107.801 110.697 104.195L96.9693 111.126C97.8725 112.923 98.4147 114.879 98.5651 116.884C98.7161 118.898 98.469 120.922 97.8379 122.841C97.2067 124.759 96.2038 126.535 94.8865 128.066C93.5692 129.597 91.9632 130.853 90.1603 131.764L83.2403 118.058L83.2391 118.059L90.17 131.786L28.393 162.978L28.3907 162.973ZM0.932138 176.843C0.932138 176.843 6.61536 173.97 10.4065 172.056C13.1477 170.672 14.7024 167.871 14.6297 164.992L14.5938 152.716L-5.99977 163.114L0.932138 176.843ZM-68.0498 125.517C-68.953 123.721 -69.4951 121.765 -69.6456 119.76C-69.7966 117.745 -69.5495 115.721 -68.9184 113.803C-68.2872 111.884 -67.2843 110.109 -65.967 108.578C-64.6497 107.047 -63.0437 105.79 -61.2408 104.88L-54.3208 118.586L-54.3196 118.585L-68.1834 91.1269C-71.7893 92.9475 -75.0012 95.4605 -77.6359 98.5225C-80.2705 101.584 -82.2762 105.135 -83.5386 108.972C-84.8009 112.809 -85.2951 116.858 -84.993 120.886C-84.6914 124.907 -83.602 128.83 -81.7869 132.431L-81.7883 132.431L-74.8564 146.16L-61.1274 139.228L-68.0501 125.518L-68.0498 125.517Z" fill="#FF5B96" fill-opacity="0.12"/>
        <mask id="path-4-outside-1_2130_61773" maskUnits="userSpaceOnUse" x="0" y="0" width="16" height="120" fill="black">
            <rect fill="white" width="16" height="120"/>
            <path d="M0 0H14V120H0V0Z"/>
        </mask>
        <path d="M0 0H14V120H0V0Z" fill="black" fill-opacity="0.1"/>
        <path d="M12.5 0V120H15.5V0H12.5Z" fill="white" fill-opacity="0.2" mask="url(#path-4-outside-1_2130_61773)"/>
    </g>
    <path d="M0.5 4C0.5 2.06701 2.067 0.5 4 0.5H82C86.1421 0.5 89.5 3.85786 89.5 8V112C89.5 116.142 86.1421 119.5 82 119.5H4C2.067 119.5 0.5 117.933 0.5 116V4Z" stroke="url(#paint1_linear_2130_61773)"/>
    <defs>
        <linearGradient id="paint0_linear_2130_61773" x1="45" y1="0" x2="45" y2="120" gradientUnits="userSpaceOnUse">
            <stop stop-color="#FF5B96" stop-opacity="0.8"/>
            <stop offset="1" stop-color="#FF5B96" stop-opacity="0.2"/>
        </linearGradient>
        <linearGradient id="paint1_linear_2130_61773" x1="45" y1="0" x2="90" y2="120" gradientUnits="userSpaceOnUse">
            <stop stop-color="#FF5B96" stop-opacity="0.5"/>
            <stop offset="1" stop-color="#FF5B96" stop-opacity="0.2"/>
        </linearGradient>
        <clipPath id="clip0_2130_61773">
            <path d="M0 4C0 1.79086 1.79086 0 4 0H82C86.4183 0 90 3.58172 90 8V112C90 116.418 86.4183 120 82 120H4C1.79086 120 0 118.209 0 116V4Z" fill="white"/>
        </clipPath>
    </defs>
</svg>
