<svg width="20" height="20" viewBox="0 0 20 20" fill="none" xmlns="http://www.w3.org/2000/svg">
<g id="icon/&#233;&#128;&#154;&#231;&#148;&#168;/&#230;&#137;&#185;&#233;&#135;&#143;&#231;&#174;&#161;&#231;&#144;&#134;">
<g id="Union">
<path d="M3.33333 3.33398C2.8731 3.33398 2.5 3.70708 2.5 4.16732C2.5 4.62756 2.8731 5.00065 3.33333 5.00065H16.6667C17.1269 5.00065 17.5 4.62756 17.5 4.16732C17.5 3.70708 17.1269 3.33398 16.6667 3.33398H3.33333Z" fill="black" fill-opacity="0.88"/>
<path d="M3.33333 9.16732C2.8731 9.16732 2.5 9.54041 2.5 10.0007C2.5 10.4609 2.8731 10.834 3.33333 10.834H16.6667C17.1269 10.834 17.5 10.4609 17.5 10.0007C17.5 9.54041 17.1269 9.16732 16.6667 9.16732H3.33333Z" fill="black" fill-opacity="0.88"/>
<path d="M2.5 15.834C2.5 15.3737 2.8731 15.0007 3.33333 15.0007H8.33333C8.79357 15.0007 9.16667 15.3737 9.16667 15.834C9.16667 16.2942 8.79357 16.6673 8.33333 16.6673H3.33333C2.8731 16.6673 2.5 16.2942 2.5 15.834Z" fill="black" fill-opacity="0.88"/>
<path d="M17.2559 14.7566C17.5814 14.4311 17.5814 13.9035 17.2559 13.5781C16.9305 13.2526 16.4028 13.2526 16.0774 13.5781L13.3333 16.3221L12.2559 15.2447C11.9305 14.9193 11.4028 14.9193 11.0774 15.2447C10.752 15.5702 10.752 16.0978 11.0774 16.4232L12.7441 18.0899C13.0695 18.4153 13.5972 18.4153 13.9226 18.0899L17.2559 14.7566Z" fill="black" fill-opacity="0.88"/>
</g>
</g>
</svg>
