<svg width="20" height="20" viewBox="0 0 20 20" fill="none" xmlns="http://www.w3.org/2000/svg">
<g id="icon/&#233;&#128;&#154;&#231;&#148;&#168;/&#231;&#178;&#152;&#232;&#180;&#180;">
<path id="Union" fill-rule="evenodd" clip-rule="evenodd" d="M7.5 1.66602C6.57953 1.66602 5.83333 2.41221 5.83333 3.33268H5C3.61929 3.33268 2.5 4.45197 2.5 5.83268V15.8327C2.5 17.2134 3.61929 18.3327 5 18.3327H15C16.3807 18.3327 17.5 17.2134 17.5 15.8327V5.83268C17.5 4.45197 16.3807 3.33268 15 3.33268H14.1667C14.1667 2.41221 13.4205 1.66602 12.5 1.66602H7.5ZM14.1667 4.99935C14.1667 5.91982 13.4205 6.66602 12.5 6.66602H7.5C6.57953 6.66602 5.83333 5.91982 5.83333 4.99935H5C4.53976 4.99935 4.16667 5.37245 4.16667 5.83268V15.8327C4.16667 16.2929 4.53976 16.666 5 16.666H15C15.4602 16.666 15.8333 16.2929 15.8333 15.8327V5.83268C15.8333 5.37245 15.4602 4.99935 15 4.99935H14.1667ZM7.5 3.33268H12.5V4.99935H7.5V3.33268Z" fill="black" fill-opacity="0.88"/>
</g>
</svg>
