<svg width="24" height="24" viewBox="0 0 24 24" fill="none" xmlns="http://www.w3.org/2000/svg">
<g id="icon/tab/&#232;&#174;&#162;&#233;&#152;&#133;-line">
<path id="Union" fill-rule="evenodd" clip-rule="evenodd" d="M6 1.0159C4.34315 1.0159 3 2.35904 3 4.0159V20.0803C3 22.3748 5.47097 23.8199 7.47078 22.695L11.5097 20.4231C11.8142 20.2519 12.1858 20.2519 12.4903 20.4231L16.5292 22.695C18.529 23.8199 21 22.3748 21 20.0803V4.0159C21 2.35905 19.6569 1.0159 18 1.0159H6ZM5 4.0159C5 3.46361 5.44771 3.0159 6 3.0159H18C18.5523 3.0159 19 3.46361 19 4.0159V20.0803C19 20.8451 18.1763 21.3268 17.5097 20.9519L13.4708 18.68C12.5575 18.1663 11.4425 18.1663 10.5292 18.68L6.49026 20.9519C5.82366 21.3268 5 20.8451 5 20.0803V4.0159ZM13 7.99999C13 7.44771 12.5523 6.99999 12 6.99999C11.4477 6.99999 11 7.44771 11 7.99999V10H9C8.44772 10 8 10.4477 8 11C8 11.5523 8.44772 12 9 12H11V14C11 14.5523 11.4477 15 12 15C12.5523 15 13 14.5523 13 14V12H15C15.5523 12 16 11.5523 16 11C16 10.4477 15.5523 10 15 10H13V7.99999Z" fill="black" fill-opacity="0.65"/>
</g>
</svg>
