<svg width="20" height="20" viewBox="0 0 20 20" fill="none" xmlns="http://www.w3.org/2000/svg">
<g id="icon/&#233;&#128;&#154;&#231;&#148;&#168;/&#229;&#184;&#174;&#229;&#138;&#169;">
<g id="Union">
<path d="M10.0001 6.66602C9.28318 6.66602 8.75008 7.15236 8.75008 7.91602C8.75008 8.37625 8.37699 8.74935 7.91675 8.74935C7.45651 8.74935 7.08342 8.37625 7.08342 7.91602C7.08342 6.17967 8.4158 4.99935 10.0001 4.99935C11.6109 4.99935 12.9167 6.30519 12.9167 7.91602C12.9167 9.20317 12.0536 9.83954 11.5196 10.2133C11.4758 10.244 11.4347 10.2726 11.3962 10.2993C11.1692 10.4574 11.0305 10.5539 10.9244 10.6635C10.8357 10.7552 10.8334 10.7922 10.8334 10.8327V11.249C10.8334 11.7093 10.4603 12.0827 10.0001 12.0827C9.53984 12.0827 9.16675 11.7096 9.16675 11.2493V10.833C9.16675 10.2484 9.42489 9.81641 9.72677 9.50447C9.95684 9.26672 10.2511 9.06385 10.4675 8.91469C10.5017 8.89111 10.5341 8.86872 10.5639 8.84791C11.0716 8.49249 11.2501 8.29553 11.2501 7.91602C11.2501 7.22566 10.6904 6.66602 10.0001 6.66602Z" fill="black" fill-opacity="0.88"/>
<path d="M10.0001 14.9993C10.5754 14.9993 11.0417 14.533 11.0417 13.9577C11.0417 13.3824 10.5754 12.916 10.0001 12.916C9.42478 12.916 8.95842 13.3824 8.95842 13.9577C8.95842 14.533 9.42478 14.9993 10.0001 14.9993Z" fill="black" fill-opacity="0.88"/>
<path fill-rule="evenodd" clip-rule="evenodd" d="M1.66675 9.99935C1.66675 5.39698 5.39771 1.66602 10.0001 1.66602C14.6025 1.66602 18.3334 5.39698 18.3334 9.99935C18.3334 14.6017 14.6025 18.3327 10.0001 18.3327C5.39771 18.3327 1.66675 14.6017 1.66675 9.99935ZM10.0001 3.33268C6.31818 3.33268 3.33341 6.31745 3.33341 9.99935C3.33341 13.6812 6.31818 16.666 10.0001 16.666C13.682 16.666 16.6667 13.6812 16.6667 9.99935C16.6667 6.31745 13.682 3.33268 10.0001 3.33268Z" fill="black" fill-opacity="0.88"/>
</g>
</g>
</svg>
