<svg width="46" height="22" viewBox="0 0 46 22" fill="none" xmlns="http://www.w3.org/2000/svg">
<g id="&#232;&#174;&#162;&#233;&#152;&#133;">
<path id="Vector" d="M45.3359 21.8H41.5679V18.68H42.3119V3.70395H32.5919V0.655951H45.3599L45.3359 21.8ZM24.9839 5.28795H28.0079V21.8H24.9839V5.28795ZM29.5199 0.199951L31.2239 4.15995H27.8159L26.1119 0.199951H29.5199ZM28.3679 21.8C29.3119 20.712 29.9999 19.64 30.4319 18.584C30.8639 17.528 31.1199 16.384 31.1999 15.152H29.2319V6.70395H30.9359L30.1919 4.56795H33.2879L34.0079 6.70395H36.2879L37.0079 4.56795H40.1039L39.3599 6.70395H41.0639V15.152H39.1199V18.656H40.9919V21.68H36.1919V15.152H34.1039C34.0399 16.352 33.8399 17.488 33.5039 18.56C33.1839 19.632 32.7119 20.712 32.0879 21.8H28.3679ZM38.0399 12.32V9.53595H32.2559V12.32H38.0399Z" fill="black" fill-opacity="0.88"/>
<path id="Vector_2" d="M11.88 18.68H14.76V3.82395H8.832V0.63195H22.2V3.82395H18.12V21.8H11.88V18.68ZM0 7.03995H5.976V17.264L8.952 16.376V19.952L2.808 21.8V10.232H0V7.03995ZM4.92 0.199951L6.528 5.40795H3.264L1.656 0.199951H4.92Z" fill="black" fill-opacity="0.88"/>
</g>
</svg>
