<svg width="24" height="24" viewBox="0 0 24 24" fill="none" xmlns="http://www.w3.org/2000/svg">
<path d="M7.83201 4.44541C8.13836 4.90493 8.01418 5.5258 7.55466 5.83216L7.30273 6.00011H14C17.8659 6.00011 21 9.13411 21 13.0001C21 16.8661 17.8659 20.0001 14 20.0001H4.99996C4.44767 20.0001 3.99996 19.5524 3.99996 19.0001C3.99996 18.4478 4.44767 18.0001 4.99996 18.0001H14C16.7614 18.0001 19 15.7615 19 13.0001C19 10.2387 16.7614 8.00011 14 8.00011H3.99996C3.55929 8.00011 3.17056 7.71165 3.04286 7.28989C2.91517 6.86813 3.0786 6.41249 3.44526 6.16806L6.44526 4.16806C6.90478 3.8617 7.52565 3.98588 7.83201 4.44541Z" fill="black" fill-opacity="0.88"/>
</svg>
