<svg width="20" height="20" viewBox="0 0 20 20" fill="none" xmlns="http://www.w3.org/2000/svg">
<g id="icon/&#233;&#128;&#154;&#231;&#148;&#168;/&#229;&#173;&#151;&#229;&#133;&#184;">
<g id="Union">
<path d="M7.5 5.83366C7.03976 5.83366 6.66667 6.20676 6.66667 6.66699C6.66667 7.12723 7.03976 7.50033 7.5 7.50033H12.5C12.9602 7.50033 13.3333 7.12723 13.3333 6.66699C13.3333 6.20676 12.9602 5.83366 12.5 5.83366H7.5Z" fill="black" fill-opacity="0.88"/>
<path fill-rule="evenodd" clip-rule="evenodd" d="M2.5 4.16699C2.5 2.78628 3.61929 1.66699 5 1.66699H15.8333C16.7538 1.66699 17.5 2.41318 17.5 3.33366V15.0003H5C4.53976 15.0003 4.16667 15.3734 4.16667 15.8337C4.16667 16.2939 4.53976 16.667 5 16.667H16.6667C17.1269 16.667 17.5 17.0401 17.5 17.5003C17.5 17.9606 17.1269 18.3337 16.6667 18.3337H5C3.61929 18.3337 2.5 17.2144 2.5 15.8337V4.16699ZM15.8333 3.33366V13.3337H5C4.7078 13.3337 4.42732 13.3838 4.16667 13.4759V4.16699C4.16667 3.70675 4.53976 3.33366 5 3.33366H15.8333Z" fill="black" fill-opacity="0.88"/>
</g>
</g>
</svg>
