<svg width="24" height="24" viewBox="0 0 24 24" fill="none" xmlns="http://www.w3.org/2000/svg">
<g id="icon/&#233;&#128;&#154;&#231;&#148;&#168;/&#230;&#150;&#135;&#228;&#187;&#182;&#229;&#164;&#185;">
<g id="Union">
<path d="M7 11.5C7 10.9477 7.44772 10.5 8 10.5H14C14.5523 10.5 15 10.9477 15 11.5C15 12.0523 14.5523 12.5 14 12.5H8C7.44772 12.5 7 12.0523 7 11.5Z" fill="black" fill-opacity="0.88"/>
<path d="M8 14.5C7.44772 14.5 7 14.9477 7 15.5C7 16.0523 7.44772 16.5 8 16.5H12C12.5523 16.5 13 16.0523 13 15.5C13 14.9477 12.5523 14.5 12 14.5H8Z" fill="black" fill-opacity="0.88"/>
<path fill-rule="evenodd" clip-rule="evenodd" d="M2 6C2 4.34315 3.34315 3 5 3H9.46482C10.1335 3 10.758 3.3342 11.1289 3.8906L12.5352 6H19C20.6569 6 22 7.34315 22 9V18C22 19.6569 20.6569 21 19 21H5C3.34315 21 2 19.6569 2 18V6ZM5 5C4.44772 5 4 5.44772 4 6V18C4 18.5523 4.44772 19 5 19H19C19.5523 19 20 18.5523 20 18V9C20 8.44772 19.5523 8 19 8H12.5352C11.8665 8 11.242 7.6658 10.8711 7.1094L9.46482 5H5Z" fill="black" fill-opacity="0.88"/>
</g>
</g>
</svg>
