<svg width="24" height="24" viewBox="0 0 24 24" fill="none" xmlns="http://www.w3.org/2000/svg">
<g id="icon/&#230;&#150;&#185;&#229;&#144;&#145;/&#229;&#175;&#188;&#229;&#135;&#186;">
<g id="Union">
<path d="M2 5C2 3.34315 3.34315 2 5 2H14C15.6569 2 17 3.34315 17 5V6C17 6.55228 16.5523 7 16 7C15.4477 7 15 6.55228 15 6V5C15 4.44772 14.5523 4 14 4H5C4.44772 4 4 4.44772 4 5V19C4 19.5523 4.44772 20 5 20H14C14.5523 20 15 19.5523 15 19V18C15 17.4477 15.4477 17 16 17C16.5523 17 17 17.4477 17 18V19C17 20.6569 15.6569 22 14 22H5C3.34315 22 2 20.6569 2 19V5Z" fill="black" fill-opacity="0.88"/>
<path d="M17.2929 8.29289C17.6834 7.90237 18.3166 7.90237 18.7071 8.29289L21.7071 11.2929C22.0976 11.6834 22.0976 12.3166 21.7071 12.7071L18.7071 15.7071C18.3166 16.0976 17.6834 16.0976 17.2929 15.7071C16.9024 15.3166 16.9024 14.6834 17.2929 14.2929L18.5858 13H10.5C9.94772 13 9.5 12.5523 9.5 12C9.5 11.4477 9.94772 11 10.5 11H18.5858L17.2929 9.70711C16.9024 9.31658 16.9024 8.68342 17.2929 8.29289Z" fill="black" fill-opacity="0.88"/>
</g>
</g>
</svg>
