<svg width="20" height="20" viewBox="0 0 20 20" fill="none" xmlns="http://www.w3.org/2000/svg">
<g id="icon/&#233;&#128;&#154;&#231;&#148;&#168;/&#232;&#176;&#131;&#232;&#175;&#149;">
<g id="Union">
<path d="M8.33341 8.33329C7.87318 8.33329 7.50008 8.70639 7.50008 9.16663C7.50008 9.62686 7.87318 9.99996 8.33341 9.99996H11.6667C12.127 9.99996 12.5001 9.62686 12.5001 9.16663C12.5001 8.70639 12.127 8.33329 11.6667 8.33329H8.33341Z" fill="black" fill-opacity="0.88"/>
<path d="M7.50008 12.5C7.50008 12.0397 7.87318 11.6666 8.33341 11.6666H11.6667C12.127 11.6666 12.5001 12.0397 12.5001 12.5C12.5001 12.9602 12.127 13.3333 11.6667 13.3333H8.33341C7.87318 13.3333 7.50008 12.9602 7.50008 12.5Z" fill="black" fill-opacity="0.88"/>
<path fill-rule="evenodd" clip-rule="evenodd" d="M6.07749 1.9107C6.40293 1.58527 6.93057 1.58527 7.256 1.9107L8.80179 3.45649C9.18854 3.37574 9.58935 3.33329 10.0001 3.33329C10.4108 3.33329 10.8116 3.37574 11.1984 3.45649L12.7442 1.9107C13.0696 1.58527 13.5972 1.58527 13.9227 1.9107C14.2481 2.23614 14.2481 2.76378 13.9227 3.08921L12.905 4.1069C13.9315 4.69753 14.7614 5.59159 15.2721 6.66663H17.5001C17.9603 6.66663 18.3334 7.03972 18.3334 7.49996C18.3334 7.9602 17.9603 8.33329 17.5001 8.33329H15.7743C15.8133 8.60546 15.8334 8.88369 15.8334 9.16663V9.99996H17.5001C17.9603 9.99996 18.3334 10.3731 18.3334 10.8333C18.3334 11.2935 17.9603 11.6666 17.5001 11.6666H15.8334V12.5C15.8334 12.7829 15.8133 13.0611 15.7743 13.3333H17.5001C17.9603 13.3333 18.3334 13.7064 18.3334 14.1666C18.3334 14.6269 17.9603 15 17.5001 15H15.2721C14.3358 16.9707 12.3271 18.3333 10.0001 18.3333C7.67308 18.3333 5.66433 16.9707 4.72811 15H2.50008C2.03984 15 1.66675 14.6269 1.66675 14.1666C1.66675 13.7064 2.03984 13.3333 2.50008 13.3333H4.22582C4.18689 13.0611 4.16675 12.7829 4.16675 12.5V11.6666H2.50008C2.03984 11.6666 1.66675 11.2935 1.66675 10.8333C1.66675 10.3731 2.03984 9.99996 2.50008 9.99996H4.16675V9.16663C4.16675 8.88369 4.18689 8.60546 4.22582 8.33329H2.50008C2.03984 8.33329 1.66675 7.9602 1.66675 7.49996C1.66675 7.03972 2.03984 6.66663 2.50008 6.66663H4.72811C5.2388 5.59159 6.06864 4.69753 7.09518 4.1069L6.07749 3.08921C5.75206 2.76378 5.75206 2.23614 6.07749 1.9107ZM5.83341 12.5C5.83341 14.8011 7.69889 16.6666 10.0001 16.6666C12.3013 16.6666 14.1667 14.8011 14.1667 12.5V9.16663C14.1667 6.86544 12.3013 4.99996 10.0001 4.99996C7.69889 4.99996 5.83341 6.86544 5.83341 9.16663V12.5Z" fill="black" fill-opacity="0.88"/>
</g>
</g>
</svg>
