<svg width="20" height="20" viewBox="0 0 20 20" fill="none" xmlns="http://www.w3.org/2000/svg">
<g id="icon/&#233;&#128;&#154;&#231;&#148;&#168;/&#229;&#138;&#160;">
<path id="Union" d="M10.0001 4.16602C10.4603 4.16602 10.8334 4.53911 10.8334 4.99935V9.16602H15.0001C15.4603 9.16602 15.8334 9.53911 15.8334 9.99935C15.8334 10.4596 15.4603 10.8327 15.0001 10.8327H10.8334V14.9993C10.8334 15.4596 10.4603 15.8327 10.0001 15.8327C9.53984 15.8327 9.16675 15.4596 9.16675 14.9993V10.8327H5.00008C4.53984 10.8327 4.16675 10.4596 4.16675 9.99935C4.16675 9.53911 4.53984 9.16602 5.00008 9.16602H9.16675V4.99935C9.16675 4.53911 9.53984 4.16602 10.0001 4.16602Z" fill="black" fill-opacity="0.88"/>
</g>
</svg>
