<svg width="20" height="20" viewBox="0 0 20 20" fill="none" xmlns="http://www.w3.org/2000/svg">
<g id="icon/&#233;&#128;&#154;&#231;&#148;&#168;/&#230;&#150;&#135;&#228;&#187;&#182;&#229;&#164;&#185;2">
<g id="Union">
<path d="M7.50008 10.4167C7.03984 10.4167 6.66675 10.7898 6.66675 11.25C6.66675 11.7102 7.03984 12.0833 7.50008 12.0833H12.5001C12.9603 12.0833 13.3334 11.7102 13.3334 11.25C13.3334 10.7898 12.9603 10.4167 12.5001 10.4167H7.50008Z" fill="black" fill-opacity="0.88"/>
<path fill-rule="evenodd" clip-rule="evenodd" d="M4.16675 2.5C2.78604 2.5 1.66675 3.61929 1.66675 5V15C1.66675 16.3807 2.78604 17.5 4.16675 17.5H15.8334C17.2141 17.5 18.3334 16.3807 18.3334 15V7.5C18.3334 6.11929 17.2141 5 15.8334 5H10.4461L9.27418 3.24217C8.96507 2.7785 8.44468 2.5 7.88743 2.5H4.16675ZM3.33341 5C3.33341 4.53976 3.70651 4.16667 4.16675 4.16667H7.88743L9.05932 5.9245C9.36843 6.38816 9.88881 6.66667 10.4461 6.66667H15.8334C16.2937 6.66667 16.6667 7.03976 16.6667 7.5V15C16.6667 15.4602 16.2937 15.8333 15.8334 15.8333H4.16675C3.70651 15.8333 3.33341 15.4602 3.33341 15V5Z" fill="black" fill-opacity="0.88"/>
</g>
</g>
</svg>
