<svg width="24" height="24" viewBox="0 0 24 24" fill="none" xmlns="http://www.w3.org/2000/svg">
<g id="icon/&#230;&#150;&#185;&#229;&#144;&#145;/&#231;&#189;&#174;&#233;&#161;&#182;">
<g id="Union">
<path d="M12 22C12.5523 22 13 21.5523 13 21V10.4142L17.2929 14.7071C17.6834 15.0976 18.3166 15.0976 18.7071 14.7071C19.0976 14.3166 19.0976 13.6834 18.7071 13.2929L12.7078 7.29357C12.5268 7.11221 12.2765 7 12 7C11.7293 7 11.4838 7.10754 11.3037 7.28222C11.3001 7.28575 11.2965 7.28931 11.2929 7.29289L5.29289 13.2929C4.90237 13.6834 4.90237 14.3166 5.29289 14.7071C5.68342 15.0976 6.31658 15.0976 6.70711 14.7071L11 10.4142L11 21C11 21.5523 11.4477 22 12 22Z" fill="black" fill-opacity="0.88"/>
<path d="M19 4C19 3.44772 18.5523 3 18 3H6C5.44772 3 5 3.44772 5 4C5 4.55229 5.44772 5 6 5H18C18.5523 5 19 4.55228 19 4Z" fill="black" fill-opacity="0.88"/>
</g>
</g>
</svg>
