<svg width="16" height="16" viewBox="0 0 16 16" fill="none" xmlns="http://www.w3.org/2000/svg">
<g id="icon/&#233;&#128;&#154;&#231;&#148;&#168;/&#230;&#184;&#133;&#233;&#153;&#164;-fill">
<path id="Union" fill-rule="evenodd" clip-rule="evenodd" d="M14.6668 7.99935C14.6668 11.6813 11.6821 14.666 8.00016 14.666C4.31826 14.666 1.3335 11.6813 1.3335 7.99935C1.3335 4.31745 4.31826 1.33269 8.00016 1.33269C11.6821 1.33269 14.6668 4.31745 14.6668 7.99935ZM10.4043 5.59523C10.6907 5.88161 10.6907 6.34593 10.4043 6.63232L9.03725 7.99935L10.4044 9.36646C10.6907 9.65284 10.6907 10.1172 10.4044 10.4035C10.118 10.6899 9.65365 10.6899 9.36727 10.4035L8.00016 9.03644L6.63304 10.4035C6.34666 10.6899 5.88234 10.6899 5.59595 10.4035C5.30957 10.1172 5.30957 9.65284 5.59595 9.36646L6.96307 7.99935L5.59603 6.63232C5.30965 6.34593 5.30965 5.88161 5.59603 5.59523C5.88242 5.30884 6.34674 5.30884 6.63312 5.59523L8.00016 6.96226L9.36719 5.59523C9.65357 5.30884 10.1179 5.30884 10.4043 5.59523Z" fill="black" fill-opacity="0.45"/>
</g>
</svg>
