<svg width="24" height="24" viewBox="0 0 24 24" fill="none" xmlns="http://www.w3.org/2000/svg">
<g id="icon/&#233;&#128;&#154;&#231;&#148;&#168;/&#229;&#155;&#190;&#230;&#160;&#135;&#233;&#166;&#150;&#229;&#173;&#151;">
<g id="Union">
<path d="M8 8C7.44772 8 7 8.44772 7 9C7 9.55228 7.44772 10 8 10H11V16C11 16.5523 11.4477 17 12 17C12.5523 17 13 16.5523 13 16V10H16C16.5523 10 17 9.55228 17 9C17 8.44772 16.5523 8 16 8H8Z" fill="black" fill-opacity="0.88"/>
<path fill-rule="evenodd" clip-rule="evenodd" d="M6 3C4.34315 3 3 4.34315 3 6V18C3 19.6569 4.34315 21 6 21H18C19.6569 21 21 19.6569 21 18V6C21 4.34315 19.6569 3 18 3H6ZM5 6C5 5.44772 5.44772 5 6 5H18C18.5523 5 19 5.44772 19 6V18C19 18.5523 18.5523 19 18 19H6C5.44772 19 5 18.5523 5 18V6Z" fill="black" fill-opacity="0.88"/>
</g>
</g>
</svg>
