<svg width="24" height="24" viewBox="0 0 24 24" fill="none" xmlns="http://www.w3.org/2000/svg">
<path d="M12 9C12.8284 9 13.5 8.32843 13.5 7.5C13.5 6.67157 12.8284 6 12 6C11.1716 6 10.5 6.67157 10.5 7.5C10.5 8.32843 11.1716 9 12 9Z" fill="black" fill-opacity="0.88"/>
<path d="M9 10.5C9 11.3284 8.32843 12 7.5 12C6.67157 12 6 11.3284 6 10.5C6 9.67157 6.67157 9 7.5 9C8.32843 9 9 9.67157 9 10.5Z" fill="black" fill-opacity="0.88"/>
<path d="M16.5 12C17.3284 12 18 11.3284 18 10.5C18 9.67157 17.3284 9 16.5 9C15.6716 9 15 9.67157 15 10.5C15 11.3284 15.6716 12 16.5 12Z" fill="black" fill-opacity="0.88"/>
<path fill-rule="evenodd" clip-rule="evenodd" d="M12 2C6.47715 2 2 6.47715 2 12C2 17.5228 6.47715 22 12 22C12.3251 22 12.8181 21.9553 13.2013 21.6113C13.6658 21.1944 13.6642 20.6423 13.6074 20.3243C13.5532 20.0204 13.42 19.7255 13.3132 19.5067C13.2402 19.3571 13.149 19.1842 13.0627 19.0207C13.0202 18.9403 12.979 18.8621 12.9417 18.7901C12.6837 18.2919 12.4979 17.867 12.4492 17.4951C12.4088 17.1869 12.4625 16.9518 12.7071 16.7071C13.3169 16.0973 14.0097 16.1094 15.2542 16.3009C15.3339 16.3131 15.4167 16.3265 15.5023 16.3402C16.5996 16.5166 18.1533 16.7663 19.5547 15.8321C22.295 14.0052 22.314 10.3421 20.8994 7.4915C19.442 4.55482 16.3084 2 12 2ZM4 12C4 7.58172 7.58172 4 12 4C15.4453 4 17.9396 6.02656 19.1078 8.38056C20.3188 10.8207 19.9609 13.1576 18.4453 14.1679C17.7135 14.6558 16.9102 14.5322 15.5986 14.3303L15.5583 14.3241C14.3653 14.1406 12.6831 13.9027 11.2929 15.2929C10.5375 16.0482 10.3591 16.9381 10.4661 17.7549C10.5648 18.508 10.9059 19.2081 11.1658 19.7099C11.2153 19.8055 11.2603 19.891 11.3021 19.97C7.21062 19.6164 4 16.1831 4 12ZM12.1014 19.9936C12.1017 19.9938 12.0973 19.9948 12.0874 19.996C12.0962 19.9939 12.1011 19.9933 12.1014 19.9936Z" fill="black" fill-opacity="0.88"/>
</svg>
