<svg width="24" height="24" viewBox="0 0 24 24" fill="none" xmlns="http://www.w3.org/2000/svg">
<path fill-rule="evenodd" clip-rule="evenodd" d="M6 21C4.34315 21 3 19.6569 3 18V6C3 4.34315 4.34315 3 6 3H15.1716C15.9672 3 16.7303 3.31607 17.2929 3.87868L20.1213 6.70711C20.6839 7.26972 21 8.03278 21 8.82843V18C21 19.6569 19.6569 21 18 21H6ZM5 6C5 5.44772 5.44772 5 6 5H15.1716C15.4368 5 15.6911 5.10536 15.8787 5.29289L18.7071 8.12132C18.8946 8.30886 19 8.56321 19 8.82843V18C19 18.5523 18.5523 19 18 19H17V15C17 13.8954 16.1046 13 15 13H9C7.89543 13 7 13.8954 7 15V19H6C5.44772 19 5 18.5523 5 18V6ZM9 19H15V15H9V19Z" fill="black" fill-opacity="0.88"/>
</svg>
