<svg width="24" height="24" viewBox="0 0 24 24" fill="none" xmlns="http://www.w3.org/2000/svg">
<path fill-rule="evenodd" clip-rule="evenodd" d="M12 22C17.5228 22 22 17.5228 22 12C22 6.47715 17.5228 2 12 2C6.47715 2 2 6.47715 2 12C2 17.5228 6.47715 22 12 22ZM13.25 8.25C13.25 8.94036 12.6904 9.5 12 9.5C11.3096 9.5 10.75 8.94036 10.75 8.25C10.75 7.55964 11.3096 7 12 7C12.6904 7 13.25 7.55964 13.25 8.25ZM12 11C12.5523 11 13 11.4477 13 12V16C13 16.5523 12.5523 17 12 17C11.4477 17 11 16.5523 11 16V12C11 11.4477 11.4477 11 12 11Z" fill="black" fill-opacity="0.88"/>
</svg>
