<svg width="24" height="24" viewBox="0 0 24 24" fill="none" xmlns="http://www.w3.org/2000/svg">
<path d="M9.17157 16.8284C8.42143 16.0783 8 15.0609 8 14L16 14C16 15.0609 15.5786 16.0783 14.8284 16.8284C14.0783 17.5786 13.0609 18 12 18C10.9391 18 9.92172 17.5786 9.17157 16.8284Z" fill="black" fill-opacity="0.88"/>
<path fill-rule="evenodd" clip-rule="evenodd" d="M12 22C16.4183 22 20 18.4183 20 14C20 11.1586 18.3275 8.18585 16.6694 6.01755C15.8234 4.91134 14.9397 3.96032 14.1891 3.27643C13.8155 2.93603 13.4589 2.64721 13.144 2.43649C12.9874 2.33165 12.823 2.23397 12.6589 2.15901C12.5165 2.09395 12.2778 2 12 2C11.7222 2 11.4835 2.09395 11.3411 2.15901C11.177 2.23397 11.0126 2.33165 10.856 2.43649C10.5411 2.64722 10.1845 2.93603 9.81088 3.27643C9.06028 3.96032 8.17656 4.91134 7.33064 6.01755C5.67253 8.18585 4 11.1586 4 14C4 18.4183 7.58172 22 12 22ZM18 14C18 17.3137 15.3137 20 12 20C8.68629 20 6 17.3137 6 14C6 11.8414 7.32747 9.31415 8.91936 7.23245C9.69843 6.21366 10.5022 5.35218 11.1579 4.75482C11.4874 4.45459 11.7636 4.2356 11.9682 4.09867L12 4.07771L12.0317 4.09867C12.2364 4.2356 12.5126 4.45459 12.8421 4.75482C13.4978 5.35218 14.3016 6.21366 15.0806 7.23245C16.6725 9.31415 18 11.8414 18 14Z" fill="black" fill-opacity="0.88"/>
</svg>
