<svg width="24" height="24" viewBox="0 0 24 24" fill="none" xmlns="http://www.w3.org/2000/svg">
<path fill-rule="evenodd" clip-rule="evenodd" d="M5 3C3.34315 3 2 4.34315 2 6V18C2 19.6569 3.34315 21 5 21H19C20.6569 21 22 19.6569 22 18V9C22 7.34315 20.6569 6 19 6H12.5352L11.1289 3.8906C10.758 3.3342 10.1335 3 9.46482 3H5ZM4 6C4 5.44772 4.44772 5 5 5H9.46482L10.8711 7.1094C11.242 7.6658 11.8665 8 12.5352 8H14V9H16V11H14V13H16V15H14V18H18V13H16V11H18V9H16V8H19C19.5523 8 20 8.44772 20 9V18C20 18.5523 19.5523 19 19 19H5C4.44772 19 4 18.5523 4 18V6Z" fill="black" fill-opacity="0.88"/>
</svg>
