<svg width="24" height="24" viewBox="0 0 24 24" fill="none" xmlns="http://www.w3.org/2000/svg">
<path fill-rule="evenodd" clip-rule="evenodd" d="M2 12C2 6.47715 6.47715 2 12 2C17.5228 2 22 6.47715 22 12V17.5C22 19.433 20.433 21 18.5 21C16.567 21 15 19.433 15 17.5V15.5C15 13.567 16.567 12 18.5 12C19.0368 12 19.5454 12.1208 20 12.3368V12C20 7.58172 16.4183 4 12 4C7.58172 4 4 7.58172 4 12V12.3368C4.45463 12.1208 4.9632 12 5.5 12C7.433 12 9 13.567 9 15.5V17.5C9 19.433 7.433 21 5.5 21C3.567 21 2 19.433 2 17.5V12ZM4 15.5V17.5C4 18.3284 4.67157 19 5.5 19C6.32843 19 7 18.3284 7 17.5V15.5C7 14.6716 6.32843 14 5.5 14C4.67157 14 4 14.6716 4 15.5ZM18.5 14C19.3284 14 20 14.6716 20 15.5V17.5C20 18.3284 19.3284 19 18.5 19C17.6716 19 17 18.3284 17 17.5V15.5C17 14.6716 17.6716 14 18.5 14Z" fill="black" fill-opacity="0.88"/>
</svg>
