<svg width="24" height="24" viewBox="0 0 24 24" fill="none" xmlns="http://www.w3.org/2000/svg">
<path fill-rule="evenodd" clip-rule="evenodd" d="M12 6C9.79086 6 8 7.79086 8 10C8 12.2091 9.79086 14 12 14C14.2091 14 16 12.2091 16 10C16 7.79086 14.2091 6 12 6ZM10 10C10 8.89543 10.8954 8 12 8C13.1046 8 14 8.89543 14 10C14 11.1046 13.1046 12 12 12C10.8954 12 10 11.1046 10 10Z" fill="black" fill-opacity="0.88"/>
<path fill-rule="evenodd" clip-rule="evenodd" d="M12 2C7.58172 2 4 5.58172 4 10C4 12.8414 5.67253 15.8142 7.33064 17.9825C8.17656 19.0887 9.06028 20.0397 9.81088 20.7236C10.1845 21.064 10.5411 21.3528 10.856 21.5635C11.0126 21.6683 11.177 21.766 11.3411 21.841C11.4835 21.906 11.7222 22 12 22C12.2778 22 12.5165 21.906 12.6589 21.841C12.823 21.766 12.9874 21.6683 13.144 21.5635C13.4589 21.3528 13.8155 21.064 14.1891 20.7236C14.9397 20.0397 15.8234 19.0887 16.6694 17.9825C18.3275 15.8142 20 12.8414 20 10C20 5.58172 16.4183 2 12 2ZM6 10C6 6.68629 8.68629 4 12 4C15.3137 4 18 6.68629 18 10C18 12.1586 16.6725 14.6858 15.0806 16.7675C14.3016 17.7863 13.4978 18.6478 12.8421 19.2452C12.5126 19.5454 12.2364 19.7644 12.0317 19.9013L12 19.9223L11.9683 19.9013C11.7636 19.7644 11.4874 19.5454 11.1579 19.2452C10.5022 18.6478 9.69844 17.7863 8.91936 16.7675C7.32747 14.6858 6 12.1586 6 10Z" fill="black" fill-opacity="0.88"/>
</svg>
