<svg width="24" height="24" viewBox="0 0 24 24" fill="none" xmlns="http://www.w3.org/2000/svg">
<path d="M2.3999 13.1105C2.3999 11.6997 2.84868 10.2201 3.74624 8.67175C4.68283 7.12336 5.81454 5.83304 7.14136 4.80078L9.30722 5.52336C8.40966 6.72766 7.78527 7.81153 7.43405 8.77497C7.08283 9.70401 6.86819 10.7535 6.79015 11.9234H10.8292V19.2008H2.3999V13.1105ZM13.2292 13.1105C13.2292 11.6997 13.6779 10.2201 14.5755 8.67175C15.5121 7.12336 16.6828 5.83304 18.0877 4.80078L20.195 5.52336C19.2584 6.72766 18.6145 7.81153 18.2633 8.77497C17.9511 9.70401 17.756 10.7535 17.6779 11.9234H21.5999V19.2008H13.2292V13.1105Z" fill="black" fill-opacity="0.88"/>
</svg>
