<svg width="24" height="24" viewBox="0 0 24 24" fill="none" xmlns="http://www.w3.org/2000/svg">
<path d="M12 2C12.5523 2 13 2.44772 13 3V3.5C13 4.05228 12.5523 4.5 12 4.5C11.4477 4.5 11 4.05228 11 3.5V3C11 2.44772 11.4477 2 12 2Z" fill="black" fill-opacity="0.88"/>
<path d="M12 19.5C12.5523 19.5 13 19.9477 13 20.5V21C13 21.5523 12.5523 22 12 22C11.4477 22 11 21.5523 11 21V20.5C11 19.9477 11.4477 19.5 12 19.5Z" fill="black" fill-opacity="0.88"/>
<path d="M19.0711 4.92894C19.4616 5.31946 19.4616 5.95263 19.0711 6.34315L18.7176 6.69671C18.327 7.08723 17.6939 7.08723 17.3034 6.69671C16.9128 6.30618 16.9128 5.67302 17.3034 5.28249L17.6569 4.92894C18.0474 4.53842 18.6806 4.53842 19.0711 4.92894Z" fill="black" fill-opacity="0.88"/>
<path d="M6.69675 17.3033C7.08728 17.6938 7.08728 18.327 6.69675 18.7175L6.3432 19.0711C5.95267 19.4616 5.31951 19.4616 4.92899 19.0711C4.53846 18.6806 4.53846 18.0474 4.92899 17.6569L5.28254 17.3033C5.67306 16.9128 6.30623 16.9128 6.69675 17.3033Z" fill="black" fill-opacity="0.88"/>
<path d="M21 13C21.5523 13 22 12.5523 22 12C22 11.4477 21.5523 11 21 11H20.5C19.9477 11 19.5 11.4477 19.5 12C19.5 12.5523 19.9477 13 20.5 13H21Z" fill="black" fill-opacity="0.88"/>
<path d="M3.5 13C4.05228 13 4.5 12.5523 4.5 12C4.5 11.4477 4.05228 11 3.5 11H3C2.44772 11 2 11.4477 2 12C2 12.5523 2.44772 13 3 13H3.5Z" fill="black" fill-opacity="0.88"/>
<path d="M19.0711 19.0711C18.6806 19.4616 18.0474 19.4616 17.6569 19.0711L17.3034 18.7175C16.9128 18.327 16.9128 17.6938 17.3034 17.3033C17.6939 16.9128 18.327 16.9128 18.7176 17.3033L19.0711 17.6568C19.4616 18.0474 19.4616 18.6805 19.0711 19.0711Z" fill="black" fill-opacity="0.88"/>
<path d="M6.69675 6.69669C6.30623 7.08722 5.67306 7.08721 5.28254 6.69669L4.92899 6.34314C4.53846 5.95261 4.53846 5.31945 4.92899 4.92892C5.31951 4.5384 5.95267 4.5384 6.3432 4.92892L6.69675 5.28248C7.08728 5.673 7.08728 6.30617 6.69675 6.69669Z" fill="black" fill-opacity="0.88"/>
<path fill-rule="evenodd" clip-rule="evenodd" d="M12 5C8.13401 5 5 8.13401 5 12C5 15.866 8.13401 19 12 19C15.866 19 19 15.866 19 12C19 8.13401 15.866 5 12 5ZM7 12C7 9.23858 9.23858 7 12 7C14.7614 7 17 9.23858 17 12C17 14.7614 14.7614 17 12 17C9.23858 17 7 14.7614 7 12Z" fill="black" fill-opacity="0.88"/>
</svg>
