<svg width="24" height="24" viewBox="0 0 24 24" fill="none" xmlns="http://www.w3.org/2000/svg">
<path d="M4 4C3.44772 4 3 4.44772 3 5C3 5.55228 3.44772 6 4 6H20C20.5523 6 21 5.55228 21 5C21 4.44772 20.5523 4 20 4H4Z" fill="black" fill-opacity="0.88"/>
<path d="M4 11C3.44772 11 3 11.4477 3 12C3 12.5523 3.44772 13 4 13H12C12.5523 13 13 12.5523 13 12C13 11.4477 12.5523 11 12 11H4Z" fill="black" fill-opacity="0.88"/>
<path d="M3 19C3 18.4477 3.44772 18 4 18H10C10.5523 18 11 18.4477 11 19C11 19.5523 10.5523 20 10 20H4C3.44772 20 3 19.5523 3 19Z" fill="black" fill-opacity="0.88"/>
<path fill-rule="evenodd" clip-rule="evenodd" d="M15 15C15 13.3431 16.3431 12 18 12C19.6569 12 21 13.3431 21 15V16C21.5523 16 22 16.4477 22 17V20C22 20.5523 21.5523 21 21 21H15C14.4477 21 14 20.5523 14 20V17C14 16.4477 14.4477 16 15 16V15ZM19 15V16H17V15C17 14.4477 17.4477 14 18 14C18.5523 14 19 14.4477 19 15Z" fill="black" fill-opacity="0.88"/>
</svg>
