<svg width="24" height="24" viewBox="0 0 24 24" fill="none" xmlns="http://www.w3.org/2000/svg">
<path d="M8 12C8.55228 12 9 11.5523 9 11C9 10.4477 8.55228 10 8 10C7.44772 10 7 10.4477 7 11C7 11.5523 7.44772 12 8 12Z" fill="black" fill-opacity="0.88"/>
<path d="M13 11C13 11.5523 12.5523 12 12 12C11.4477 12 11 11.5523 11 11C11 10.4477 11.4477 10 12 10C12.5523 10 13 10.4477 13 11Z" fill="black" fill-opacity="0.88"/>
<path d="M16 12C16.5523 12 17 11.5523 17 11C17 10.4477 16.5523 10 16 10C15.4477 10 15 10.4477 15 11C15 11.5523 15.4477 12 16 12Z" fill="black" fill-opacity="0.88"/>
<path fill-rule="evenodd" clip-rule="evenodd" d="M5 3C3.34315 3 2 4.34315 2 6V20.7586C2 21.7386 3.18485 22.2294 3.87782 21.5364L6.12132 19.2929C6.30886 19.1054 6.56321 19 6.82843 19H19C20.6569 19 22 17.6569 22 16V6C22 4.34315 20.6569 3 19 3H5ZM4 6C4 5.44772 4.44772 5 5 5H19C19.5523 5 20 5.44772 20 6V16C20 16.5523 19.5523 17 19 17H6.82843C6.03278 17 5.26972 17.3161 4.70711 17.8787L4 18.5858V6Z" fill="black" fill-opacity="0.88"/>
</svg>
