<svg width="24" height="24" viewBox="0 0 24 24" fill="none" xmlns="http://www.w3.org/2000/svg">
<path d="M6 5C5.44772 5 5 5.44772 5 6V18C5 18.5523 5.44772 19 6 19H18C18.5523 19 19 18.5523 19 18V9C19 8.44772 19.4477 8 20 8C20.5523 8 21 8.44772 21 9V18C21 19.6569 19.6569 21 18 21H6C4.34315 21 3 19.6569 3 18V6C3 4.34315 4.34315 3 6 3H15C15.5523 3 16 3.44772 16 4C16 4.55228 15.5523 5 15 5H6Z" fill="black" fill-opacity="0.88"/>
<path d="M19.2929 3.29289C19.6834 2.90237 20.3166 2.90237 20.7071 3.29289C21.0976 3.68342 21.0976 4.31658 20.7071 4.70711L13.7071 11.7071C13.3166 12.0976 12.6834 12.0976 12.2929 11.7071C11.9024 11.3166 11.9024 10.6834 12.2929 10.2929L19.2929 3.29289Z" fill="black" fill-opacity="0.88"/>
</svg>
