<svg width="24" height="24" viewBox="0 0 24 24" fill="none" xmlns="http://www.w3.org/2000/svg">
<path fill-rule="evenodd" clip-rule="evenodd" d="M12 15.4641L15 13.7321C16.3333 12.9623 16.3333 11.0378 15 10.268L12 8.5359C10.6667 7.7661 9 8.72835 9 10.2679L9 13.7321C9 15.2717 10.6667 16.2339 12 15.4641ZM11 10.2679L14 12L11 13.7321L11 10.2679Z" fill="black" fill-opacity="0.88"/>
<path fill-rule="evenodd" clip-rule="evenodd" d="M12 2C6.47715 2 2 6.47715 2 12C2 17.5228 6.47715 22 12 22C17.5228 22 22 17.5228 22 12C22 6.47715 17.5228 2 12 2ZM4 12C4 7.58172 7.58172 4 12 4C16.4183 4 20 7.58172 20 12C20 16.4183 16.4183 20 12 20C7.58172 20 4 16.4183 4 12Z" fill="black" fill-opacity="0.88"/>
</svg>
