<svg width="24" height="24" viewBox="0 0 24 24" fill="none" xmlns="http://www.w3.org/2000/svg">
<path fill-rule="evenodd" clip-rule="evenodd" d="M5.84499 20.6444C6.20225 21.2632 6.86251 21.6444 7.57704 21.6444L16.4176 21.6444C17.1322 21.6444 17.7924 21.2632 18.1497 20.6444L22.57 12.9882C22.9273 12.3694 22.9273 11.607 22.57 10.9882L18.1497 3.33203C17.7924 2.71323 17.1322 2.33203 16.4176 2.33203H7.57704C6.86251 2.33203 6.20225 2.71323 5.84499 3.33203L1.42469 10.9882C1.06742 11.607 1.06742 12.3694 1.42469 12.9882L5.84499 20.6444ZM12.0002 14.9986C13.657 14.9986 15.0002 13.6555 15.0002 11.9986C15.0002 10.3417 13.657 8.9986 12.0002 8.9986C10.3433 8.9986 9.00015 10.3417 9.00015 11.9986C9.00015 13.6555 10.3433 14.9986 12.0002 14.9986Z" fill="black" fill-opacity="0.88"/>
</svg>
